<svg id="Calque_1" data-name="Calque 1" xmlns="http://www.w3.org/2000/svg" viewBox="0 0 60 60"><defs><style>.cls-1{fill:none;}.cls-2{fill:#854cab;}.cls-3{fill:#1b92ea;}.cls-4{fill:#0f3b56;}</style></defs><title>accessibility</title><path class="cls-1" d="M30,35.37a5.4,5.4,0,0,0,3.13-1l-8-6.61A5.32,5.32,0,0,0,30,35.37Z"/><path class="cls-1" d="M35.37,30A5.36,5.36,0,0,0,30,24.63a5.26,5.26,0,0,0-3.13,1l1.14.95,6.84,5.66A5.24,5.24,0,0,0,35.37,30Z"/><path class="cls-2" d="M30,24.63A5.36,5.36,0,0,1,35.37,30a5.24,5.24,0,0,1-.52,2.27L28,26.61l11.47,9.51L37,34A8,8,0,0,0,24.75,23.9l2.12,1.76A5.26,5.26,0,0,1,30,24.63Z"/><path class="cls-2" d="M23,26A8,8,0,0,0,35.25,36.1L21.7,24.86Zm2.12,1.76,8,6.61a5.33,5.33,0,0,1-8-6.61Z"/><path class="cls-3" d="M14.4,23.8a39.55,39.55,0,0,0-4.94,5.41L8.89,30l.56.79c.38.51,9.24,12.63,20.55,12.63a17.36,17.36,0,0,0,5.53-.94l-.86-2.55a14.55,14.55,0,0,1-4.67.8c-8.38,0-15.65-8.13-17.76-10.73a40.62,40.62,0,0,1,4-4.22,33.14,33.14,0,0,1,3.35-2.69l-2.13-1.78A36.45,36.45,0,0,0,14.4,23.8Z"/><path class="cls-3" d="M50.55,29.21C50.18,28.7,41.31,16.58,30,16.58a17.08,17.08,0,0,0-5.53.94l.86,2.55A14.56,14.56,0,0,1,30,19.26c8.39,0,15.66,8.14,17.76,10.74a38.54,38.54,0,0,1-4,4.21,34.69,34.69,0,0,1-3.35,2.7l2.14,1.77a35.84,35.84,0,0,0,3-2.48,39.12,39.12,0,0,0,4.95-5.42l.56-.78Z"/><rect class="cls-2" x="13.9" y="40.73" width="2.68" height="2.68"/><rect class="cls-2" x="43.42" y="16.58" width="2.68" height="2.68"/><polygon class="cls-4" points="46.57 42 42.58 38.68 42.58 38.68 46.57 42"/><polygon class="cls-4" points="40.44 36.91 39.48 36.12 40.44 36.91 40.44 36.91"/><polygon class="cls-4" points="24.75 23.9 15.15 15.94 24.75 23.9 24.75 23.9"/><polygon class="cls-4" points="26.87 25.66 28.01 26.61 26.87 25.66 26.87 25.66"/><polygon class="cls-4" points="13.43 18 17.43 21.32 17.43 21.31 13.43 18"/><polygon class="cls-4" points="19.57 23.09 21.7 24.86 19.57 23.09 19.57 23.09"/><polygon class="cls-4" points="35.25 36.1 44.86 44.06 35.25 36.09 35.25 36.1"/><polygon class="cls-3" points="40.44 36.91 39.48 36.12 28.01 26.61 26.87 25.66 26.87 25.66 24.75 23.9 24.75 23.9 15.15 15.94 13.43 18 17.43 21.31 17.43 21.32 19.57 23.09 19.57 23.09 21.7 24.86 35.25 36.1 35.25 36.09 44.86 44.06 46.57 42 42.58 38.68 42.58 38.68 40.44 36.91 40.44 36.91"/></svg>