<?xml version="1.0" encoding="UTF-8" standalone="no"?>
<!-- Generator: Adobe Illustrator 19.0.0, SVG Export Plug-In . SVG Version: 6.00 Build 0)  -->

<svg
   xmlns:dc="http://purl.org/dc/elements/1.1/"
   xmlns:cc="http://creativecommons.org/ns#"
   xmlns:rdf="http://www.w3.org/1999/02/22-rdf-syntax-ns#"
   xmlns:svg="http://www.w3.org/2000/svg"
   xmlns="http://www.w3.org/2000/svg"
   xmlns:sodipodi="http://sodipodi.sourceforge.net/DTD/sodipodi-0.dtd"
   xmlns:inkscape="http://www.inkscape.org/namespaces/inkscape"
   version="1.1"
   id="Capa_1"
   x="0px"
   y="0px"
   viewBox="0 0 60 40"
   xml:space="preserve"
   sodipodi:docname="arrow-link.svg"
   width="60"
   height="40"
   inkscape:version="0.92.4 (5da689c313, 2019-01-14)"><metadata
   id="metadata43"><rdf:RDF><cc:Work
       rdf:about=""><dc:format>image/svg+xml</dc:format><dc:type
         rdf:resource="http://purl.org/dc/dcmitype/StillImage" /><dc:title></dc:title></cc:Work></rdf:RDF></metadata><defs
   id="defs41" /><sodipodi:namedview
   pagecolor="#ffffff"
   bordercolor="#666666"
   borderopacity="1"
   objecttolerance="10"
   gridtolerance="10"
   guidetolerance="10"
   inkscape:pageopacity="0"
   inkscape:pageshadow="2"
   inkscape:window-width="1920"
   inkscape:window-height="1043"
   id="namedview39"
   showgrid="false"
   inkscape:zoom="5.2149125"
   inkscape:cx="10.083883"
   inkscape:cy="-9.3348401"
   inkscape:window-x="0"
   inkscape:window-y="0"
   inkscape:window-maximized="1"
   inkscape:current-layer="Capa_1" />
<g
   id="g6"
   transform="matrix(0.07320194,0,0,0.07320194,11.260294,1.2603034)">
	<g
   id="g4">
		<path
   d="m 506.134,241.843 c -0.006,-0.006 -0.011,-0.013 -0.018,-0.019 l -104.504,-104 c -7.829,-7.791 -20.492,-7.762 -28.285,0.068 -7.792,7.829 -7.762,20.492 0.067,28.284 L 443.558,236 H 20 c -11.046,0 -20,8.954 -20,20 0,11.046 8.954,20 20,20 h 423.557 l -70.162,69.824 c -7.829,7.792 -7.859,20.455 -0.067,28.284 7.793,7.831 20.457,7.858 28.285,0.068 l 104.504,-104 c 0.006,-0.006 0.011,-0.013 0.018,-0.019 7.833,-7.818 7.808,-20.522 -10e-4,-28.314 z"
   id="path2"
   inkscape:connector-curvature="0" />
	</g>
</g>
<g
   id="g8"
   transform="matrix(0.07320194,0,0,0.07320194,1.3021278,-96.588402)">
</g>
<g
   id="g10"
   transform="matrix(0.07320194,0,0,0.07320194,1.3021278,-96.588402)">
</g>
<g
   id="g12"
   transform="matrix(0.07320194,0,0,0.07320194,1.3021278,-96.588402)">
</g>
<g
   id="g14"
   transform="matrix(0.07320194,0,0,0.07320194,1.3021278,-96.588402)">
</g>
<g
   id="g16"
   transform="matrix(0.07320194,0,0,0.07320194,1.3021278,-96.588402)">
</g>
<g
   id="g18"
   transform="matrix(0.07320194,0,0,0.07320194,1.3021278,-96.588402)">
</g>
<g
   id="g20"
   transform="matrix(0.07320194,0,0,0.07320194,1.3021278,-96.588402)">
</g>
<g
   id="g22"
   transform="matrix(0.07320194,0,0,0.07320194,1.3021278,-96.588402)">
</g>
<g
   id="g24"
   transform="matrix(0.07320194,0,0,0.07320194,1.3021278,-96.588402)">
</g>
<g
   id="g26"
   transform="matrix(0.07320194,0,0,0.07320194,1.3021278,-96.588402)">
</g>
<g
   id="g28"
   transform="matrix(0.07320194,0,0,0.07320194,1.3021278,-96.588402)">
</g>
<g
   id="g30"
   transform="matrix(0.07320194,0,0,0.07320194,1.3021278,-96.588402)">
</g>
<g
   id="g32"
   transform="matrix(0.07320194,0,0,0.07320194,1.3021278,-96.588402)">
</g>
<g
   id="g34"
   transform="matrix(0.07320194,0,0,0.07320194,1.3021278,-96.588402)">
</g>
<g
   id="g36"
   transform="matrix(0.07320194,0,0,0.07320194,1.3021278,-96.588402)">
</g>
</svg>