<?xml version="1.0" encoding="UTF-8" standalone="no"?>
<!-- Generator: Adobe Illustrator 19.0.0, SVG Export Plug-In . SVG Version: 6.00 Build 0)  -->

<svg
   xmlns:dc="http://purl.org/dc/elements/1.1/"
   xmlns:cc="http://creativecommons.org/ns#"
   xmlns:rdf="http://www.w3.org/1999/02/22-rdf-syntax-ns#"
   xmlns:svg="http://www.w3.org/2000/svg"
   xmlns="http://www.w3.org/2000/svg"
   xmlns:sodipodi="http://sodipodi.sourceforge.net/DTD/sodipodi-0.dtd"
   xmlns:inkscape="http://www.inkscape.org/namespaces/inkscape"
   version="1.1"
   id="Capa_1"
   x="0px"
   y="0px"
   viewBox="0 0 60.000001 60.000001"
   xml:space="preserve"
   sodipodi:docname="arrow-right.svg"
   width="60"
   height="60"
   inkscape:version="0.92.4 (5da689c313, 2019-01-14)"><metadata
   id="metadata39"><rdf:RDF><cc:Work
       rdf:about=""><dc:format>image/svg+xml</dc:format><dc:type
         rdf:resource="http://purl.org/dc/dcmitype/StillImage" /><dc:title></dc:title></cc:Work></rdf:RDF></metadata><defs
   id="defs37" /><sodipodi:namedview
   pagecolor="#ffffff"
   bordercolor="#666666"
   borderopacity="1"
   objecttolerance="10"
   gridtolerance="10"
   guidetolerance="10"
   inkscape:pageopacity="0"
   inkscape:pageshadow="2"
   inkscape:window-width="1920"
   inkscape:window-height="1043"
   id="namedview35"
   showgrid="false"
   inkscape:zoom="5.4416442"
   inkscape:cx="0.59317499"
   inkscape:cy="14.265753"
   inkscape:window-x="0"
   inkscape:window-y="0"
   inkscape:window-maximized="1"
   inkscape:current-layer="Capa_1" />
<path
   style="fill:#009688;stroke-width:0.10439467"
   d="M 53.059288,29.21156 28.561304,4.7136798 C 28.352097,4.5048905 28.068456,4.3879685 27.772915,4.3884905 H 7.7291391 c -0.614989,-0.00115 -1.114413,0.4966053 -1.115562,1.1115943 -5.22e-4,0.296481 0.117235,0.580957 0.327173,0.790372 L 30.652538,30.000053 6.9407501,53.709543 c -0.43543,0.434282 -0.436265,1.139364 -0.002,1.574794 0.209415,0.209938 0.493891,0.327695 0.790372,0.327173 H 27.772898 c 0.295541,5.22e-4 0.579182,-0.1164 0.788389,-0.325189 L 53.059288,30.788337 c 0.43543,-0.434282 0.436265,-1.139364 0.002,-1.574794 -7.31e-4,-6.26e-4 -0.0014,-0.0013 -0.002,-0.002 z"
   id="path2"
   inkscape:connector-curvature="0" />
<g
   id="g4"
   transform="matrix(0.10439467,0,0,0.10439467,19.088917,8.7770038)">
</g>
<g
   id="g6"
   transform="matrix(0.10439467,0,0,0.10439467,19.088917,8.7770038)">
</g>
<g
   id="g8"
   transform="matrix(0.10439467,0,0,0.10439467,19.088917,8.7770038)">
</g>
<g
   id="g10"
   transform="matrix(0.10439467,0,0,0.10439467,19.088917,8.7770038)">
</g>
<g
   id="g12"
   transform="matrix(0.10439467,0,0,0.10439467,19.088917,8.7770038)">
</g>
<g
   id="g14"
   transform="matrix(0.10439467,0,0,0.10439467,19.088917,8.7770038)">
</g>
<g
   id="g16"
   transform="matrix(0.10439467,0,0,0.10439467,19.088917,8.7770038)">
</g>
<g
   id="g18"
   transform="matrix(0.10439467,0,0,0.10439467,19.088917,8.7770038)">
</g>
<g
   id="g20"
   transform="matrix(0.10439467,0,0,0.10439467,19.088917,8.7770038)">
</g>
<g
   id="g22"
   transform="matrix(0.10439467,0,0,0.10439467,19.088917,8.7770038)">
</g>
<g
   id="g24"
   transform="matrix(0.10439467,0,0,0.10439467,19.088917,8.7770038)">
</g>
<g
   id="g26"
   transform="matrix(0.10439467,0,0,0.10439467,19.088917,8.7770038)">
</g>
<g
   id="g28"
   transform="matrix(0.10439467,0,0,0.10439467,19.088917,8.7770038)">
</g>
<g
   id="g30"
   transform="matrix(0.10439467,0,0,0.10439467,19.088917,8.7770038)">
</g>
<g
   id="g32"
   transform="matrix(0.10439467,0,0,0.10439467,19.088917,8.7770038)">
</g>
</svg>