<svg id="Calque_1" data-name="Calque 1" xmlns="http://www.w3.org/2000/svg" viewBox="0 0 60 60"><defs><style>.cls-1{fill:#fff;}</style></defs><title>banking-white</title><path class="cls-1" d="M27.34,20.08c-1.58,0-2.65-.88-2.65-1.5,0-.31.27-.73.59-.73s.76.89,2.06,1v-3c-1.15-.4-2.42-.86-2.42-2.49A2.37,2.37,0,0,1,27.34,11v-.37a.33.33,0,0,1,.37-.29c.19,0,.38.14.38.29V11c.86,0,2.08.29,2.08.91,0,.24-.17.73-.56.73s-.63-.41-1.52-.47v2.58c1.1.41,2.31,1,2.31,2.7A2.46,2.46,0,0,1,28.09,20v.43c0,.15-.19.29-.38.29a.33.33,0,0,1-.37-.29v-.39Zm.07-5.6V12.16c-.71.09-1.22.41-1.22,1.07S26.74,14.22,27.41,14.48Zm.6,1.65v2.69a1.21,1.21,0,0,0,1.12-1.26A1.5,1.5,0,0,0,28,16.13Z"/><path class="cls-1" d="M46.85,32.14a.72.72,0,0,0-1.44,0,.92.92,0,0,1-1.84,0,.72.72,0,0,0-1.44,0,2.36,2.36,0,0,0,4.72,0Z"/><path class="cls-1" d="M46,23c-.28,2.38-1,4.41-1.77,4.84A4.42,4.42,0,0,1,40,27.28c-1.48-1.08-2-3-1.43-5.62a.91.91,0,0,1,.5-.6c3.61-1.65,5.7-2.19,6.47-2.19a.79.79,0,0,1,.26,0C46,19.15,46.29,20.56,46,23ZM7.22,31c-.07-.15.11-.43.22-.57a.58.58,0,0,1,.46-.29H8a1.56,1.56,0,0,1,1,1,2.3,2.3,0,0,1,.15.68C8.17,31.61,7.39,31.32,7.22,31Zm45.68.56-2-.65a.83.83,0,0,1-.54-.55A13.63,13.63,0,0,0,47.12,25a18,18,0,0,0,.45-3.84c0-.08,0-.16,0-.24,0-1.84-.39-2.92-1.12-3.3-.39-.21-1.58-.83-8,2.12A2.3,2.3,0,0,0,38,20c-.43-.12-.88-.22-1.32-.32l-.16,0h0a10.39,10.39,0,0,0,.61-1.78A9.8,9.8,0,0,0,37.39,16,.72.72,0,0,0,36,15.93a8.38,8.38,0,0,1-2.46,5.56,8.26,8.26,0,0,1-3,1.94h-.07a8.48,8.48,0,0,1-2.82.48,8.33,8.33,0,0,1-2.83-.49h-.09a8.26,8.26,0,0,1-3-1.94,8.41,8.41,0,1,1,13.46-9.72.72.72,0,0,0,1.29-.65l-.18-.35L36,10.44l0,0-.19-.3a10.28,10.28,0,0,0-.7-.93l0,0c-.16-.19-.34-.38-.52-.56l-.35-.34L33.82,8l-.11-.09-.28-.22,0,0L33,7.35l-.2-.14c-.21-.13-.41-.25-.62-.36l-.43-.22h0l-.35-.16-.23-.09L31,6.29l-.23-.08L30,6a9,9,0,0,0-1-.21l-.42,0-.5,0-.52,0a9.86,9.86,0,0,0-7,16.83,10.34,10.34,0,0,0,1.74,1.38c-.45.11-.9.25-1.34.39a.73.73,0,0,0-.45.92.71.71,0,0,0,.91.45,20.47,20.47,0,0,1,3.09-.75,19.55,19.55,0,0,1,6.06,0,19,19,0,0,1,3.06.74.66.66,0,0,0,.23,0,.72.72,0,0,0,.23-1.41c-.44-.14-.89-.28-1.34-.39a5.25,5.25,0,0,0,.49-.33c.2-.14.38-.28.57-.43s.46-.4.68-.62A9.71,9.71,0,0,0,35.77,21h0l.58.12.78.18,0,.1a8.59,8.59,0,0,0,.07,4.39,5.21,5.21,0,0,0,1.92,2.69,6,6,0,0,0,3.55,1.12A4.77,4.77,0,0,0,45,29a4.36,4.36,0,0,0,1.7-2.41c.21.25.4.5.59.75A11.7,11.7,0,0,1,49,30.76a2.31,2.31,0,0,0,1.48,1.5l2,.65a1.28,1.28,0,0,1,.89,1.22V37.5a1.28,1.28,0,0,1-.89,1.22l-3.28,1.05a2.3,2.3,0,0,0-1.25,1,14.36,14.36,0,0,1-6,5.47,1.11,1.11,0,0,0-.59.8L40.29,52.6a.32.32,0,0,1-.32.26h-3.4a.32.32,0,0,1-.32-.26l-.58-3.07a1.14,1.14,0,0,0-1.3-.91,30.33,30.33,0,0,1-4.49.33,27.52,27.52,0,0,1-3.31-.19,1.15,1.15,0,0,0-1.25.92l-.55,2.92a.33.33,0,0,1-.32.26H21a.32.32,0,0,1-.32-.27l-1-5.24a1.14,1.14,0,0,0-.58-.79,12.74,12.74,0,0,1-7-11.88,14,14,0,0,1,1.74-7,12.54,12.54,0,0,1,4.7-4.58.72.72,0,0,0-.73-1.25,13.73,13.73,0,0,0-7,10.26l-.21,0a3.63,3.63,0,0,0-.26-1.44,3,3,0,0,0-2.19-1.91,2,2,0,0,0-1.88.84,1.88,1.88,0,0,0-.36,2.07c.36.75,1.29,1.28,2.85,1.61,0,.06-.09.13-.15.19a3.51,3.51,0,0,1-2.69,1.43.77.77,0,0,0-.74.76h0a.76.76,0,0,0,.72.75h.16a4.69,4.69,0,0,0,3.68-2,3.92,3.92,0,0,0,.53-.86l.39,0c0,.39,0,.79,0,1.19a14.82,14.82,0,0,0,2.13,8,14.6,14.6,0,0,0,5.54,5.12l1,5.09A1.78,1.78,0,0,0,21,54.31h3.41a1.78,1.78,0,0,0,1.74-1.45l.5-2.63a30.15,30.15,0,0,0,3.19.16,32.38,32.38,0,0,0,4.42-.3l.53,2.77a1.78,1.78,0,0,0,1.74,1.45H40a1.78,1.78,0,0,0,1.74-1.45l1-5.4a15.74,15.74,0,0,0,6.46-6,.8.8,0,0,1,.44-.37l3.27-1a2.72,2.72,0,0,0,1.9-2.6V34.13A2.72,2.72,0,0,0,52.9,31.53Z"/><path class="cls-1" d="M36.36,11.14v0l-.18-.35L36,10.44l0,0-.19-.3a10.28,10.28,0,0,0-.7-.93l0,0c-.16-.19-.34-.38-.52-.56l-.35-.34L33.82,8l-.11-.09-.28-.22,0,0L33,7.35l-.2-.14c-.21-.13-.41-.25-.62-.36l-.43-.22h0l-.35-.16-.23-.09L31,6.29l-.23-.08L30,6a9,9,0,0,0-1-.21l-.42,0-.5,0h-.51a9.84,9.84,0,0,0-3,19.21,19.55,19.55,0,0,1,6.06,0,9.87,9.87,0,0,0,2.18-1,5.25,5.25,0,0,0,.49-.33c.2-.14.38-.28.57-.43s.46-.4.68-.62a9.7,9.7,0,0,0,2-2.87,9.79,9.79,0,0,0-.15-8.51Zm-8.8,12.77a8.34,8.34,0,1,1,2.82-.48A8.48,8.48,0,0,1,27.56,23.91Z"/></svg>