<svg id="Calque_1" data-name="Calque 1" xmlns="http://www.w3.org/2000/svg" viewBox="0 0 60 60"><defs><style>.cls-1{fill:#fff;}</style></defs><title>building-white</title><g id="Real_Estate-Building-Smart_City-Communication-Internet" data-name="Real Estate-Building-Smart City-Communication-Internet"><path class="cls-1" d="M48.55,54.73V40.6h.88a.88.88,0,0,0,.88-.89V36.18a.87.87,0,0,0-.88-.88H39.71V33.53h.89a.88.88,0,0,0,.88-.88V29.12a.89.89,0,0,0-.88-.89H19.4a.89.89,0,0,0-.88.89v3.53a.88.88,0,0,0,.88.88h.89V35.3H10.57a.87.87,0,0,0-.88.88v3.53a.88.88,0,0,0,.88.89h.88V54.73H7v1.76H53V54.73Zm-28.26,0H13.22V40.6h7.07Zm0-15.9H11.45V37.06h8.84Zm0-8.83H39.71v1.77H20.29ZM31.77,54.73H28.23V51.19h3.54Zm6.18,0H33.53V51.19h.89V49.43H25.58v1.76h.89v3.54H22.05V33.53H38Zm8.83,0H39.71V40.6h7.07Zm-7.07-15.9V37.06h8.84v1.77Z"/><path class="cls-1" d="M23.82,35.3h1.76v1.76H23.82Z"/><path class="cls-1" d="M27.35,35.3h1.77v1.76H27.35Z"/><path class="cls-1" d="M30.88,35.3h1.77v1.76H30.88Z"/><path class="cls-1" d="M34.42,35.3h1.76v1.76H34.42Z"/><path class="cls-1" d="M23.82,38.83h1.76V40.6H23.82Z"/><path class="cls-1" d="M27.35,38.83h1.77V40.6H27.35Z"/><path class="cls-1" d="M30.88,38.83h1.77V40.6H30.88Z"/><path class="cls-1" d="M34.42,38.83h1.76V40.6H34.42Z"/><path class="cls-1" d="M23.82,42.36h1.76v1.77H23.82Z"/><path class="cls-1" d="M27.35,42.36h1.77v1.77H27.35Z"/><path class="cls-1" d="M30.88,42.36h1.77v1.77H30.88Z"/><path class="cls-1" d="M34.42,42.36h1.76v1.77H34.42Z"/><path class="cls-1" d="M23.82,45.9h1.76v1.76H23.82Z"/><path class="cls-1" d="M27.35,45.9h1.77v1.76H27.35Z"/><path class="cls-1" d="M30.88,45.9h1.77v1.76H30.88Z"/><path class="cls-1" d="M34.42,45.9h1.76v1.76H34.42Z"/><path class="cls-1" d="M41.48,42.36H45v1.77H41.48Z"/><path class="cls-1" d="M41.48,45.9H45v1.76H41.48Z"/><path class="cls-1" d="M41.48,49.43H45v1.76H41.48Z"/><path class="cls-1" d="M15,42.36h3.53v1.77H15Z"/><path class="cls-1" d="M15,45.9h3.53v1.76H15Z"/><path class="cls-1" d="M15,49.43h3.53v1.76H15Z"/><path class="cls-1" d="M29.12,15h1.76v1.76H29.12Z"/><path class="cls-1" d="M26.88,12.75,28.13,14a2.63,2.63,0,0,1,3.74,0h0l1.25-1.25a4.42,4.42,0,0,0-6.24,0Z"/><path class="cls-1" d="M34.37,11.5l1.25-1.25a8,8,0,0,0-11.24,0l1.25,1.25A6.19,6.19,0,0,1,34.37,11.5Z"/><path class="cls-1" d="M30,21.17a8.83,8.83,0,1,0-8.83-8.83A8.83,8.83,0,0,0,30,21.17Zm0-15.9a7.07,7.07,0,1,1-7.06,7.07A7.07,7.07,0,0,1,30,5.27Z"/><path class="cls-1" d="M47.66,16.75h-5.3a.9.9,0,0,0-.62.26l-5.3,5.3a.88.88,0,0,0-.26.63v3.53H38V23.3l4.78-4.78h4.93Z"/><path class="cls-1" d="M52.08,15a2.65,2.65,0,1,0,2.65,2.65A2.64,2.64,0,0,0,52.08,15Zm0,3.53a.89.89,0,1,1,.88-.88A.89.89,0,0,1,52.08,18.52Z"/><path class="cls-1" d="M52.08,8.81a2.65,2.65,0,1,0-2.65-2.65A2.65,2.65,0,0,0,52.08,8.81Zm0-3.54a.89.89,0,1,1-.89.89A.88.88,0,0,1,52.08,5.27Z"/><path class="cls-1" d="M47.4,12.08l1.77-1.77L47.92,9.06l-1.51,1.51H40.6v1.77h6.18A.9.9,0,0,0,47.4,12.08Z"/><path class="cls-1" d="M23.82,26.47V22.94a.88.88,0,0,0-.26-.63L18.26,17a.9.9,0,0,0-.62-.26h-5.3v1.77h4.93l4.78,4.78v3.17Z"/><path class="cls-1" d="M10.57,17.64a2.65,2.65,0,1,0-2.65,2.65A2.64,2.64,0,0,0,10.57,17.64ZM7,17.64a.89.89,0,1,1,.88.88A.88.88,0,0,1,7,17.64Z"/><path class="cls-1" d="M7.92,8.81A2.65,2.65,0,1,0,5.27,6.16,2.65,2.65,0,0,0,7.92,8.81Zm0-3.54A.89.89,0,1,1,7.92,7a.89.89,0,0,1,0-1.77Z"/><path class="cls-1" d="M13.22,12.34H19.4V10.57H13.59L12.08,9.06l-1.25,1.25,1.77,1.77A.9.9,0,0,0,13.22,12.34Z"/></g></svg>