<svg id="Calque_1" data-name="Calque 1" xmlns="http://www.w3.org/2000/svg" viewBox="0 0 60 60"><defs><style>.cls-1{fill:#1b92ea;}.cls-2{fill:#854cab;}</style></defs><title>developer</title><path class="cls-1" d="M49.23,10.85H10.9a4.49,4.49,0,0,0-4.49,4.49v19H6.28v1.88h.13v1.24A4.5,4.5,0,0,0,10.9,42H22.62v5.31H20.43a.77.77,0,0,0-.78.77v.33a.78.78,0,0,0,.78.78H39.71a.78.78,0,0,0,.77-.78V48a.77.77,0,0,0-.77-.77H37.52V42H49.23a4.5,4.5,0,0,0,4.49-4.49V15.34A4.49,4.49,0,0,0,49.23,10.85ZM35.84,47.19H24.29V42H35.84ZM52,37.47a2.81,2.81,0,0,1-2.81,2.81H10.9a2.81,2.81,0,0,1-2.81-2.81V36.23H52Zm0-3.12H8.09v-19a2.81,2.81,0,0,1,2.81-2.81H49.23A2.81,2.81,0,0,1,52,15.34Z"/><path class="cls-2" d="M18.59,24.75l5.91,2.39V29l-7.72-3.58V24l7.72-3.57v1.85Z"/><path class="cls-2" d="M27.6,32H26.1l5.74-14.93h1.49Z"/><path class="cls-2" d="M41.4,24.69l-6.24-2.44v-1.8L43.22,24V25.4L35.16,29V27.17Z"/></svg>