<svg id="Calque_1" data-name="Calque 1" xmlns="http://www.w3.org/2000/svg" viewBox="0 0 60 60"><defs><style>.cls-1{fill:#091a90;}</style></defs><title>dyslexia-font</title><path class="cls-1" d="M17.05,19.72c.55,1.85,1.12,3.9,1.64,5.77.74,2.61,1.47,5.21,2.3,7.84s1.78,5.32,2.92,8l-2.26-.18L19.37,41c-.29-1.15-.54-2.3-.77-3.48-1.53,0-3,0-4.57,0s-3,0-4.61,0c-.23.56-.5,1.15-.78,1.76S8.06,40.49,7.8,41c-.3,0-.64.05-1,.06l-1.15.09-1.17.08-1,.09c2.94-5,5.3-10.12,7.53-15,1-2.15,2.11-4.57,3.14-6.68Zm-.64,8c-.2-.81-.38-1.62-.56-2.41L15.27,23l-1.79,4.44c-.9,2.21-1.76,4.27-2.7,6.49h7.09c-.25-1-.51-2-.73-3.06S16.66,28.79,16.41,27.76Z"/><path class="cls-1" d="M29.93,18.91c-.18,2.62-.4,5.43-.69,8.07a5.45,5.45,0,0,1,2.08-1.67,6.13,6.13,0,0,1,2.55-.58h.45A4.84,4.84,0,0,1,38.52,27a8.84,8.84,0,0,1,1.3,4.87,15.64,15.64,0,0,1-.42,3.78,8.49,8.49,0,0,1-1.73,3.57A6,6,0,0,1,33,41.31h-.29a.12.12,0,0,1-.07,0h-.13A5.52,5.52,0,0,1,30,40.7,8.75,8.75,0,0,1,27.27,39l-1.82-2.11c1.39-7.69,1.4-10.74,1.57-18.31A18.64,18.64,0,0,0,29.93,18.91Zm8,13.57v-.34a.55.55,0,0,1,0-.18v-.18a7.68,7.68,0,0,0-.63-3.35,2.77,2.77,0,0,0-2.61-1.6,4.24,4.24,0,0,0-3.28,1.48,8.75,8.75,0,0,0-1.49,4.3,5.36,5.36,0,0,0,.78,2.8,3.56,3.56,0,0,0,1.4.81,5.08,5.08,0,0,0,1.56.25,5.35,5.35,0,0,0,2.75-.88l0,0a3.68,3.68,0,0,0,1-1.47,8.8,8.8,0,0,0,.51-1.73Z"/><path class="cls-1" d="M56.17,25.79l.39-.06c-.06.28-.1.55-.15.8s-.1.53-.15.81h0l-.12.89A9.43,9.43,0,0,0,52,27.15a6.35,6.35,0,0,0-2.18.36,4.08,4.08,0,0,0-1.86,1.25,5.4,5.4,0,0,0-1.11,2.09,11.28,11.28,0,0,0-.48,2.32,5.16,5.16,0,0,0,.22,1.49,2.37,2.37,0,0,0,.77,1.18h0a7.2,7.2,0,0,0,3.44.88h0l2.19.05h.17a5.52,5.52,0,0,0,2.22-.61c0,.4-.05.88-.06,1.39s0,1,0,1.4,0,1.18,0,1.7a12.54,12.54,0,0,1-4.5.79A11.45,11.45,0,0,1,47.42,41a5.49,5.49,0,0,1-2.77-1.78l0,0A5.64,5.64,0,0,1,43.55,37a9.45,9.45,0,0,1-.3-2.56,14.49,14.49,0,0,1,.51-3.88,7.68,7.68,0,0,1,2-3.59,8,8,0,0,1,3.17-1.72,12.15,12.15,0,0,1,3.45-.47,11.58,11.58,0,0,1,4.07.71Z"/></svg>