<?xml version="1.0" encoding="UTF-8" standalone="no"?>
<svg
   xmlns:dc="http://purl.org/dc/elements/1.1/"
   xmlns:cc="http://creativecommons.org/ns#"
   xmlns:rdf="http://www.w3.org/1999/02/22-rdf-syntax-ns#"
   xmlns:svg="http://www.w3.org/2000/svg"
   xmlns="http://www.w3.org/2000/svg"
   xmlns:sodipodi="http://sodipodi.sourceforge.net/DTD/sodipodi-0.dtd"
   xmlns:inkscape="http://www.inkscape.org/namespaces/inkscape"
   id="Capa_1"
   enable-background="new 0 0 512 512"
   height="60"
   viewBox="0 0 60 60"
   width="60"
   version="1.1"
   sodipodi:docname="handicap.svg"
   inkscape:version="0.92.4 (5da689c313, 2019-01-14)">
  <metadata
     id="metadata15">
    <rdf:RDF>
      <cc:Work
         rdf:about="">
        <dc:format>image/svg+xml</dc:format>
        <dc:type
           rdf:resource="http://purl.org/dc/dcmitype/StillImage" />
        <dc:title></dc:title>
      </cc:Work>
    </rdf:RDF>
  </metadata>
  <defs
     id="defs13" />
  <sodipodi:namedview
     pagecolor="#ffffff"
     bordercolor="#666666"
     borderopacity="1"
     objecttolerance="10"
     gridtolerance="10"
     guidetolerance="10"
     inkscape:pageopacity="0"
     inkscape:pageshadow="2"
     inkscape:window-width="1920"
     inkscape:window-height="1043"
     id="namedview11"
     showgrid="false"
     inkscape:zoom="2.6074563"
     inkscape:cx="118.36194"
     inkscape:cy="-15.768161"
     inkscape:window-x="0"
     inkscape:window-y="0"
     inkscape:window-maximized="1"
     inkscape:current-layer="Capa_1" />
  <g
     id="g836"
     transform="translate(3.9003008,-3.9003009)">
    <g
       id="g829">
      <g
         id="g8"
         transform="matrix(0.10195195,0,0,0.10195195,0,7.8006017)">
        <path
           d="M 256,0 C 114.509,0 0,114.497 0,256 0,324.38 26.629,388.667 74.98,437.02 123.333,485.371 187.62,512 256,512 324.38,512 388.667,485.371 437.02,437.02 485.371,388.667 512,324.38 512,256 512,114.509 397.503,0 256,0 Z m 0,482 C 131.383,482 30,380.617 30,256 30,131.383 131.383,30 256,30 380.617,30 482,131.383 482,256 482,380.617 380.617,482 256,482 Z"
           id="path2"
           inkscape:connector-curvature="0" />
        <path
           d="m 336.547,366.009 c -6.224,-5.468 -15.701,-4.855 -21.169,1.368 -15.013,17.087 -36.655,26.887 -59.378,26.887 -43.563,0 -79.005,-35.442 -79.005,-79.005 0,-23.473 10.342,-45.58 28.375,-60.652 6.356,-5.313 7.202,-14.772 1.889,-21.129 -5.313,-6.356 -14.771,-7.201 -21.129,-1.889 -24.87,20.788 -39.134,51.285 -39.134,83.67 0,60.106 48.899,109.005 109.005,109.005 31.352,0 61.208,-13.517 81.915,-37.086 5.467,-6.223 4.855,-15.701 -1.369,-21.169 z"
           id="path4"
           inkscape:connector-curvature="0" />
        <path
           d="m 405.553,348.75 h -10.396 l -32.164,-55.656 c -2.681,-4.638 -7.631,-7.495 -12.987,-7.495 H 271 v -49.346 h 66.128 c 8.284,0 15,-6.716 15,-15 0,-8.284 -6.716,-15 -15,-15 H 271 v -28.008 c 24.865,-6.635 43.238,-29.343 43.238,-56.27 0,-32.113 -26.126,-58.239 -58.238,-58.239 -32.113,0 -58.239,26.126 -58.239,58.239 0,26.927 18.373,49.636 43.239,56.271 V 300.6 c 0,8.284 6.716,15 15,15 h 85.349 l 32.164,55.656 c 2.681,4.638 7.631,7.495 12.987,7.495 h 19.053 c 8.284,0 15,-6.716 15,-15 0,-8.284 -6.716,-15.001 -15,-15.001 z M 227.761,121.975 c 0,-15.571 12.668,-28.239 28.239,-28.239 15.57,0 28.238,12.668 28.238,28.239 0,15.571 -12.668,28.238 -28.238,28.238 -15.571,0 -28.239,-12.668 -28.239,-28.238 z"
           id="path6"
           inkscape:connector-curvature="0" />
      </g>
    </g>
  </g>
</svg>
