<svg id="Calque_1" data-name="Calque 1" xmlns="http://www.w3.org/2000/svg" viewBox="0 0 60 60"><defs><style>.cls-1{fill:#fff;}</style></defs><title>handsfree-white</title><path class="cls-1" d="M46.63,28.6a2.91,2.91,0,0,0-2.91,2.9V39a2.15,2.15,0,0,1-.8,1.68l0,0L41.32,42a.53.53,0,0,1-.84-.33L40,37.34v0a2.9,2.9,0,0,0-5.78.4V45a7.36,7.36,0,0,0,1.56,4.53l.35.44v2.29a.91.91,0,0,0,.91.91h7.22a.92.92,0,0,0,.91-.91V50.16l3.38-5,0,0a6.42,6.42,0,0,0,.95-3.36V31.5a2.91,2.91,0,0,0-2.91-2.9Zm1.09,13.17a4.6,4.6,0,0,1-.67,2.4l-3.52,5.21a.93.93,0,0,0-.16.51v1.49H38v-1.7a.88.88,0,0,0-.19-.56l-.54-.69A5.55,5.55,0,0,1,36.05,45v-7.3a1.09,1.09,0,0,1,1.09-1.09,1.11,1.11,0,0,1,1.09.93l.45,4.33a2.36,2.36,0,0,0,3.81,1.51L44.07,42A4,4,0,0,0,45.53,39V31.5a1.1,1.1,0,0,1,2.19,0Z"/><path class="cls-1" d="M38,19.85a4.3,4.3,0,1,0,4.29-4.3A4.3,4.3,0,0,0,38,19.85Zm6.77,0a2.48,2.48,0,1,1-2.48-2.49,2.49,2.49,0,0,1,2.48,2.49Z"/><path class="cls-1" d="M14.1,19.85a4.3,4.3,0,1,0,4.3-4.3,4.3,4.3,0,0,0-4.3,4.3Zm4.3-2.49a2.49,2.49,0,1,1-2.49,2.49,2.49,2.49,0,0,1,2.49-2.49Z"/><path class="cls-1" d="M30.32,15.4A4.3,4.3,0,1,0,26,11.1,4.31,4.31,0,0,0,30.32,15.4Zm0-6.78a2.49,2.49,0,1,1-2.48,2.48A2.49,2.49,0,0,1,30.32,8.62Z"/><path class="cls-1" d="M30.15,24.71A4.3,4.3,0,1,0,34.44,29a4.3,4.3,0,0,0-4.29-4.29Zm0,6.77A2.48,2.48,0,1,1,32.63,29,2.49,2.49,0,0,1,30.15,31.48Z"/><path class="cls-1" d="M11.44,19.23a.92.92,0,0,0,1-.79,5.74,5.74,0,0,1,2.67-3.86.91.91,0,1,0-1-1.53,7.58,7.58,0,0,0-3.5,5.18.9.9,0,0,0,.79,1Z"/><path class="cls-1" d="M46.32,24.48a4.28,4.28,0,0,1-1.4.89A.9.9,0,0,0,45.64,27a6.34,6.34,0,0,0,3.26-3,.91.91,0,0,0-1.61-.84A5,5,0,0,1,46.32,24.48Z"/><path class="cls-1" d="M18,25.66a.91.91,0,0,0-1.64.78,13.38,13.38,0,0,0,7.51,6.23A.91.91,0,0,0,25,32.11.89.89,0,0,0,24.44,31,11.65,11.65,0,0,1,18,25.66Z"/><path class="cls-1" d="M36.56,9.38a11.65,11.65,0,0,1,6.8,4.85.91.91,0,0,0,1.5-1,13.31,13.31,0,0,0-8-5.61.9.9,0,1,0-.32,1.78Z"/><path class="cls-1" d="M13.37,28.6a2.91,2.91,0,0,0-2.91,2.9V41.77a6.42,6.42,0,0,0,.95,3.36l0,0,3.38,5v2.12a.92.92,0,0,0,.91.91h7.22a.91.91,0,0,0,.91-.91V50l.35-.44A7.36,7.36,0,0,0,25.76,45v-7.3a2.9,2.9,0,0,0-5.78-.4v0l-.45,4.33a.53.53,0,0,1-.84.33L17.1,40.65l0,0a2.15,2.15,0,0,1-.8-1.68V31.5a2.91,2.91,0,0,0-2.91-2.9Zm-1.09,2.9a1.1,1.1,0,0,1,2.19,0V39A4,4,0,0,0,15.93,42l1.58,1.36a2.36,2.36,0,0,0,3.81-1.51l.45-4.33a1.11,1.11,0,0,1,1.09-.93A1.09,1.09,0,0,1,24,37.71V45a5.55,5.55,0,0,1-1.18,3.41l-.54.69a.88.88,0,0,0-.19.56v1.7H16.63V49.89a.93.93,0,0,0-.16-.51L13,44.17a4.6,4.6,0,0,1-.67-2.4Z"/></svg>