<svg id="Calque_1" data-name="Calque 1" xmlns="http://www.w3.org/2000/svg" viewBox="0 0 60 60"><defs><style>.cls-1{fill:#091a90;}</style></defs><title>healthcare-bluedark</title><g id="healthcare-covid19-coronavirus-hand-hearth"><path class="cls-1" d="M35,15H32.5v-2.5a.83.83,0,0,0-.83-.83H28.33a.83.83,0,0,0-.83.83V15H25a.85.85,0,0,0-.84.84v3.33a.85.85,0,0,0,.84.84h2.5v2.5a.83.83,0,0,0,.83.83h3.34a.83.83,0,0,0,.83-.83v-2.5H35a.85.85,0,0,0,.84-.84V15.88A.85.85,0,0,0,35,15Zm-.83,3.34h-2.5a.84.84,0,0,0-.84.83v2.5H29.17v-2.5a.84.84,0,0,0-.84-.83h-2.5V16.71h2.5a.84.84,0,0,0,.84-.83v-2.5h1.66v2.5a.84.84,0,0,0,.84.83h2.5Z"/><path class="cls-1" d="M53.12,19.51a3.15,3.15,0,0,0,0-.44,3.33,3.33,0,0,0-6.57-.78L42.91,28.84l-.16.08-7.37,4.32a7.49,7.49,0,0,0-3.71,6.47v7.85a.84.84,0,0,0-.84.83v6.68a.84.84,0,0,0,.84.83H43.34a.83.83,0,0,0,.83-.83V48.39a.83.83,0,0,0-.83-.83V45.73a2.54,2.54,0,0,1,.83-1.87l5.64-5a4.1,4.1,0,0,0,1.27-2L54.7,23.27a3.56,3.56,0,0,0,.11-.86A3.34,3.34,0,0,0,53.12,19.51Zm-4.95-.73a1.75,1.75,0,0,1,2-1.34,1.68,1.68,0,0,1,1.33,1.63v0a3.41,3.41,0,0,0-3.24,2.55l-2.33,7.18a3.35,3.35,0,0,0-1.12-.32ZM42.51,54.23h-10v-5h10ZM53.09,22.84,49.46,36.38a2.51,2.51,0,0,1-.75,1.22l-5.64,5a4.21,4.21,0,0,0-1.4,3.12v1.83H33.34V39.71a5.86,5.86,0,0,1,2.88-5l7.36-4.31a1.67,1.67,0,0,1,2.28.6h0A1.75,1.75,0,0,1,46,32.24a1.6,1.6,0,0,1-.78,1L40.47,36a.84.84,0,0,0,.84,1.45l4.77-2.76a3.25,3.25,0,0,0,1.56-2,3.34,3.34,0,0,0-.33-2.53l-.05-.07,2.58-7.95a1.76,1.76,0,0,1,2-1.33,1.68,1.68,0,0,1,1.33,1.63A1.59,1.59,0,0,1,53.09,22.84Z"/><path class="cls-1" d="M28.33,47.56V39.71a7.49,7.49,0,0,0-3.71-6.47l-7.37-4.33-.16-.07-3.64-10.5a3.42,3.42,0,0,0-3.94-2.53,3.37,3.37,0,0,0-2.66,3.26,3.15,3.15,0,0,0,0,.44,3.34,3.34,0,0,0-1.69,2.9,3.55,3.55,0,0,0,.1.86L8.92,36.8a4.13,4.13,0,0,0,1.27,2.05l5.63,5a2.5,2.5,0,0,1,.84,1.87v1.83a.83.83,0,0,0-.83.83v6.68a.83.83,0,0,0,.83.83H28.33a.84.84,0,0,0,.84-.83V48.39A.84.84,0,0,0,28.33,47.56ZM8.52,19.07a1.68,1.68,0,0,1,1.32-1.63,1.82,1.82,0,0,1,2,1.4l3.35,9.66a3.35,3.35,0,0,0-1.12.32l-2.31-7.14a3.45,3.45,0,0,0-3.26-2.59Zm8.41,23.54-5.64-5a2.43,2.43,0,0,1-.75-1.23L6.9,22.84a2.1,2.1,0,0,1-.05-.43,1.67,1.67,0,0,1,1.32-1.63,1.79,1.79,0,0,1,2,1.38l2.56,7.9-.05.07a3.34,3.34,0,0,0-.33,2.53,3.25,3.25,0,0,0,1.56,2l4.77,2.76A.84.84,0,0,0,19.53,36l-4.78-2.76a1.6,1.6,0,0,1-.78-1A1.75,1.75,0,0,1,14.13,31a1.67,1.67,0,0,1,2.28-.62h0l7.37,4.32a5.86,5.86,0,0,1,2.88,5v7.85H18.33V45.73A4.25,4.25,0,0,0,16.93,42.61ZM27.5,54.23h-10v-5h10Z"/><path class="cls-1" d="M41.8,8.48A8.35,8.35,0,0,0,30,8.47h0a8.34,8.34,0,0,0-11.78,0h0a8.35,8.35,0,0,0,0,11.79l11.2,11.2a.83.83,0,0,0,1.18,0L41.8,20.27A8.35,8.35,0,0,0,41.8,8.48ZM30,29.71,19.38,19.09A6.67,6.67,0,0,1,24.11,7.71a6.57,6.57,0,0,1,4.71,2l.59.59a.83.83,0,0,0,1.18,0l.59-.59a6.68,6.68,0,0,1,9.43,0h0a6.68,6.68,0,0,1,0,9.43Z"/></g></svg>