<svg id="Calque_1" data-name="Calque 1" xmlns="http://www.w3.org/2000/svg" viewBox="0 0 60 60"><defs><style>.cls-1{fill:#091a90;}</style></defs><title>highlight-titles</title><path class="cls-1" d="M17.93,24.1h-.05c-.24,1-.5,1.93-.81,2.91L15.5,31.66h4.83L18.76,27C18.4,26,18.17,25,17.93,24.1Z"/><path class="cls-1" d="M32.3,28.2a3.34,3.34,0,0,0-3.19,2.57,4,4,0,0,0-.12.86V33.7a4.64,4.64,0,0,0,.09.77,3.24,3.24,0,0,0,3.15,2.45c2.19,0,3.5-1.79,3.5-4.43C35.73,30.18,34.54,28.2,32.3,28.2Z"/><path class="cls-1" d="M2.76,11.5v37H57.24v-37ZM22.48,38.33l-1.72-5H15.07l-1.67,5H11.26l5.45-16.06h2.5l5.48,16.06Zm10.18.26a4.11,4.11,0,0,1-3.86-2.17h-.07l-.1,1.91H26.82c.05-.79.1-2,.1-3V21.41H29v7.24H29A4.29,4.29,0,0,1,33,26.53c2.86,0,4.88,2.39,4.85,5.89C37.82,36.54,35.23,38.59,32.66,38.59ZM45.77,36.9a6,6,0,0,0,2.57-.57l.36,1.57a7.89,7.89,0,0,1-3.32.66c-3.47,0-5.74-2.35-5.74-5.88a5.86,5.86,0,0,1,6.2-6.12,7.07,7.07,0,0,1,2.9.59l-.47,1.62a5,5,0,0,0-2.43-.54c-2.65,0-4.08,1.95-4.08,4.35C41.76,35.25,43.48,36.9,45.77,36.9Z"/></svg>