<?xml version="1.0" encoding="utf-8"?>
<!-- Generator: Adobe Illustrator 24.0.0, SVG Export Plug-In . SVG Version: 6.00 Build 0)  -->
<svg version="1.1" id="Calque_1" xmlns="http://www.w3.org/2000/svg" xmlns:xlink="http://www.w3.org/1999/xlink" x="0px" y="0px"
	 viewBox="0 0 600 600" style="enable-background:new 0 0 600 600;" xml:space="preserve">
<style type="text/css">
	.st0{fill:#44BAEB;}
	.st1{fill:#00C12D;}
</style>
<path class="st0" d="M428.1,431.6L428.1,431.6c34.5-33.4,55.9-80.2,55.9-132c0-101.5-82.3-183.8-183.8-183.8
	s-183.8,82.3-183.8,183.8s82.3,183.8,183.8,183.8H456C456,483.4,428.1,459.4,428.1,431.6z"/>
<circle cx="328.7" cy="265" r="17.9"/>
<circle cx="231.7" cy="265" r="17.9"/>
<g>
	<path d="M283.9,358.9c-17,0-29.8-6.3-30.3-6.6c-2.8-1.4-4-4.9-2.5-7.7c1.4-2.8,4.9-4,7.7-2.5c0.2,0.1,11.1,5.4,25.2,5.4
		c14.3,0,24.6-5.3,24.7-5.4c2.8-1.5,6.3-0.4,7.7,2.4c1.5,2.8,0.4,6.3-2.4,7.7C313.4,352.6,301,358.9,283.9,358.9z"/>
</g>
<g>
	<path class="st1" d="M18.4,193.5c-2.5,0-4.5-2-4.5-4.5c0-23.6,4.6-46.5,13.8-68.1C36.4,100,49,81.3,65.1,65.2
		c16.1-16.1,34.8-28.7,55.6-37.5c21.6-9.1,44.5-13.8,68.1-13.8c2.5,0,4.5,2,4.5,4.5s-2,4.5-4.5,4.5c-91.5,0-165.9,74.4-165.9,165.9
		C22.9,191.5,20.9,193.5,18.4,193.5z"/>
	<path class="st1" d="M64.6,193.9c-2.5,0-4.5-2-4.5-4.5c0-34.5,13.4-66.9,37.8-91.3c24.4-24.4,56.8-37.8,91.3-37.8
		c2.5,0,4.5,2,4.5,4.5c0,2.5-2,4.5-4.5,4.5c-66.2,0-120.1,53.9-120.1,120.1C69.2,191.9,67.1,193.9,64.6,193.9z"/>
	<path class="st1" d="M111.5,193.8c-2.5,0-4.5-2-4.5-4.5c0-45.3,36.8-82.1,82.1-82.1c2.5,0,4.5,2,4.5,4.5c0,2.5-2,4.5-4.5,4.5
		c-40.3,0-73,32.8-73,73C116,191.7,114,193.8,111.5,193.8z"/>
</g>
</svg>
