<?xml version="1.0" encoding="utf-8"?>
<!-- Generator: Adobe Illustrator 24.0.0, SVG Export Plug-In . SVG Version: 6.00 Build 0)  -->
<svg version="1.1" id="Calque_1" xmlns="http://www.w3.org/2000/svg" xmlns:xlink="http://www.w3.org/1999/xlink" x="0px" y="0px"
	 viewBox="0 0 600 600" style="enable-background:new 0 0 600 600;" xml:space="preserve">
<style type="text/css">
	.st0{fill:#44BAEB;}
	.st1{fill:none;stroke:#000000;stroke-width:9;stroke-miterlimit:10;}
</style>
<path class="st0" d="M428.1,431.6L428.1,431.6c34.5-33.4,55.9-80.2,55.9-132c0-101.5-82.3-183.8-183.8-183.8
	s-183.8,82.3-183.8,183.8s82.3,183.8,183.8,183.8H456C456,483.4,428.1,459.4,428.1,431.6z"/>
<g>
	<path class="st1" d="M199,269c0,0,13.8,13,34.9,13s31.7-13,31.7-13"/>
	<path class="st1" d="M310.3,269c0,0,13.8,13,34.9,13s31.7-13,31.7-13"/>
</g>
<g>
	<path d="M461.9,152.6c-0.6,0-1-0.2-1.4-0.6c-0.3-0.4-0.5-0.8-0.6-1.3c0-0.5,0.1-0.9,0.4-1.3l18.4-22.8h-16.5
		c-0.6,0-1.1-0.2-1.4-0.5c-0.3-0.3-0.5-0.7-0.4-1.2c0-0.5,0.2-1,0.5-1.3c0.4-0.3,0.8-0.5,1.4-0.5h19.5c0.6,0,1,0.2,1.4,0.5
		c0.4,0.4,0.6,0.8,0.6,1.3c0,0.5-0.1,0.9-0.4,1.3l-18.5,22.9h16.9c0.6,0,1,0.2,1.4,0.5c0.4,0.3,0.5,0.7,0.5,1.2c0,0.6-0.2,1-0.5,1.3
		s-0.8,0.5-1.4,0.5H461.9z"/>
</g>
<g>
	<path d="M509.8,126.7c-0.8,0-1.4-0.3-1.9-0.8c-0.5-0.5-0.7-1.1-0.8-1.8c-0.1-0.7,0.1-1.2,0.5-1.8l24.9-30.7h-22.3
		c-0.8,0-1.5-0.2-1.9-0.6c-0.4-0.4-0.6-1-0.6-1.6c0-0.7,0.2-1.3,0.7-1.8c0.5-0.5,1.1-0.7,1.9-0.7h26.2c0.8,0,1.4,0.2,1.9,0.7
		c0.5,0.5,0.7,1,0.8,1.7c0.1,0.7-0.1,1.2-0.6,1.8l-25,30.8h22.8c0.8,0,1.4,0.2,1.9,0.7c0.5,0.5,0.7,1,0.7,1.6c0,0.7-0.2,1.3-0.7,1.8
		c-0.5,0.4-1.1,0.6-1.9,0.6H509.8z"/>
</g>
<g>
	<path d="M439.2,95.7c-1.2,0-2.1-0.4-2.8-1.2c-0.7-0.8-1.1-1.7-1.2-2.7c-0.1-1,0.2-1.9,0.8-2.7l38-47h-34c-1.3,0-2.3-0.3-2.9-1
		c-0.7-0.6-0.9-1.5-0.9-2.4c-0.1-1.1,0.3-2,1.1-2.7c0.8-0.7,1.7-1,2.9-1h40.1c1.2,0,2.1,0.4,2.9,1.1c0.7,0.7,1.1,1.6,1.2,2.6
		c0.1,1-0.2,1.9-0.9,2.7l-38.2,47.2h34.9c1.2,0,2.1,0.4,2.9,1c0.7,0.7,1.1,1.5,1.1,2.4c0,1.1-0.4,2-1.1,2.7c-0.7,0.6-1.7,1-2.9,1
		H439.2z"/>
</g>
</svg>
