<?xml version="1.0" encoding="utf-8"?>
<!-- Generator: Adobe Illustrator 24.0.0, SVG Export Plug-In . SVG Version: 6.00 Build 0)  -->
<svg version="1.1" id="Calque_1" xmlns="http://www.w3.org/2000/svg" xmlns:xlink="http://www.w3.org/1999/xlink" x="0px" y="0px"
	 viewBox="0 0 600 600" style="enable-background:new 0 0 600 600;" xml:space="preserve">
<style type="text/css">
	.st0{fill:#44BAEB;}
	.st1{fill:#FFFFFF;}
	.st2{fill:#00C12D;}
</style>
<path class="st0" d="M428.1,431.6L428.1,431.6c34.5-33.4,55.9-80.2,55.9-132c0-101.5-82.3-183.8-183.8-183.8
	s-183.8,82.3-183.8,183.8s82.3,183.8,183.8,183.8H456C456,483.4,428.1,459.4,428.1,431.6z"/>
<circle cx="348.7" cy="265" r="17.9"/>
<circle cx="251.7" cy="265" r="17.9"/>
<g>
	<path d="M303.9,358.9c-17,0-29.8-6.3-30.3-6.6c-2.8-1.4-4-4.9-2.5-7.7c1.4-2.8,4.9-4,7.7-2.5c0.2,0.1,11.1,5.4,25.2,5.4
		c14.3,0,24.6-5.3,24.7-5.4c2.8-1.5,6.3-0.4,7.7,2.4c1.5,2.8,0.4,6.3-2.4,7.7C333.4,352.6,321,358.9,303.9,358.9z"/>
</g>
<g>
	<path class="st1" d="M558.2,48.6l-1.3-0.2l-0.3-1.2C552.3,31.1,537.8,20,521.2,20c-7.6,0-14.8,2.3-21,6.6l-1.2,0.8l-1.2-0.8
		c-6.2-4.3-13.5-6.6-21-6.6c-16.6,0-31.2,11.2-35.5,27.3l-0.3,1.2l-1.2,0.3c-16.6,3.7-28.6,18.8-28.6,35.8
		c0,17.1,12.2,32.2,28.9,35.8l1.2,0.3l0.3,1.2c4.6,15.5,19,26.3,35.2,26.3c7.6,0,14.8-2.3,21-6.6l1.2-0.8l1.2,0.8
		c6.2,4.3,13.5,6.6,21,6.6c16,0,30.5-10.7,35.1-26.1l0.4-1.2l1.2-0.2c17.3-3.2,29.9-18.4,29.9-36C587.9,67,575.4,51.9,558.2,48.6z"
		/>
	<circle class="st1" cx="383.1" cy="193.4" r="12.4"/>
	<circle class="st1" cx="419.5" cy="157.4" r="21.7"/>
	<path d="M560.3,44.8c-5.2-17.1-21.1-28.9-39-28.9c-7.9,0-15.6,2.3-22.2,6.6c-6.6-4.3-14.3-6.6-22.2-6.6c-18.1,0-34,11.9-39.1,29.2
		c-17.8,4.6-30.6,21-30.6,39.5c0,18.7,13,35.1,31,39.6c5.5,16.6,21.2,28.1,38.8,28.1c7.9,0,15.6-2.3,22.2-6.6
		c6.6,4.3,14.3,6.6,22.2,6.6c17.4,0,33.2-11.4,38.7-27.8c18.7-4.1,32.1-20.6,32.1-39.9C592,65.5,578.7,49,560.3,44.8z M557.9,120.6
		l-1.2,0.2l-0.4,1.2c-4.6,15.3-19.1,26.1-35.1,26.1c-7.6,0-14.8-2.3-21-6.6l-1.2-0.8l-1.2,0.8c-6.2,4.3-13.5,6.6-21,6.6
		c-16.1,0-30.6-10.8-35.2-26.3l-0.3-1.2l-1.2-0.3c-16.7-3.6-28.9-18.7-28.9-35.8c0-17,12-32,28.6-35.8l1.2-0.3l0.3-1.2
		c4.2-16.1,18.8-27.3,35.5-27.3c7.6,0,14.8,2.3,21,6.6l1.2,0.8l1.2-0.8c6.2-4.3,13.5-6.6,21-6.6c16.5,0,31.1,11.1,35.4,27.1l0.3,1.2
		l1.3,0.2c17.2,3.3,29.6,18.5,29.6,36C587.9,102.2,575.3,117.4,557.9,120.6z"/>
	<path d="M419.5,131.6c-14.2,0-25.8,11.6-25.8,25.8s11.6,25.8,25.8,25.8s25.8-11.6,25.8-25.8S433.7,131.6,419.5,131.6z M419.5,179.1
		c-12,0-21.7-9.7-21.7-21.7c0-12,9.7-21.7,21.7-21.7s21.7,9.7,21.7,21.7C441.2,169.3,431.4,179.1,419.5,179.1z"/>
	<path d="M383.1,176.8c-9.1,0-16.5,7.4-16.5,16.5c0,9.1,7.4,16.5,16.5,16.5c9.1,0,16.5-7.4,16.5-16.5
		C399.7,184.2,392.2,176.8,383.1,176.8z M383.1,205.8c-6.8,0-12.4-5.6-12.4-12.4c0-6.8,5.6-12.4,12.4-12.4c6.8,0,12.4,5.6,12.4,12.4
		C395.5,200.2,390,205.8,383.1,205.8z"/>
</g>
<circle class="st2" cx="462" cy="84" r="8"/>
<circle class="st2" cx="499.3" cy="84" r="8"/>
<circle class="st2" cx="536.7" cy="84" r="8"/>
</svg>
