<svg id="Calque_1" data-name="Calque 1" xmlns="http://www.w3.org/2000/svg" viewBox="0 0 60 60"><defs><style>.cls-1{fill:#1b92ea;}.cls-2{fill:#854cab;}</style></defs><title>meeting</title><path class="cls-1" d="M47,33.5H13.41a1.29,1.29,0,0,1-1.28-1.28V30.8a1.28,1.28,0,0,1,1.28-1.27H47a1.27,1.27,0,0,1,1.28,1.27v1.42A1.28,1.28,0,0,1,47,33.5ZM13.41,30.8v1.42H47V30.8Z"/><rect class="cls-1" x="21.81" y="49.45" width="16.83" height="1.3"/><rect class="cls-1" x="21.71" y="40.84" width="17.04" height="0.9" transform="translate(71.52 11.06) rotate(90)"/><path class="cls-2" d="M50.56,42.39a5.19,5.19,0,0,0,1.85-1.06A6.3,6.3,0,0,0,54,36.74V23a1.06,1.06,0,1,0-2.12,0V36.84A4.32,4.32,0,0,1,51,39.78c-.91.85-2.92,1-3.62,1H39.71a1.07,1.07,0,1,0,0,2.13h3.21v7a1.07,1.07,0,1,0,2.13,0v-7h2.39c.21,0,.56,0,1-.05L52,50.36A1.09,1.09,0,0,0,53,51a1.08,1.08,0,0,0,1-1.52Z"/><path class="cls-2" d="M9.44,42.39a5.19,5.19,0,0,1-1.85-1.06A6.3,6.3,0,0,1,6,36.74V23a1.06,1.06,0,1,1,2.12,0V36.84a4.32,4.32,0,0,0,.93,2.94c.91.85,2.92,1,3.62,1h7.62a1.07,1.07,0,1,1,0,2.13H17.08v7a1.07,1.07,0,1,1-2.13,0v-7H12.56c-.21,0-.56,0-1-.05L8,50.36a1.09,1.09,0,0,1-1,.61,1.08,1.08,0,0,1-1-1.52Z"/><path class="cls-1" d="M45.62,23.76H14.76V9H45.62Zm-30-.85H44.77v-13H15.61Z"/><polygon class="cls-1" points="36.59 11.58 36.59 12.64 37.91 12.64 31.99 18.1 27.89 13.69 23.68 17.55 21.77 15.41 17.61 20.06 18.4 20.77 21.77 17.01 23.6 19.06 27.83 15.19 31.94 19.6 38.76 13.31 38.76 14.83 39.82 14.83 39.82 11.58 36.59 11.58"/><path class="cls-1" d="M30,27.7a1.47,1.47,0,1,1,1.47-1.47A1.47,1.47,0,0,1,30,27.7Zm0-2.28a.82.82,0,0,0-.81.81.81.81,0,0,0,1.62,0A.82.82,0,0,0,30,25.42Z"/><rect class="cls-1" x="29.63" y="23.32" width="0.75" height="1.63"/></svg>