<?xml version="1.0" encoding="utf-8"?>
<!-- Generator: Adobe Illustrator 24.0.0, SVG Export Plug-In . SVG Version: 6.00 Build 0)  -->
<svg version="1.1" id="ILLUSTRATION_1_" xmlns="http://www.w3.org/2000/svg" xmlns:xlink="http://www.w3.org/1999/xlink" x="0px"
	 y="0px" viewBox="0 0 1505.7 958.7" style="enable-background:new 0 0 1505.7 958.7;" xml:space="preserve">
<style type="text/css">
	.st0{fill:none;stroke:#EDEDED;stroke-width:5.000000e-02;stroke-miterlimit:10;}
	.st1{fill:#F9F9F9;}
	.st2{fill:#EDEDED;}
	.st3{fill:#E6E6E6;}
	.st4{fill:url(#ciel-G_1_);}
	.st5{fill:url(#ciel-D_1_);}
	.st6{clip-path:url(#SVGID_2_);}
	.st7{fill:#E0E3EB;}
	.st8{fill:#EDF1F9;}
	.st9{fill:#FAFDFF;}
	.st10{fill:#C7C9D1;}
	.st11{opacity:0.1;enable-background:new    ;}
	.st12{clip-path:url(#SVGID_4_);}
	.st13{fill:#7C7C7C;}
	.st14{fill:#6D6D6D;}
	.st15{fill:#2B303F;}
	.st16{fill:#522E02;}
	.st17{fill:#FFCEA9;}
	.st18{fill:#F4F4F4;}
	.st19{opacity:0.3;fill:url(#SVGID_5_);enable-background:new    ;}
	.st20{opacity:0.3;fill:url(#SVGID_6_);enable-background:new    ;}
	.st21{fill:#150B33;}
	.st22{fill:#250E70;}
	.st23{fill:#E63225;}
	.st24{fill:#D3C4A9;}
	.st25{fill:#EFE3CA;}
	.st26{fill:#D6D8E5;}
	.st27{fill:#D6D6D6;}
	.st28{fill:#303030;}
	.st29{fill:#BFBFBF;}
	.st30{fill:#E5E5E5;}
	.st31{opacity:0.4;fill:#D6D8E5;enable-background:new    ;}
	.st32{fill:#E4E6EF;}
	.st33{fill:#28221C;}
	.st34{fill:#99B524;}
	.st35{fill:#A6CE28;}
	.st36{fill:#B0B4C1;}
	.st37{fill:#BFC2D1;}
	.st38{fill:#B1B6C4;}
	.st39{fill:#C4C7D6;}
	.st40{fill:#0E061B;}
	.st41{fill:#150D33;}
	.st42{clip-path:url(#SVGID_8_);}
	.st43{fill:#3D3D3D;}
	.st44{fill:#DCEEFF;}
	.st45{fill:#DBDBDB;}
	.st46{fill:#FFFFFF;}
	.st47{fill:#9ACC12;}
	.st48{fill:#E8BC05;}
	.st49{fill:#EF6848;}
	.st50{fill:#BE4AED;}
	.st51{fill:#543526;}
	.st52{fill:#1B96EA;}
	.st53{fill:#FF5050;}
	.st54{fill:#32CEC3;}
	.st55{fill:none;stroke:#D6D8E5;stroke-width:0.3231;stroke-miterlimit:10;}
	.st56{display:none;fill:#FFCEA9;}
	.st57{fill:#291300;}
	.st58{fill:#9FA0A2;}
	.st59{fill:#A1A2A4;}
	.st60{fill:#F4F6F9;}
	.st61{fill:#595D69;}
	.st62{fill:#616774;}
	.st63{fill:#D5D7E2;}
	.st64{fill:none;stroke:#D6D8E5;stroke-width:1.8345;stroke-miterlimit:10;}
	.st65{opacity:0.43;fill:#FFFFFF;enable-background:new    ;}
	.st66{fill:#323846;}
	.st67{fill:#252935;}
	.st68{fill:#BDBEC1;}
	.st69{fill:#D2D4D7;}
	.st70{fill:#1C0513;}
	.st71{fill:#070000;}
	.st72{fill:#3A0B26;}
	.st73{display:none;fill:#8D4F14;}
	.st74{fill:#8D4F14;}
	.st75{fill:#2786A8;}
	.st76{fill:#3EB7EA;}
	.st77{fill:#0D0C23;}
	.st78{fill:#AAADBC;}
	.st79{fill:#F9EFC5;}
	.st80{fill:#D8AA44;}
	.st81{opacity:0.69;fill:#F9EFC5;enable-background:new    ;}
	.st82{opacity:0.2;fill:#0D0C23;enable-background:new    ;}
	.st83{fill:#FFDF57;}
	.st84{opacity:0.69;fill:#FFDF57;enable-background:new    ;}
	.st85{opacity:0.6;fill:url(#SVGID_9_);enable-background:new    ;}
	.st86{opacity:0.4;fill:url(#VIDEOPROJ-ON_3_);enable-background:new    ;}
</style>

<g id="MUR-SOL">
	<path id="sol" class="st1" d="M501.2,748.1c-95.9-26.8-119.1-98-119.1-98l365.5-222.7l366.5,222.7c0,0-74.7,29.7-111.8,114.1
		C980.8,813,838,824.1,759.7,791C662.6,750,591.7,773.5,501.2,748.1z"/>
	<polygon id="mur-G" class="st2" points="748.1,116.8 748.1,438.9 382.1,650.2 382.1,328.1 "/>
	<polygon id="mur-D" class="st3" points="1114.1,328.1 1114.1,650.2 748.1,438.9 748.1,116.8 "/>
</g>
<g id="PAYSAGE">
	
	<linearGradient id="ciel-G_1_" gradientUnits="userSpaceOnUse" x1="642.4141" y1="954.316" x2="574.1729" y2="1098.0862" gradientTransform="matrix(1 0 0 -1 0 1320)">
		<stop  offset="1.865672e-03" style="stop-color:#E4F2FD"/>
		<stop  offset="1" style="stop-color:#FEFFFF"/>
	</linearGradient>
	<polygon id="ciel-G" class="st4" points="557,261.8 701.5,178.9 701.5,414.1 557,497 "/>
	<linearGradient id="ciel-D_1_" gradientUnits="userSpaceOnUse" x1="487.9673" y1="881.0072" x2="419.7262" y2="1024.7773" gradientTransform="matrix(1 0 0 -1 0 1320)">
		<stop  offset="1.865672e-03" style="stop-color:#E4F2FD"/>
		<stop  offset="1" style="stop-color:#FEFFFF"/>
	</linearGradient>
	<polygon id="ciel-D" class="st5" points="408.1,346.8 552.7,264 552.7,499.2 408.1,582.1 "/>
	<g id="PAYSAGE_1_">
		<g>
			<g>
				<g>
					<g>
						<defs>
							<polygon id="SVGID_1_" points="410.2,347.9 410.4,577.4 550.6,497.7 550.6,267.9 "/>
						</defs>
						<clipPath id="SVGID_2_">
							<use xlink:href="#SVGID_1_"  style="overflow:visible;"/>
						</clipPath>
						<g class="st6">
							<g>
								<polygon class="st7" points="680.1,485.2 636.4,460 636.4,294.4 680.1,319.6 "/>
								<polygon class="st8" points="680.1,319.6 636.4,294.4 680.1,269.2 723.8,294.4 "/>
								<polygon class="st9" points="672.3,341.3 644.3,325.2 644.3,311.1 672.3,327.2 "/>
								<polygon class="st10" points="723.8,460 680.1,485.2 680.1,319.6 723.8,294.4 "/>
								<polygon class="st9" points="698.5,335.3 688,341.3 688,327.2 698.5,321.2 "/>
								<polygon class="st9" points="716,325.2 705.5,331.3 705.5,317.1 716,311.1 "/>
								<polygon class="st9" points="698.5,356.5 688,362.6 688,348.4 698.5,342.4 "/>
								<polygon class="st9" points="716,346.4 705.5,352.5 705.5,338.3 716,332.3 "/>
								<polygon class="st9" points="698.5,377.7 688,383.8 688,369.6 698.5,363.6 "/>
								<polygon class="st9" points="716,367.6 705.5,373.7 705.5,359.5 716,353.5 "/>
								<polygon class="st9" points="698.5,399.9 688,406 688,391.8 698.5,385.8 "/>
								<polygon class="st9" points="716,389.8 705.5,395.9 705.5,381.7 716,375.7 "/>
								<polygon class="st9" points="698.5,423.6 688,429.7 688,415.5 698.5,409.5 "/>
								<polygon class="st9" points="716,413.5 705.5,419.6 705.5,405.5 716,399.4 "/>
								<polygon class="st9" points="698.5,447.9 688,453.9 688,439.8 698.5,433.7 "/>
								<polygon class="st9" points="716,437.8 705.5,443.8 705.5,429.7 716,423.6 "/>
								<polygon class="st9" points="672.3,362.5 644.3,346.4 644.3,332.3 672.3,348.4 "/>
								<polygon class="st9" points="672.3,383.7 644.3,367.6 644.3,353.5 672.3,369.6 "/>
								<polygon class="st9" points="672.3,406 644.3,389.8 644.3,375.7 672.3,391.8 "/>
								<polygon class="st9" points="672.3,429.7 644.3,413.5 644.3,399.4 672.3,415.5 "/>
								<polygon class="st9" points="672.3,453.9 644.3,437.8 644.3,423.6 672.3,439.8 "/>
								<polygon class="st7" points="680.1,308.5 654.9,294 654.9,289.5 680.1,304 "/>
								<polygon class="st10" points="680.1,308.5 705.4,294 705.4,289.5 680.1,304 "/>
								<ellipse class="st11" cx="680.1" cy="288.1" rx="13.9" ry="8"/>
							</g>
							<g>
								<polygon class="st7" points="621.7,488.6 585.4,467.6 585.4,380.3 621.7,401.3 "/>
								<polygon class="st8" points="621.7,401.3 585.3,380.3 621.7,359.3 658.1,380.3 "/>
								<polygon class="st9" points="615.2,419.4 591.9,405.9 591.9,394.2 615.2,407.6 "/>
								<polygon class="st10" points="658.1,467.6 621.7,488.6 621.7,401.3 658.1,380.3 "/>
								<polygon class="st9" points="637,414.3 628.2,419.4 628.2,407.6 637,402.6 "/>
								<polygon class="st9" points="651.5,405.9 642.8,411 642.8,399.2 651.5,394.2 "/>
								<polygon class="st9" points="637,432 628.2,437 628.2,425.2 637,420.2 "/>
								<polygon class="st9" points="651.5,423.6 642.8,428.6 642.8,416.8 651.5,411.8 "/>
								<polygon class="st9" points="637,449.6 628.2,454.6 628.2,442.9 637,437.8 "/>
								<polygon class="st9" points="651.5,441.2 642.8,446.2 642.8,434.5 651.5,429.4 "/>
								<polygon class="st9" points="637,468 628.2,473.1 628.2,461.3 637,456.3 "/>
								<polygon class="st9" points="651.5,459.6 642.8,464.7 642.8,452.9 651.5,447.9 "/>
								<polygon class="st9" points="615.2,437 591.9,423.5 591.9,411.8 615.2,425.2 "/>
								<polygon class="st9" points="615.2,454.6 591.9,441.2 591.9,429.4 615.2,442.9 "/>
								<polygon class="st9" points="615.2,473.1 591.9,459.6 591.9,447.9 615.2,461.3 "/>
								<polygon class="st7" points="621.7,392.1 600.7,380 600.7,376.2 621.7,388.3 "/>
								<polygon class="st10" points="621.7,392.1 642.7,380 642.7,376.2 621.7,388.3 "/>
							</g>
							<g>
								<polygon class="st7" points="575.6,565.4 531.9,540.2 531.9,435.2 575.6,460.4 "/>
								<polygon class="st8" points="575.6,460.4 531.9,435.2 575.6,409.9 619.3,435.2 "/>
								<polygon class="st9" points="567.7,482.1 539.7,466 539.7,451.8 567.7,468 "/>
								<polygon class="st10" points="619.3,540.2 575.6,565.4 575.6,460.4 619.3,435.2 "/>
								<polygon class="st9" points="593.9,476.1 583.4,482.1 583.4,468 593.9,461.9 "/>
								<polygon class="st9" points="611.4,466 600.9,472 600.9,457.9 611.4,451.8 "/>
								<polygon class="st9" points="593.9,497.3 583.4,503.3 583.4,489.2 593.9,483.1 "/>
								<polygon class="st9" points="611.4,487.2 600.9,493.2 600.9,479.1 611.4,473 "/>
								<polygon class="st9" points="593.9,518.5 583.4,524.5 583.4,510.4 593.9,504.3 "/>
								<polygon class="st9" points="611.4,508.4 600.9,514.4 600.9,500.3 611.4,494.2 "/>
								<polygon class="st9" points="593.9,540.7 583.4,546.7 583.4,532.6 593.9,526.5 "/>
								<polygon class="st9" points="611.4,530.6 600.9,536.6 600.9,522.5 611.4,516.4 "/>
								<polygon class="st9" points="567.7,503.3 539.7,487.2 539.7,473 567.7,489.2 "/>
								<polygon class="st9" points="567.7,524.5 539.7,508.4 539.7,494.2 567.7,510.4 "/>
								<polygon class="st9" points="567.7,546.7 539.7,530.6 539.7,516.4 567.7,532.6 "/>
								<polygon class="st7" points="575.6,449.3 550.3,434.7 550.3,430.2 575.6,444.8 "/>
								<polygon class="st10" points="575.6,449.3 600.8,434.7 600.8,430.2 575.6,444.8 "/>
							</g>
							<g>
								<polygon class="st7" points="505.3,587.6 461.6,562.3 461.6,396.7 505.3,422 "/>
								<polygon class="st8" points="505.3,422 461.6,396.7 505.3,371.5 549,396.7 "/>
								<polygon class="st9" points="497.4,443.7 469.5,427.5 469.5,413.4 497.4,429.5 "/>
								<polygon class="st10" points="549,562.3 505.3,587.6 505.3,422 549,396.7 "/>
								<polygon class="st9" points="523.7,437.6 513.2,443.7 513.2,429.6 523.7,423.5 "/>
								<polygon class="st9" points="541.1,427.5 530.7,433.6 530.7,419.5 541.1,413.4 "/>
								<polygon class="st9" points="523.7,458.8 513.2,464.9 513.2,450.8 523.7,444.7 "/>
								<polygon class="st9" points="541.1,448.7 530.7,454.8 530.7,440.7 541.1,434.6 "/>
								<polygon class="st9" points="523.7,480 513.2,486.1 513.2,472 523.7,465.9 "/>
								<polygon class="st9" points="541.1,469.9 530.7,476 530.7,461.9 541.1,455.8 "/>
								<polygon class="st9" points="523.7,502.2 513.2,508.3 513.2,494.2 523.7,488.1 "/>
								<polygon class="st9" points="541.1,492.2 530.7,498.2 530.7,484.1 541.1,478 "/>
								<polygon class="st9" points="523.7,526 513.2,532 513.2,517.9 523.7,511.8 "/>
								<polygon class="st9" points="541.1,515.9 530.7,521.9 530.7,507.8 541.1,501.7 "/>
								<polygon class="st9" points="523.7,550.2 513.2,556.3 513.2,542.1 523.7,536.1 "/>
								<polygon class="st9" points="541.1,540.1 530.7,546.2 530.7,532 541.1,526 "/>
								<polygon class="st9" points="497.4,464.9 469.5,448.7 469.5,434.6 497.4,450.7 "/>
								<polygon class="st9" points="497.4,486.1 469.5,469.9 469.5,455.8 497.4,472 "/>
								<polygon class="st9" points="497.4,508.3 469.5,492.1 469.5,478 497.4,494.2 "/>
								<polygon class="st9" points="497.4,532 469.5,515.9 469.5,501.7 497.4,517.9 "/>
								<polygon class="st9" points="497.4,556.3 469.5,540.1 469.5,526 497.4,542.1 "/>
								<polygon class="st7" points="505.3,410.9 480.1,396.3 480.1,391.8 505.3,406.4 "/>
								<polygon class="st10" points="505.3,410.9 530.5,396.3 530.5,391.8 505.3,406.4 "/>
								<ellipse class="st11" cx="505.3" cy="390.4" rx="13.9" ry="8"/>
							</g>
							<g>
								<polygon class="st7" points="442.8,593.7 399.1,568.5 399.1,463.5 442.8,488.7 "/>
								<polygon class="st8" points="442.8,488.7 399.1,463.5 442.8,438.2 486.5,463.5 "/>
								<polygon class="st9" points="434.9,510.4 406.9,494.2 406.9,480.1 434.9,496.3 "/>
								<polygon class="st10" points="486.5,568.5 442.8,593.7 442.8,488.7 486.5,463.5 "/>
								<polygon class="st9" points="461.2,504.4 450.7,510.4 450.7,496.3 461.2,490.2 "/>
								<polygon class="st9" points="478.6,494.3 468.1,500.3 468.1,486.2 478.6,480.1 "/>
								<polygon class="st9" points="461.2,525.6 450.7,531.6 450.7,517.5 461.2,511.4 "/>
								<polygon class="st9" points="478.6,515.5 468.1,521.5 468.1,507.4 478.6,501.3 "/>
								<polygon class="st9" points="461.2,546.7 450.7,552.8 450.7,538.7 461.2,532.6 "/>
								<polygon class="st9" points="478.6,536.7 468.1,542.7 468.1,528.6 478.6,522.5 "/>
								<polygon class="st9" points="461.2,569 450.7,575 450.7,560.9 461.2,554.8 "/>
								<polygon class="st9" points="478.6,558.9 468.1,564.9 468.1,550.8 478.6,544.7 "/>
								<polygon class="st9" points="434.9,531.6 406.9,515.5 406.9,501.3 434.9,517.5 "/>
								<polygon class="st9" points="434.9,552.8 406.9,536.7 406.9,522.5 434.9,538.7 "/>
								<polygon class="st9" points="434.9,575 406.9,558.9 406.9,544.7 434.9,560.9 "/>
								<polygon class="st7" points="442.8,477.6 417.6,463 417.6,458.5 442.8,473.1 "/>
								<polygon class="st10" points="442.8,477.6 468,463 468,458.5 442.8,473.1 "/>
							</g>
						</g>
					</g>
				</g>
			</g>
		</g>
		<g>
			<g>
				<g>
					<g>
						<defs>
							<polygon id="SVGID_3_" points="559.2,263.2 559.4,492.7 699.6,413 699.6,183.2 "/>
						</defs>
						<clipPath id="SVGID_4_">
							<use xlink:href="#SVGID_3_"  style="overflow:visible;"/>
						</clipPath>
						<g class="st12">
							<g>
								<polygon class="st7" points="680.1,485.2 636.4,460 636.4,294.4 680.1,319.6 "/>
								<polygon class="st8" points="680.1,319.6 636.4,294.4 680.1,269.2 723.8,294.4 "/>
								<polygon class="st9" points="672.3,341.3 644.3,325.2 644.3,311.1 672.3,327.2 "/>
								<polygon class="st10" points="723.8,460 680.1,485.2 680.1,319.6 723.8,294.4 "/>
								<polygon class="st9" points="698.5,335.3 688,341.3 688,327.2 698.5,321.2 "/>
								<polygon class="st9" points="716,325.2 705.5,331.3 705.5,317.1 716,311.1 "/>
								<polygon class="st9" points="698.5,356.5 688,362.6 688,348.4 698.5,342.4 "/>
								<polygon class="st9" points="716,346.4 705.5,352.5 705.5,338.3 716,332.3 "/>
								<polygon class="st9" points="698.5,377.7 688,383.8 688,369.6 698.5,363.6 "/>
								<polygon class="st9" points="716,367.6 705.5,373.7 705.5,359.5 716,353.5 "/>
								<polygon class="st9" points="698.5,399.9 688,406 688,391.8 698.5,385.8 "/>
								<polygon class="st9" points="716,389.8 705.5,395.9 705.5,381.7 716,375.7 "/>
								<polygon class="st9" points="698.5,423.6 688,429.7 688,415.5 698.5,409.5 "/>
								<polygon class="st9" points="716,413.5 705.5,419.6 705.5,405.5 716,399.4 "/>
								<polygon class="st9" points="698.5,447.9 688,453.9 688,439.8 698.5,433.7 "/>
								<polygon class="st9" points="716,437.8 705.5,443.8 705.5,429.7 716,423.6 "/>
								<polygon class="st9" points="672.3,362.5 644.3,346.4 644.3,332.3 672.3,348.4 "/>
								<polygon class="st9" points="672.3,383.7 644.3,367.6 644.3,353.5 672.3,369.6 "/>
								<polygon class="st9" points="672.3,406 644.3,389.8 644.3,375.7 672.3,391.8 "/>
								<polygon class="st9" points="672.3,429.7 644.3,413.5 644.3,399.4 672.3,415.5 "/>
								<polygon class="st9" points="672.3,453.9 644.3,437.8 644.3,423.6 672.3,439.8 "/>
								<polygon class="st7" points="680.1,308.5 654.9,294 654.9,289.5 680.1,304 "/>
								<polygon class="st10" points="680.1,308.5 705.4,294 705.4,289.5 680.1,304 "/>
								<ellipse class="st11" cx="680.1" cy="288.1" rx="13.9" ry="8"/>
							</g>
							<g>
								<polygon class="st7" points="621.7,532.4 585.4,511.4 585.4,424.1 621.7,445.1 "/>
								<polygon class="st8" points="621.7,445.1 585.3,424.1 621.7,403.1 658.1,424.1 "/>
								<polygon class="st9" points="615.2,463.1 591.9,449.7 591.9,437.9 615.2,451.4 "/>
								<polygon class="st10" points="658.1,511.4 621.7,532.4 621.7,445.1 658.1,424.1 "/>
								<polygon class="st9" points="637,458.1 628.2,463.1 628.2,451.4 637,446.4 "/>
								<polygon class="st9" points="651.5,449.7 642.8,454.7 642.8,443 651.5,438 "/>
								<polygon class="st9" points="637,475.7 628.2,480.8 628.2,469 637,464 "/>
								<polygon class="st9" points="651.5,467.3 642.8,472.4 642.8,460.6 651.5,455.6 "/>
								<polygon class="st9" points="637,493.4 628.2,498.4 628.2,486.6 637,481.6 "/>
								<polygon class="st9" points="651.5,485 642.8,490 642.8,478.2 651.5,473.2 "/>
								<polygon class="st9" points="637,511.8 628.2,516.9 628.2,505.1 637,500.1 "/>
								<polygon class="st9" points="651.5,503.4 642.8,508.5 642.8,496.7 651.5,491.7 "/>
								<polygon class="st9" points="615.2,480.8 591.9,467.3 591.9,455.6 615.2,469 "/>
								<polygon class="st9" points="615.2,498.4 591.9,485 591.9,473.2 615.2,486.6 "/>
								<polygon class="st9" points="615.2,516.9 591.9,503.4 591.9,491.7 615.2,505.1 "/>
								<polygon class="st7" points="621.7,435.9 600.7,423.8 600.7,420 621.7,432.1 "/>
								<polygon class="st10" points="621.7,435.9 642.7,423.8 642.7,420 621.7,432.1 "/>
							</g>
							<g>
								<polygon class="st7" points="575.6,540.2 531.9,515 531.9,410 575.6,435.2 "/>
								<polygon class="st8" points="575.6,435.2 531.9,410 575.6,384.8 619.3,410 "/>
								<polygon class="st9" points="567.7,456.9 539.7,440.8 539.7,426.7 567.7,442.8 "/>
								<polygon class="st10" points="619.3,515 575.6,540.3 575.6,435.2 619.3,410 "/>
								<polygon class="st9" points="593.9,450.9 583.4,457 583.4,442.8 593.9,436.8 "/>
								<polygon class="st9" points="611.4,440.8 600.9,446.9 600.9,432.7 611.4,426.7 "/>
								<polygon class="st9" points="593.9,472.1 583.4,478.2 583.4,464 593.9,458 "/>
								<polygon class="st9" points="611.4,462 600.9,468.1 600.9,453.9 611.4,447.9 "/>
								<polygon class="st9" points="593.9,493.3 583.4,499.4 583.4,485.2 593.9,479.2 "/>
								<polygon class="st9" points="611.4,483.2 600.9,489.3 600.9,475.1 611.4,469.1 "/>
								<polygon class="st9" points="593.9,515.5 583.4,521.6 583.4,507.4 593.9,501.4 "/>
								<polygon class="st9" points="611.4,505.4 600.9,511.5 600.9,497.3 611.4,491.3 "/>
								<polygon class="st9" points="567.7,478.1 539.7,462 539.7,447.9 567.7,464 "/>
								<polygon class="st9" points="567.7,499.4 539.7,483.2 539.7,469.1 567.7,485.2 "/>
								<polygon class="st9" points="567.7,521.6 539.7,505.4 539.7,491.3 567.7,507.4 "/>
								<polygon class="st7" points="575.6,424.1 550.3,409.6 550.3,405.1 575.6,419.6 "/>
								<polygon class="st10" points="575.6,424.1 600.8,409.6 600.8,405.1 575.6,419.6 "/>
							</g>
							<g>
								<polygon class="st7" points="505.3,587.6 461.6,562.3 461.6,396.7 505.3,422 "/>
								<polygon class="st8" points="505.3,422 461.6,396.7 505.3,371.5 549,396.7 "/>
								<polygon class="st9" points="497.4,443.7 469.5,427.5 469.5,413.4 497.4,429.5 "/>
								<polygon class="st10" points="549,562.3 505.3,587.6 505.3,422 549,396.7 "/>
								<polygon class="st9" points="523.7,437.6 513.2,443.7 513.2,429.6 523.7,423.5 "/>
								<polygon class="st9" points="541.1,427.5 530.7,433.6 530.7,419.5 541.1,413.4 "/>
								<polygon class="st9" points="523.7,458.8 513.2,464.9 513.2,450.8 523.7,444.7 "/>
								<polygon class="st9" points="541.1,448.7 530.7,454.8 530.7,440.7 541.1,434.6 "/>
								<polygon class="st9" points="523.7,480 513.2,486.1 513.2,472 523.7,465.9 "/>
								<polygon class="st9" points="541.1,469.9 530.7,476 530.7,461.9 541.1,455.8 "/>
								<polygon class="st9" points="523.7,502.2 513.2,508.3 513.2,494.2 523.7,488.1 "/>
								<polygon class="st9" points="541.1,492.2 530.7,498.2 530.7,484.1 541.1,478 "/>
								<polygon class="st9" points="523.7,526 513.2,532 513.2,517.9 523.7,511.8 "/>
								<polygon class="st9" points="541.1,515.9 530.7,521.9 530.7,507.8 541.1,501.7 "/>
								<polygon class="st9" points="523.7,550.2 513.2,556.3 513.2,542.1 523.7,536.1 "/>
								<polygon class="st9" points="541.1,540.1 530.7,546.2 530.7,532 541.1,526 "/>
								<polygon class="st9" points="497.4,464.9 469.5,448.7 469.5,434.6 497.4,450.7 "/>
								<polygon class="st9" points="497.4,486.1 469.5,469.9 469.5,455.8 497.4,472 "/>
								<polygon class="st9" points="497.4,508.3 469.5,492.1 469.5,478 497.4,494.2 "/>
								<polygon class="st9" points="497.4,532 469.5,515.9 469.5,501.7 497.4,517.9 "/>
								<polygon class="st9" points="497.4,556.3 469.5,540.1 469.5,526 497.4,542.1 "/>
								<polygon class="st7" points="505.3,410.9 480.1,396.3 480.1,391.8 505.3,406.4 "/>
								<polygon class="st10" points="505.3,410.9 530.5,396.3 530.5,391.8 505.3,406.4 "/>
								<ellipse class="st11" cx="505.3" cy="390.4" rx="13.9" ry="8"/>
							</g>
							<g>
								<polygon class="st7" points="442.8,622.3 399.1,597.1 399.1,492.1 442.8,517.3 "/>
								<polygon class="st8" points="442.8,517.3 399.1,492.1 442.8,466.8 486.5,492.1 "/>
								<polygon class="st9" points="434.9,539 406.9,522.9 406.9,508.7 434.9,524.9 "/>
								<polygon class="st10" points="486.5,597.1 442.8,622.3 442.8,517.3 486.5,492.1 "/>
								<polygon class="st9" points="461.2,533 450.7,539 450.7,524.9 461.2,518.8 "/>
								<polygon class="st9" points="478.6,522.9 468.1,528.9 468.1,514.8 478.6,508.7 "/>
								<polygon class="st9" points="461.2,554.2 450.7,560.2 450.7,546.1 461.2,540 "/>
								<polygon class="st9" points="478.6,544.1 468.1,550.1 468.1,536 478.6,529.9 "/>
								<polygon class="st9" points="461.2,575.4 450.7,581.4 450.7,567.3 461.2,561.2 "/>
								<polygon class="st9" points="478.6,565.3 468.1,571.3 468.1,557.2 478.6,551.1 "/>
								<polygon class="st9" points="461.2,597.6 450.7,603.6 450.7,589.5 461.2,583.4 "/>
								<polygon class="st9" points="478.6,587.5 468.1,593.5 468.1,579.4 478.6,573.3 "/>
								<polygon class="st9" points="434.9,560.2 406.9,544.1 406.9,529.9 434.9,546.1 "/>
								<polygon class="st9" points="434.9,581.4 406.9,565.3 406.9,551.1 434.9,567.3 "/>
								<polygon class="st9" points="434.9,603.6 406.9,587.5 406.9,573.3 434.9,589.5 "/>
								<polygon class="st7" points="442.8,506.2 417.6,491.7 417.6,487.1 442.8,501.7 "/>
								<polygon class="st10" points="442.8,506.2 468,491.7 468,487.1 442.8,501.7 "/>
							</g>
						</g>
					</g>
				</g>
			</g>
		</g>
	</g>
</g>
<g id="VOLETS-ON">
	<g id="volets-D">
		<polygon class="st13" points="558.5,365.2 699.9,284.1 699.9,298.6 558.5,379.6 "/>
		<polygon class="st13" points="558.5,387.6 699.9,306.6 699.9,321 558.5,402 "/>
		<polygon class="st14" points="558.5,376.3 699.9,295.3 699.9,309.8 558.5,390.8 "/>
		<polygon class="st14" points="558.5,398.8 699.9,317.7 699.9,332.2 558.5,413.2 "/>
		<polygon class="st13" points="558.5,410 699.9,329 699.9,343.5 558.5,424.4 "/>
		<polygon class="st13" points="558.5,432.5 699.9,351.4 699.9,365.9 558.5,446.9 "/>
		<polygon class="st14" points="558.5,421.2 699.9,340.2 699.9,354.6 558.5,435.7 "/>
		<polygon class="st14" points="558.5,443.6 699.9,362.6 699.9,377.1 558.5,458.1 "/>
		<polygon class="st13" points="558.5,454.9 699.9,373.9 699.9,388.3 558.5,469.3 "/>
		<polygon class="st13" points="558.5,477.3 699.9,396.3 699.9,410.8 558.5,491.7 "/>
		<polygon class="st14" points="558.5,466.1 699.9,385 699.9,399.5 558.5,480.6 "/>
		<polygon class="st13" points="558.5,275.4 699.9,194.4 699.9,208.8 558.5,289.9 "/>
		<polygon class="st13" points="558.5,297.9 699.9,216.8 699.9,231.3 558.5,312.3 "/>
		<polygon class="st14" points="558.5,264.2 699.9,183.2 699.9,197.6 558.5,278.6 "/>
		<polygon class="st14" points="558.5,286.6 699.9,205.6 699.9,220 558.5,301.1 "/>
		<polygon class="st14" points="558.5,309 699.9,228.1 699.9,242.5 558.5,323.5 "/>
		<polygon class="st13" points="558.5,320.3 699.9,239.2 699.9,253.7 558.5,334.8 "/>
		<polygon class="st13" points="558.5,342.7 699.9,261.7 699.9,276.2 558.5,357.2 "/>
		<polygon class="st14" points="558.5,331.5 699.9,250.5 699.9,264.9 558.5,345.9 "/>
		<polygon class="st14" points="558.5,353.9 699.9,272.9 699.9,287.3 558.5,368.4 "/>
	</g>
	<g id="volets--G">
		<polygon class="st13" points="409.9,449.3 551.4,368.2 551.4,382.7 409.9,463.7 "/>
		<polygon class="st13" points="409.9,471.7 551.4,390.6 551.4,405.1 409.9,486.2 "/>
		<polygon class="st14" points="409.9,460.4 551.4,379.5 551.4,393.9 409.9,474.9 "/>
		<polygon class="st14" points="409.9,482.9 551.4,401.9 551.4,416.3 409.9,497.3 "/>
		<polygon class="st13" points="409.9,494.1 551.4,413.1 551.4,427.6 409.9,508.6 "/>
		<polygon class="st13" points="409.9,516.6 551.4,435.5 551.4,450 409.9,531.1 "/>
		<polygon class="st14" points="409.9,505.3 551.4,424.3 551.4,438.7 409.9,519.8 "/>
		<polygon class="st14" points="409.9,527.7 551.4,446.7 551.4,461.2 409.9,542.2 "/>
		<polygon class="st13" points="409.9,539 551.4,458 551.4,472.4 409.9,553.4 "/>
		<polygon class="st13" points="409.9,561.4 551.4,480.4 551.4,494.9 409.9,575.8 "/>
		<polygon class="st14" points="409.9,550.2 551.4,469.1 551.4,483.6 409.9,564.7 "/>
		<polygon class="st13" points="409.9,359.5 551.4,278.5 551.4,292.9 409.9,374 "/>
		<polygon class="st13" points="409.9,382 551.4,300.9 551.4,315.4 409.9,396.4 "/>
		<polygon class="st14" points="409.9,348.4 551.4,267.3 551.4,281.8 409.9,362.7 "/>
		<polygon class="st14" points="409.9,370.8 551.4,289.7 551.4,304.2 409.9,385.2 "/>
		<polygon class="st14" points="409.9,393.1 551.4,312.2 551.4,326.6 409.9,407.6 "/>
		<polygon class="st13" points="409.9,404.4 551.4,323.3 551.4,337.8 409.9,418.9 "/>
		<polygon class="st13" points="409.9,426.8 551.4,345.8 551.4,360.3 409.9,441.3 "/>
		<polygon class="st14" points="409.9,415.6 551.4,334.6 551.4,349 409.9,430 "/>
		<polygon class="st14" points="409.9,438 551.4,357 551.4,371.4 409.9,452.5 "/>
	</g>
</g>
<g id="FENETRES">
	<path id="fenetre-G" class="st14" d="M696.9,186.8v224.7l-135.4,77.6V264.4L696.9,186.8 M701.5,178.9l-144.6,82.9V497l144.6-82.9
		V178.9L701.5,178.9z"/>
	<path id="fenetre-D" class="st14" d="M548.1,271.9v224.7l-135.4,77.6V349.5L548.1,271.9 M552.7,264l-144.6,82.9v235.2l144.6-82.9
		V264L552.7,264z"/>
</g>
<g id="TABLE-PIEDS">
	<ellipse class="st15" cx="764.7" cy="773.6" rx="6.9" ry="4"/>
	<rect x="757.8" y="638.2" class="st15" width="13.8" height="135"/>
	<ellipse class="st15" cx="570.1" cy="655.8" rx="6.9" ry="4"/>
	<rect x="563.2" y="520.4" class="st15" width="13.8" height="135"/>
	<ellipse class="st15" cx="975.3" cy="652.9" rx="6.9" ry="4"/>
	<rect x="968.4" y="527.8" class="st15" width="13.8" height="124.7"/>
</g>
<g id="FEMME">
	<path id="chaise" class="st15" d="M660.8,499.2l-72.8,7.4c0,0-5.7-51.6-10-77.4c-5.9-35.5,15.1-43,15.1-43l38.7-18.9L660.8,499.2z"
		/>
	<path id="cheveux_1_" class="st16" d="M652.1,355c-0.1,9.1,3.6,15,8.3,22.1s4.5,20.3,0,26.5s-19.6,13.1-39.1,10.7
		s-22.3-15.9-20.6-24s6.4-13.8,8.5-23.8c2-10,1.7-25.8,4.1-32c6.2-16.4,25.6-13.7,28.1-9.6L652.1,355z"/>
	<path id="cheveux" class="st16" d="M651,358.5c3.7-0.4,6-6.6,7.2-11.2c2.1-7.8-0.3-16.1-6.2-21.6c-8.9-7.8-23.4-3.7-23.4-3.7
		S647.4,358.9,651,358.5z"/>
	<path id="cou" class="st17" d="M640.8,367.6l0.5,7.9c1.5-0.1,3.1,0,4.6,0.1c2.2,2.1,8,8,7,15.5c-1.2,8.2-17.7,14.4-23.1,12
		c-5.3-2.4-15.9-18.9-14.2-20.3s7.8-2.6,8.1-3.8c0.3-1.2-0.6-17.4-0.6-17.4S633.6,365.3,640.8,367.6z"/>
	<path id="bras" class="st17" d="M646.6,389.1c-1.3-5.1,0.7-11,5.2-10.8c3.8,0.1,7.8,2.8,10.1,8.6c2.3,5.8,5.6,22.6,8.3,31.6
		c2.8,8.3,1.4,6.3,6.4,13.6c4.5,6.5,6,13.3,8.3,14.9c1.2,2.4,7.1,2.1,9.6,2.8c3.3,1.1,4.8,2.7,7,3.7c2.2,0.9,2.9,0.4,2.6,1.7
		c-0.3,1.3-3,2.1-5.5,1.4c-2.4-0.6-3.5-1.8-4.2-1.7c-0.5,0,0.5,1.6,2.5,3.5c2.2,1.8,4.5,3.2,7,4.3c1.8,1.1,0.5,2.6-0.5,2.7
		c-1.9,0.1-3.8-0.3-5.5-1.2c-2.1-1-4.1-2.1-5.9-3.4c1,1.4,2.3,2.6,3.6,3.7c2.7,2,4,2.6,5.3,3.7c1.3,1.2-1.4,2.7-3.3,2.1
		c-1.9-0.7-3.7-1.8-5.3-3c-1.8-1.3-4.6-3.9-4.6-3.9c1.5,2.3,3.3,4.3,5.6,5.8c1.3,1.1,1.3,2.2,0.5,2.7s-2.4,0.3-5.5-1.8
		c-3.6-2.6-6.3-6.2-8-10.2c-0.9-2.6-1.5-6.5-2.7-9c-4.3-6.5-8.3-5.7-12.9-12C652.5,422.9,648.7,398,646.6,389.1z"/>
	<path id="corps" class="st18" d="M645.9,396.1c7.7-7.5-3.4-20.6-3.4-20.6c1.5-0.1,3-0.1,4.5,0c12.4,12.2,25,28,10.3,40.8
		c-0.1,6-1,24.1-1,24.1c-15.9,9.9-33.9,6.6-33.9,6.6c-2.3-4.5-6.7-23.3-10.7-33.7c-3.9-10.4-2.1-24.2-1.3-27.1
		c0.7-2.5,5.9-4.9,10.5-5.6C626.1,383.6,629.4,391,645.9,396.1z"/>
	<path id="visage" class="st17" d="M650,366.4c-2.7,4.5-5.2,7.1-8.1,7.1c-3.4,0-13.5-2.9-17.3-7.3c-0.7-1.5-1.3-3-1.6-4.6
		c-5.3-3.6-8.7-9.4-9.1-15.8c-0.7-11.4,8-21.2,19.4-21.9c10.7-0.6,18.3,7.2,19.9,17.7l0,0C654.2,346.7,655.6,357.1,650,366.4z"/>
	<g id="LUNETTES_1_">
		<path class="st11" d="M642.4,352.7c-0.2,1.8-1.4,3.3-2.8,4c-0.5,0.1-1,0.3-1.6,0.4s-1.1,0.1-1.7,0c-1.2-0.2-2.1-1.2-2.5-2.6
			c-0.1-0.8-0.3-1.6-0.3-2.5c0-1.6,0.5-3.2,1.7-3.6l0.7-0.2c0.4-0.1,0.7-0.2,1.1-0.2l1.4-0.2h0.1c0.9-0.1,1.7,0,2.5,0.3
			c0.6,0.2,1.2,0.9,1.5,1.6c0.3,0.5,0.3,1.1,0.4,1.7C642.7,351.7,642.7,352.1,642.4,352.7z M655.4,349.9c0,0.7-0.1,1.6-0.2,2.2
			c-0.3,1.5-1.2,2.6-2.3,3.1c-0.4,0.2-1,0.3-1.5,0.4c-0.4,0-1,0-1.5,0c-1.4-0.2-2.4-1.4-2.8-3.1c-0.1-0.5-0.2-0.9-0.2-1.3
			c0.1-0.6,0.1-1.1,0.3-1.7c0.3-0.7,0.8-1.4,1.4-1.8c0.8-0.4,1.5-0.7,2.3-0.8h0.1l1.3-0.1c0.3,0,0.7,0,1,0l0.6,0.1
			C654.9,347,655.4,348.4,655.4,349.9L655.4,349.9z"/>
		<path class="st15" d="M618.8,347l14.8,1.7l-0.4,1.8l-14.9-2.4L618.8,347z"/>
		<path class="st15" d="M658.3,346.5c-1.4-0.4-3-0.6-4.7-0.4l-1.3,0.1c-1,0-2,0.3-3.1,0.9l-0.9,0.5c-0.2,0.2-0.5,0.1-0.7,0
			s-0.3-0.2-0.5-0.1l-1.3,0.2l-1.2,0.1c-0.2,0.1-0.3,0.1-0.5,0.2c-0.2,0-0.5,0-0.6-0.1l-0.8-0.3c-1-0.4-2-0.6-3.1-0.5l-1.5,0.2
			c-1.7,0-3.5,0.5-5.4,1.2c-0.3,0.1-0.5,0.4-0.5,0.8l-0.1,1.5c0,0.2,0.1,0.4,0.3,0.4c0.4,0.1,0.6,0.2,0.7,0.7l0.1,3.1
			c0,1.8,1.2,3.1,2.8,3.3l0,0c1.2,0.3,2.7,0.1,4-0.3l0,0c2-0.6,3.7-2.5,4.3-4.5l0.4-1.6c0.1-0.4,0.2-0.8,0-1c-0.1,0-0.1-0.2-0.1-0.4
			c0-0.4,0.5-0.9,0.9-1h0.2h0.2c0.2-0.1,0.2,0,0.3,0c0.5,0.1,0.6,0.7,0.3,1.2c-0.2,0.3-0.3,0.7-0.2,1.1l0.1,1.6
			c0.1,2,1.4,3.4,3.3,3.7l0,0c1.1,0.2,2.5,0.1,3.8-0.3l0,0c1.5-0.5,2.9-2.1,3.3-3.7l0.7-2.9c0-0.4,0.3-0.7,0.7-0.8
			c0.2-0.1,0.3-0.3,0.3-0.4l0.2-1.4C658.7,347.1,658.6,346.8,658.3,346.5z M643.6,352.1c0,0.4-0.2,0.8-0.5,1.3
			c-0.4,1.7-1.8,3.1-3.4,3.7c-0.5,0.1-1.1,0.3-1.7,0.3c-0.6,0.1-1.2,0.1-1.8,0c-1.2-0.3-2.1-1.3-2.3-2.6c-0.2-0.7-0.2-1.6-0.1-2.4
			c0.2-1.5,1-3,2.1-3.4c0.2,0,0.4-0.1,0.8-0.1c0.4-0.1,0.8-0.1,1.2-0.2l1.5-0.2h0.1c1-0.1,1.8,0,2.6,0.4c0.6,0.2,1.2,0.8,1.4,1.6
			C643.7,350.9,643.7,351.5,643.6,352.1L643.6,352.1z M656.5,350.4c0,0.7-0.2,1.5-0.5,2.3c-0.5,1.4-1.5,2.4-2.7,2.9
			c-0.5,0.2-1.1,0.3-1.6,0.4c-0.5,0-1,0-1.6,0c-1.4-0.2-2.4-1.4-2.6-3c0-0.5-0.1-0.8-0.1-1.2c0.1-0.5,0.2-1.1,0.5-1.6
			c0.3-0.8,1-1.5,1.7-1.8c0.8-0.4,1.7-0.6,2.6-0.7h0.1l1.3-0.1c0.3,0,0.7,0,1,0c0.2,0,0.4,0.1,0.6,0.1
			C656.3,347.6,656.6,349,656.5,350.4L656.5,350.4z"/>
		
			<linearGradient id="SVGID_5_" gradientUnits="userSpaceOnUse" x1="2888.459" y1="649.2081" x2="2888.459" y2="640.0004" gradientTransform="matrix(-0.7812 -0.4467 0.6352 -1.0108 2485.4089 2294.7651)">
			<stop  offset="1.000000e-02" style="stop-color:#FFFFFF"/>
			<stop  offset="0.88" style="stop-color:#FFFFFF;stop-opacity:0"/>
		</linearGradient>
		<path class="st19" d="M643.6,350.5c0.3,0.5,0.3,1.1,0.3,1.7c0,0.4-0.2,1-0.4,1.3c-0.4,1.8-1.8,3.3-3.4,3.9
			c-0.6,0.1-1.1,0.3-1.8,0.4s-1.3,0.1-1.9,0c-1.3-0.3-2.3-1.3-2.6-2.7c-0.2-0.8-0.3-1.7-0.2-2.6c0.2-1.6,0.9-3.2,2.1-3.6
			c0.3,0,0.4-0.1,0.8-0.2c0.4-0.1,0.8-0.2,1.2-0.2l1.6-0.2l0.1,0.1c1.1-0.2,1.9,0,2.8,0.4C642.9,349.1,643.5,349.6,643.6,350.5z"/>
		
			<linearGradient id="SVGID_6_" gradientUnits="userSpaceOnUse" x1="2919.0049" y1="726.4269" x2="2919.0049" y2="717.2888" gradientTransform="matrix(-0.7912 -0.3755 0.5631 -1.0793 2555.1743 2226.4402)">
			<stop  offset="1.000000e-02" style="stop-color:#FFFFFF"/>
			<stop  offset="0.88" style="stop-color:#FFFFFF;stop-opacity:0"/>
		</linearGradient>
		<path class="st20" d="M647.6,350.4c-0.3,0.6-0.4,1.2-0.4,1.8c0,0.5,0.1,1,0.2,1.3c0.4,1.7,1.5,2.8,3,2.9c0.5,0.1,1,0,1.7-0.1
			c0.5-0.1,1-0.3,1.7-0.6c1.3-0.6,2.3-2,2.6-3.4c0.2-0.8,0.3-1.7,0.3-2.6c0-1.5-0.5-3-1.6-3c-0.2-0.1-0.4,0-0.7,0s-0.7,0.1-1.1,0.1
			l-1.4,0.3h-0.1c-0.8,0.1-1.8,0.5-2.6,1.1C648.5,348.6,648,349.5,647.6,350.4z"/>
	</g>
	<path class="st16" d="M652.5,335c-1.4-1.4-11.3-4.7-18.1-0.9c-2.7,1.3-4.9,3.6-5.9,6.5c-0.3,1.1-0.7,2.2-1.3,3.2
		c-0.8,1.2-1.2,2.5-1.3,3.9c1.4,10.4-2.9,13.9-2.9,13.9l-9.1-4.7l-1.1-3c-1.7-4.1,0.1-13.8,1.5-18.9c2.1-7.4,8.3-9.5,15.8-11
		C639.2,322,648.6,326.5,652.5,335z"/>
	<path class="st21" d="M669.1,582.5c0.4,3.3,3,4.1,5.6,5.8c3.8,2.3,6.9,5.5,10.8,7.5c3.9,2,14.2,4,15.4-2.5c0.7-3.6-3-6.1-5.4-8
		c-4.3-3.4-10.1-6.8-14-10.7c-0.3-0.3-6.2,1.9-10-1.3C670.9,573.3,669,580.6,669.1,582.5z"/>
	<path class="st22" d="M669.1,582.5c0.4,3.3,3,4.1,5.6,5.8c3.8,2.3,7,5.5,10.8,7.5s14,3.9,15.3-2.3c-2.6,4.6-11.3,2.9-15.1,1
		c-3.8-2-7.1-5.3-10.8-7.6c-2.6-1.6-5.1-2.5-5.6-5.7C669.2,581.6,669.1,582,669.1,582.5z"/>
	<path class="st21" d="M687.9,571.6c0.4,3,2.7,3.8,5.1,5.3c3.3,2.1,6.3,5.1,9.8,6.9s13,3.6,14.1-2.3c0.6-3.3-2.8-5.6-4.9-7.3
		c-4-3.1-9.2-6.2-12.8-9.7c-0.3-0.3-5.5,1.3-9-1.5C689.5,562.9,687.6,569.8,687.9,571.6z"/>
	<path class="st22" d="M687.9,571.7c0.4,3,2.7,3.8,5.1,5.3c3.3,2.1,6.3,5.1,9.8,6.9c3.5,1.8,12.8,3.5,14-2.2
		c-2.3,4.2-10.3,2.7-13.8,0.9s-6.6-4.8-10-7c-2.4-1.5-4.7-2.3-5.2-5.2C687.8,570.8,687.8,571.3,687.9,571.7z"/>
	<path class="st17" d="M637.2,455.2c-0.1,6.2-0.5,6.9,1.2,13c2.9,10.5,46.1,29.6,46.1,29.6c-2.3,39.8,5.5,67,5.5,67
		c1.9,1.8,4.5,2.1,8.4,0.3c1.4-0.7,6.3-46.5,7.9-78.6c-1.7-10.1-26.5-25-38.9-33.6c0,0,0.1-0.8,0.2-4c-9.5,4.2-19.9,3.6-30.3,2.2
		C637.2,452.4,637.1,453.7,637.2,455.2z"/>
	<path class="st17" d="M618.3,465c-0.1,6.8,0.5,13.7,5.5,18.8c4.7,4.8,41.8,23,41.8,23.8c-2.3,39.9,5.5,66.7,5.5,66.7
		c3,2.2,6.9,2.7,10.3,1.2c1.4-0.6,4.4-47,6-79.1c-1.7-10.2-26.5-25-38.9-33.6c0,0,0.5-8,0.6-12.3c-9.7,1-17.5,0.5-26.1-3.5
		C620.2,452.6,618.6,458.7,618.3,465z"/>
	<path class="st23" d="M621.5,445.2c22.5,3.3,34.8-6.5,34.8-6.5l1.8,1.7c0,0,8.2,6.7,18.7,13.7s27.1,19.2,32.4,24
		c3.1,3.1,4.5,7.5,3.7,11.8l-0.8,6.3l-7.3,23.4c-21.8,19.3-39.1,13.3-39.1,13.3c-1.7-16.4,0-25.2,0-25.2l-3.6-0.8
		c0,0-14.8-3.1-38.9-16.3c-22.8-12.4-9.1-36.7-9.1-36.7C615.9,450.5,618.5,447.6,621.5,445.2z"/>
	<path id="bras_1_" class="st17" d="M629.9,491.8c-0.5,1.3-3.2,1.7-5.5,0.6c-2.4-1.1-3.3-2.6-3.9-2.6c-0.6,0,0.3,2,2.2,4.3
		c2,2.2,4.2,4.2,6.6,5.9c1.7,1.6,0.3,2.8-0.7,2.8c-1.9-0.2-3.8-0.9-5.3-2.2c-2-1.4-3.9-3-5.7-4.6c0.9,1.7,2,3.3,3.3,4.7
		c2.4,2.7,3.7,3.5,4.9,5c1.2,1.4-1.7,2.7-3.5,1.6c-1.8-1.2-3.5-2.6-5-4.2c-1.7-1.8-4.2-5-4.2-5c1.2,2.7,3,5.2,5.1,7.3
		c1.2,1.4,1.1,2.5,0.2,2.9s-2.3-0.2-5.3-2.9c-3.3-3.5-5.7-7.7-7-12.3c-1.4-4.6-1.6-6.6-2.5-8.9c-3.6-7.9-6.3-16.2-7.9-24.8
		c-1.8-9.7-2-19.7-0.4-29.5c2-13.3,8.2-30.3,12.1-39.3c3.9-9,7.3-9.1,10.6-5.7c2.8,2.9,4.5,6.7,1.4,13.2
		c-4.8,10.8-8.6,21.9-11.5,33.4c-1.8,9.6-2,19.4-0.5,29c1.6,8.5,4.7,17.3,6.8,19.4c2,1.9,4.2,3.5,6.7,4.8c2.3,1.6,4.5,3.3,6.6,5.2
		C629.6,491.2,630.4,490.5,629.9,491.8z"/>
	<path class="st2" d="M617.9,381.7c7,3.1,4.5,11.2,4.5,11.2l-3.6,15.4c-9.3,1.5-17.6-5.9-17.6-5.9
		C604.3,386.7,610.9,378.6,617.9,381.7z"/>
	<path class="st2" d="M661.9,395l3.6-2.2c-9.6-20-18.6-17.3-18.6-17.3C652.5,380.6,661.9,395,661.9,395z"/>
</g>
<g id="TABLE-PLATEAU">
	<path id="dessous" class="st24" d="M992.3,542.1L755.8,405L547.2,526.4l-7.4-4.3v8.6l243.9,141.5l216-125.7v-8.6L992.3,542.1z"/>
	<polygon id="dessus" class="st25" points="783.7,663.6 539.7,522.1 755.8,396.4 999.7,537.9 "/>
</g>
<g id="PAPIER">
	<polygon class="st18" points="818.6,592 783.2,621.7 750.9,608.8 786.3,579.2 "/>
	<polygon class="st18" points="810.4,593.4 766.3,618.9 738.5,602.8 782.6,577.4 "/>
	<polygon class="st26" points="769.2,612 766.5,613.6 748.2,603 750.9,601.4 "/>
	<polygon class="st26" points="775.3,608.5 772.6,610.1 754.3,599.5 757,597.9 "/>
	<polygon class="st26" points="781.2,605.1 778.5,606.7 760.2,596.1 762.9,594.6 "/>
	<polygon class="st26" points="794.9,597.2 792.2,598.8 781.5,592.6 784.2,591.1 "/>
	<polygon class="st26" points="800.7,593.8 798,595.4 787.4,589.2 790.1,587.7 "/>
	<path class="st27" d="M771.4,617c0.7-0.3,38.9-23.5,38.9-23.5l-40.1,23.1L771.4,617z"/>
</g>
<g id="ORDINATEUR">
	<path id="_x3C_Tracé_x3E_" class="st18" d="M662.7,492.1l-31.8-18.3l54.2-31.3c0.6-0.3,1.2-0.3,1.8,0l30.9,17.8L662.7,492.1z"/>
	<path class="st28" d="M662,485.5l2.3,1.3c0.2,0.1,0.2,0.3,0.1,0.4l-2.4,1.4c-0.2,0.1-0.5,0.1-0.7,0l-2.3-1.3
		c-0.2-0.1-0.2-0.3-0.1-0.4l2.4-1.4C661.5,485.4,661.8,485.4,662,485.5z"/>
	<path class="st28" d="M665.4,483.6l2.3,1.3c0.2,0.1,0.2,0.3,0.1,0.4l-2.4,1.4c-0.2,0.1-0.5,0.1-0.8,0l-2.3-1.3
		c-0.2-0.1-0.2-0.3-0.1-0.4l2.4-1.4C664.8,483.5,665.1,483.5,665.4,483.6z"/>
	<path class="st28" d="M668.7,481.6l2.2,1.3c0.2,0.1,0.3,0.3,0.1,0.4l-2.4,1.4c-0.2,0.1-0.5,0.1-0.8,0l-2.3-1.3
		c-0.2-0.1-0.2-0.3,0-0.4l2.4-1.4C668.2,481.5,668.5,481.5,668.7,481.6z"/>
	<path class="st28" d="M672,479.7l2.3,1.3c0.2,0.1,0.2,0.3,0,0.4l-2.4,1.4c-0.2,0.1-0.5,0.1-0.8,0l-2.2-1.3
		c-0.2-0.1-0.3-0.3-0.1-0.4l2.4-1.4C671.5,479.6,671.8,479.6,672,479.7z"/>
	<path class="st28" d="M675.4,477.8l2.3,1.3c0.2,0.1,0.2,0.3,0.1,0.4l-2.4,1.4c-0.2,0.1-0.5,0.1-0.7,0l-2.3-1.3
		c-0.2-0.1-0.2-0.3-0.1-0.4l2.4-1.4C674.8,477.7,675.1,477.7,675.4,477.8z"/>
	<path class="st28" d="M678.7,475.9l2.3,1.3c0.2,0.1,0.2,0.3,0.1,0.4l-2.4,1.4c-0.2,0.1-0.5,0.1-0.8,0l-2.3-1.3
		c-0.2-0.1-0.2-0.3-0.1-0.4l2.4-1.4C678.2,475.8,678.5,475.8,678.7,475.9z"/>
	<path class="st28" d="M682,474l2.2,1.3c0.2,0.1,0.3,0.3,0.1,0.4l-2.4,1.4c-0.2,0.1-0.5,0.1-0.8,0l-2.3-1.3c-0.2-0.1-0.2-0.3,0-0.4
		l2.4-1.4C681.5,473.8,681.8,473.8,682,474z"/>
	<path class="st28" d="M685.4,472l2.3,1.3c0.2,0.1,0.2,0.3,0,0.4l-2.4,1.4c-0.2,0.1-0.5,0.1-0.8,0l-2.2-1.3
		c-0.2-0.1-0.2-0.3-0.1-0.4l2.4-1.4C684.9,471.9,685.1,471.9,685.4,472z"/>
	<path class="st28" d="M688.7,470.1l2.3,1.3c0.2,0.1,0.2,0.3,0.1,0.4l-2.4,1.4c-0.2,0.1-0.5,0.1-0.7,0l-2.3-1.3
		c-0.2-0.1-0.2-0.3-0.1-0.4l2.4-1.4C688.2,470,688.5,470,688.7,470.1z"/>
	<path class="st28" d="M692,468.2l2.3,1.3c0.2,0.1,0.2,0.3,0.1,0.4l-2.4,1.4c-0.2,0.1-0.5,0.1-0.8,0l-2.3-1.3
		c-0.2-0.1-0.2-0.3-0.1-0.4l2.4-1.4C691.5,468.1,691.8,468.1,692,468.2z"/>
	<path class="st28" d="M695.4,466.3l2.2,1.3c0.2,0.1,0.3,0.3,0.1,0.4l-2.4,1.4c-0.2,0.1-0.5,0.1-0.8,0l-2.3-1.3
		c-0.2-0.1-0.2-0.3,0-0.4l2.4-1.4C694.9,466.1,695.1,466.1,695.4,466.3z"/>
	<path class="st28" d="M698.8,464.3l2.3,1.3c0.2,0.1,0.2,0.3,0,0.4l-2.4,1.4c-0.2,0.1-0.5,0.1-0.7,0l-2.3-1.3
		c-0.2-0.1-0.2-0.3-0.1-0.4l2.4-1.4C698.2,464.2,698.5,464.2,698.8,464.3z"/>
	<path class="st28" d="M702,462.4l2.3,1.3c0.2,0.1,0.2,0.3,0.1,0.4l-2.4,1.4c-0.2,0.1-0.5,0.1-0.7,0l-2.3-1.3
		c-0.2-0.1-0.2-0.3-0.1-0.4l2.4-1.4C701.5,462.3,701.8,462.3,702,462.4z"/>
	<path class="st28" d="M707,459.5l2.3,1.3c0.2,0.1,0.2,0.3,0.1,0.4l-4,2.3c-0.2,0.1-0.5,0.1-0.8,0l-2.3-1.3c-0.2-0.1-0.2-0.3,0-0.4
		l4-2.3C706.5,459.4,706.8,459.4,707,459.5z"/>
	<path class="st28" d="M663.7,480.8l2.3,1.3c0.2,0.1,0.2,0.3,0.1,0.4l-2.4,1.4c-0.2,0.1-0.5,0.1-0.7,0l-2.3-1.3
		c-0.2-0.1-0.2-0.3-0.1-0.4l2.4-1.4C663.2,480.7,663.5,480.7,663.7,480.8z"/>
	<path class="st28" d="M667.1,478.9l2.3,1.3c0.2,0.1,0.2,0.3,0.1,0.4l-2.4,1.4c-0.2,0.1-0.5,0.1-0.7,0l-2.3-1.3
		c-0.2-0.1-0.2-0.3-0.1-0.4l2.4-1.4C666.6,478.8,666.8,478.8,667.1,478.9z"/>
	<path class="st28" d="M670.4,476.9l2.3,1.3c0.2,0.1,0.2,0.3,0,0.4l-2.4,1.4c-0.2,0.1-0.5,0.1-0.8,0l-2.2-1.3
		c-0.2-0.1-0.2-0.3-0.1-0.4l2.4-1.4C669.9,476.8,670.2,476.8,670.4,476.9z"/>
	<path class="st28" d="M673.8,475l2.3,1.3c0.2,0.1,0.2,0.3,0,0.4l-2.4,1.4c-0.2,0.1-0.5,0.1-0.8,0l-2.2-1.3
		c-0.2-0.1-0.3-0.3-0.1-0.4l2.4-1.4C673.3,474.9,673.6,474.9,673.8,475z"/>
	<path class="st28" d="M677.1,473.1l2.3,1.3c0.2,0.1,0.2,0.3,0,0.4l-2.4,1.4c-0.2,0.1-0.5,0.1-0.8,0l-2.2-1.3
		c-0.2-0.1-0.3-0.3-0.1-0.4l2.3-1.4C676.6,473,676.9,473,677.1,473.1z"/>
	<path class="st28" d="M680.4,471.2l2.2,1.3c0.2,0.1,0.3,0.3,0.1,0.4l-2.4,1.4c-0.2,0.1-0.5,0.1-0.8,0l-2.3-1.3
		c-0.2-0.1-0.2-0.3,0-0.4l2.4-1.4C679.9,471,680.2,471,680.4,471.2z"/>
	<path class="st28" d="M683.7,469.2l2.2,1.3c0.2,0.1,0.2,0.3,0.1,0.4l-2.4,1.4c-0.2,0.1-0.5,0.1-0.8,0l-2.1-1.3
		c-0.2-0.1-0.2-0.3,0-0.4l2.4-1.4C683.2,469.1,683.5,469.1,683.7,469.2z"/>
	<path class="st28" d="M687.1,467.3l2.3,1.3c0.2,0.1,0.2,0.3,0.1,0.4l-2.4,1.4c-0.2,0.1-0.5,0.1-0.8,0l-2.3-1.3
		c-0.2-0.1-0.2-0.3-0.1-0.4l2.4-1.4C686.6,467.2,686.9,467.2,687.1,467.3z"/>
	<path class="st28" d="M690.4,465.4l2.3,1.3c0.2,0.1,0.2,0.3,0.1,0.4l-2.4,1.4c-0.2,0.1-0.5,0.1-0.8,0l-2.3-1.3
		c-0.2-0.1-0.2-0.3-0.1-0.4l2.4-1.4C689.9,465.2,690.2,465.2,690.4,465.4z"/>
	<path class="st28" d="M693.8,463.4l2.3,1.3c0.2,0.1,0.2,0.3,0.1,0.4l-2.4,1.4c-0.2,0.1-0.5,0.1-0.7,0l-2.3-1.3
		c-0.2-0.1-0.2-0.3-0.1-0.4l2.4-1.4C693.3,463.3,693.5,463.3,693.8,463.4z"/>
	<path class="st28" d="M697.1,461.5l2.3,1.3c0.2,0.1,0.2,0.3,0.1,0.4l-2.3,1.3c-0.2,0.1-0.5,0.1-0.7,0l-2.3-1.3
		c-0.2-0.1-0.2-0.3-0.1-0.4l2.4-1.4C696.6,461.4,696.9,461.4,697.1,461.5z"/>
	<path class="st28" d="M700.5,459.6l2.3,1.3c0.2,0.1,0.2,0.3,0,0.4l-2.4,1.4c-0.2,0.1-0.5,0.1-0.7,0l-2.3-1.3
		c-0.2-0.1-0.2-0.3-0.1-0.4l2.4-1.4C700,459.5,700.2,459.5,700.5,459.6z"/>
	<path class="st28" d="M660.4,482.7l2.3,1.3c0.2,0.1,0.2,0.3,0.1,0.4l-4,2.2c-0.2,0.1-0.5,0.1-0.8,0l-2.3-1.3
		c-0.2-0.1-0.2-0.3,0-0.4l4-2.3C659.9,482.6,660.1,482.6,660.4,482.7z"/>
	<path class="st28" d="M706.1,459l-2-1.2l-0.3-0.2l-0.4-0.2l-0.5-0.3l-2.4-1.4c-0.2-0.1-0.5-0.1-0.7,0l-1.5,0.9
		c-0.2,0.1-0.2,0.3,0,0.4l2.5,1.5c0.2,0.1,0.2,0.3,0,0.4l-0.2,0.1c-0.1,0-0.1,0.1-0.1,0.1c0,0.1,0,0.2,0.1,0.3l2.4,1.4
		c0.2,0.1,0.5,0.1,0.7,0l2.4-1.4C706.3,459.3,706.3,459.1,706.1,459z"/>
	<path class="st28" d="M649.1,478l2.3,1.3c0.2,0.1,0.2,0.3,0,0.4l-2.4,1.4c-0.2,0.1-0.5,0.1-0.7,0l-2.3-1.3
		c-0.2-0.1-0.2-0.3-0.1-0.4l2.4-1.4C648.6,477.9,648.9,477.9,649.1,478z"/>
	<path class="st28" d="M652.4,476.1l2.3,1.3c0.2,0.1,0.2,0.3,0.1,0.4l-2.4,1.4c-0.2,0.1-0.5,0.1-0.7,0l-2.3-1.3
		c-0.2-0.1-0.2-0.3-0.1-0.4l2.4-1.4C651.9,476,652.2,476,652.4,476.1z"/>
	<path class="st28" d="M655.7,474.2l2.3,1.3c0.2,0.1,0.2,0.3,0.1,0.4l-2.4,1.4c-0.2,0.1-0.5,0.1-0.8,0l-2.3-1.3
		c-0.2-0.1-0.2-0.3,0-0.4l2.4-1.4C655.2,474.1,655.5,474.1,655.7,474.2z"/>
	<path class="st28" d="M684.1,457.8l2.3,1.3c0.2,0.1,0.2,0.3,0,0.4l-2.4,1.4c-0.2,0.1-0.5,0.1-0.8,0l-2.2-1.3
		c-0.2-0.1-0.3-0.3-0.1-0.4l2.4-1.4C683.6,457.7,683.9,457.7,684.1,457.8z"/>
	<path class="st28" d="M687.4,455.9l2.3,1.3c0.2,0.1,0.2,0.3,0.1,0.4l-2.4,1.4c-0.2,0.1-0.5,0.1-0.7,0l-2.3-1.3
		c-0.2-0.1-0.2-0.3-0.1-0.4l2.4-1.4C686.9,455.8,687.2,455.8,687.4,455.9z"/>
	<path class="st28" d="M690.7,454l2.3,1.3c0.2,0.1,0.2,0.3,0.1,0.4l-2.4,1.4c-0.2,0.1-0.5,0.1-0.8,0l-2.3-1.3
		c-0.2-0.1-0.2-0.3-0.1-0.4l2.4-1.4C690.2,453.9,690.5,453.9,690.7,454z"/>
	<path class="st28" d="M694,452.1l2.2,1.3c0.2,0.1,0.3,0.3,0.1,0.4l-2.4,1.4c-0.2,0.1-0.5,0.1-0.8,0l-2.3-1.3
		c-0.2-0.1-0.2-0.3,0-0.4l2.4-1.4C693.5,452,693.8,452,694,452.1z"/>
	<path class="st28" d="M659.9,471.8l2.2,1.3c0.2,0.1,0.3,0.3,0.1,0.4l-3.2,1.9c-0.2,0.1-0.5,0.1-0.8,0l-2.2-1.3
		c-0.2-0.1-0.3-0.3-0.1-0.4l3.2-1.9C659.4,471.7,659.7,471.7,659.9,471.8z"/>
	<path class="st28" d="M680.8,459.8l2.2,1.3c0.2,0.1,0.2,0.3,0.1,0.4l-3.2,1.9c-0.2,0.1-0.5,0.1-0.8,0l-2.3-1.3
		c-0.2-0.1-0.2-0.3,0-0.4l3.2-1.9C680.2,459.6,680.5,459.6,680.8,459.8z"/>
	<path class="st28" d="M676.6,462.2l2.3,1.3c0.2,0.1,0.2,0.3,0.1,0.4l-15.7,9c-0.2,0.1-0.5,0.1-0.7,0l-2.3-1.3
		c-0.2-0.1-0.2-0.3-0.1-0.4l15.7-9C676.1,462.1,676.3,462.1,676.6,462.2z"/>
	<path class="st28" d="M661.4,478.4l2.3,1.3c0.2,0.1,0.2,0.3,0.1,0.4l-2.4,1.4c-0.2,0.1-0.5,0.1-0.7,0l-2.3-1.3
		c-0.2-0.1-0.2-0.3-0.1-0.4l2.4-1.4C660.9,478.3,661.2,478.3,661.4,478.4z"/>
	<path class="st28" d="M664.7,476.5l2.3,1.3c0.2,0.1,0.2,0.3,0.1,0.4l-2.4,1.3c-0.2,0.1-0.5,0.1-0.7,0l-2.3-1.3
		c-0.2-0.1-0.2-0.3-0.1-0.4l2.4-1.4C664.2,476.4,664.5,476.4,664.7,476.5z"/>
	<path class="st28" d="M668.1,474.6l2.3,1.3c0.2,0.1,0.2,0.3,0,0.4l-2.4,1.4c-0.2,0.1-0.5,0.1-0.8,0l-2.2-1.3
		c-0.2-0.1-0.2-0.3-0.1-0.4l2.4-1.4C667.6,474.4,667.9,474.4,668.1,474.6z"/>
	<path class="st28" d="M671.5,472.6l2.3,1.3c0.2,0.1,0.2,0.3,0,0.4l-2.4,1.4c-0.2,0.1-0.5,0.1-0.8,0l-2.2-1.3
		c-0.2-0.1-0.3-0.3-0.1-0.4l2.4-1.4C670.9,472.5,671.2,472.5,671.5,472.6z"/>
	<path class="st28" d="M674.7,470.7l2.2,1.3c0.2,0.1,0.3,0.3,0.1,0.4l-2.4,1.4c-0.2,0.1-0.5,0.1-0.8,0l-2.3-1.3
		c-0.2-0.1-0.2-0.3,0-0.4l2.4-1.4C674.2,470.6,674.5,470.6,674.7,470.7z"/>
	<path class="st28" d="M678.1,468.8l2.3,1.3c0.2,0.1,0.2,0.3,0.1,0.4l-2.4,1.4c-0.2,0.1-0.5,0.1-0.8,0l-2.3-1.3
		c-0.2-0.1-0.2-0.3,0-0.4l2.4-1.4C677.6,468.7,677.8,468.7,678.1,468.8z"/>
	<path class="st28" d="M681.4,466.9l2.3,1.3c0.2,0.1,0.2,0.3,0.1,0.4l-2.4,1.4c-0.2,0.1-0.5,0.1-0.8,0l-2.2-1.3
		c-0.2-0.1-0.2-0.3-0.1-0.4l2.4-1.4C680.9,466.7,681.2,466.7,681.4,466.9z"/>
	<path class="st28" d="M684.7,464.9l2.3,1.3c0.2,0.1,0.2,0.3,0.1,0.4l-2.4,1.4c-0.2,0.1-0.5,0.1-0.7,0l-2.3-1.3
		c-0.2-0.1-0.2-0.3-0.1-0.4l2.4-1.4C684.2,464.8,684.5,464.8,684.7,464.9z"/>
	<path class="st28" d="M688.1,463l2.3,1.3c0.2,0.1,0.2,0.3,0.1,0.4l-2.4,1.4c-0.2,0.1-0.5,0.1-0.7,0l-2.3-1.3
		c-0.2-0.1-0.2-0.3-0.1-0.4l2.4-1.4C687.5,462.9,687.8,462.9,688.1,463z"/>
	<path class="st28" d="M691.4,461.1l2.3,1.3c0.2,0.1,0.2,0.3,0,0.4l-2.4,1.4c-0.2,0.1-0.5,0.1-0.7,0l-2.3-1.3
		c-0.2-0.1-0.2-0.3-0.1-0.4l2.4-1.4C690.9,461,691.2,461,691.4,461.1z"/>
	<path class="st28" d="M694.7,459.1l2.3,1.3c0.2,0.1,0.2,0.3,0,0.4l-2.4,1.4c-0.2,0.1-0.5,0.1-0.8,0l-2.1-1.2
		c-0.2-0.1-0.3-0.3-0.1-0.4l2.4-1.4C694.2,459,694.5,459,694.7,459.1z"/>
	<path class="st28" d="M698.1,457.2l2.2,1.3c0.2,0.1,0.3,0.3,0.1,0.4l-2.4,1.4c-0.2,0.1-0.5,0.1-0.8,0L695,459
		c-0.2-0.1-0.3-0.3-0.1-0.4l2.4-1.4C697.6,457.1,697.8,457.1,698.1,457.2z"/>
	<path class="st28" d="M658.1,480.3l2.3,1.3c0.2,0.1,0.2,0.3,0.1,0.4l-4.9,2.8c-0.2,0.1-0.5,0.1-0.7,0l-2.3-1.2
		c-0.2-0.1-0.2-0.3-0.1-0.4l4.9-2.8C657.5,480.2,657.8,480.2,658.1,480.3z"/>
	<path class="st28" d="M656.5,477.5l2.3,1.3c0.2,0.1,0.2,0.3,0.1,0.4l-2.4,1.4c-0.2,0.1-0.5,0.1-0.7,0l-2.3-1.3
		c-0.2-0.1-0.2-0.3-0.1-0.4l2.4-1.4C656,477.4,656.3,477.4,656.5,477.5z"/>
	<path class="st28" d="M659.9,475.6l2.2,1.3c0.2,0.1,0.2,0.3,0,0.4l-2.4,1.4c-0.2,0.1-0.5,0.1-0.7,0l-2.3-1.3
		c-0.2-0.1-0.2-0.3-0.1-0.4l2.4-1.4C659.3,475.4,659.6,475.5,659.9,475.6z"/>
	<path class="st28" d="M663.2,473.7l2.3,1.3c0.2,0.1,0.2,0.3,0,0.4l-2.4,1.3c-0.2,0.1-0.5,0.1-0.8,0l-2.2-1.3
		c-0.2-0.1-0.3-0.3-0.1-0.4l2.4-1.4C662.7,473.5,663,473.5,663.2,473.7z"/>
	<path class="st28" d="M666.5,471.7l2.2,1.3c0.2,0.1,0.2,0.3,0.1,0.4l-2.4,1.4c-0.2,0.1-0.5,0.1-0.8,0l-2.3-1.3
		c-0.2-0.1-0.2-0.3,0-0.4l2.4-1.4C666,471.6,666.2,471.6,666.5,471.7z"/>
	<path class="st28" d="M669.8,469.8l2.3,1.3c0.2,0.1,0.2,0.3,0.1,0.4l-2.4,1.4c-0.2,0.1-0.5,0.1-0.8,0l-2.3-1.3
		c-0.2-0.1-0.2-0.3-0.1-0.4l2.4-1.4C669.3,469.6,669.6,469.6,669.8,469.8z"/>
	<path class="st28" d="M673.2,467.9l2.3,1.3c0.2,0.1,0.2,0.3,0.1,0.4l-2.4,1.4c-0.2,0.1-0.5,0.1-0.7,0l-2.3-1.3
		c-0.2-0.1-0.2-0.3-0.1-0.4l2.4-1.4C672.7,467.8,672.9,467.7,673.2,467.9z"/>
	<path class="st28" d="M676.5,466l2.3,1.3c0.2,0.1,0.2,0.3,0,0.4l-2.4,1.4c-0.2,0.1-0.5,0.1-0.7,0l-2.3-1.3
		c-0.2-0.1-0.2-0.3-0.1-0.4l2.4-1.4C676,465.9,676.3,465.9,676.5,466z"/>
	<path class="st28" d="M679.9,464l2.3,1.3c0.2,0.1,0.2,0.3,0,0.4l-2.4,1.4c-0.2,0.1-0.5,0.1-0.8,0l-2.2-1.3
		c-0.2-0.1-0.3-0.3-0.1-0.4l2.4-1.4C679.3,463.9,679.6,463.9,679.9,464z"/>
	<path class="st28" d="M683.2,462.1l2.2,1.3c0.2,0.1,0.3,0.3,0.1,0.4l-2.4,1.4c-0.2,0.1-0.5,0.1-0.8,0l-2.3-1.3
		c-0.2-0.1-0.2-0.3,0-0.4l2.4-1.4C682.7,462,682.9,462,683.2,462.1z"/>
	<path class="st28" d="M686.5,460.2l2.3,1.3c0.2,0.1,0.2,0.3,0.1,0.4l-2.4,1.4c-0.2,0.1-0.5,0.1-0.8,0l-2.3-1.3
		c-0.2-0.1-0.2-0.3-0.1-0.4l2.4-1.4C686,460,686.3,460,686.5,460.2z"/>
	<path class="st28" d="M689.9,458.2l2.3,1.3c0.2,0.1,0.2,0.3,0.1,0.4l-2.4,1.4c-0.2,0.1-0.5,0.1-0.7,0l-2.5-1.3
		c-0.2-0.1-0.2-0.3-0.1-0.4l2.4-1.4C689.3,458.1,689.6,458.1,689.9,458.2z"/>
	<path class="st28" d="M697.3,453.9l2.3,1.3c0.2,0.1,0.2,0.3,0,0.4l-6.5,3.8c-0.2,0.1-0.5,0.1-0.7,0l-2.3-1.3
		c-0.2-0.1-0.2-0.3-0.1-0.4l6.5-3.8C696.8,453.8,697.1,453.8,697.3,453.9z"/>
	<path class="st28" d="M653.2,479.4l2.3,1.3c0.2,0.1,0.2,0.3,0.1,0.4l-3.2,1.9c-0.2,0.1-0.5,0.1-0.8,0l-2.3-1.3
		c-0.2-0.1-0.2-0.3-0.1-0.4l3.2-1.9C652.7,479.3,652.9,479.3,653.2,479.4z"/>
	<path class="st28" d="M710.3,461.5l1.1,0.6c0.2,0.1,0.2,0.3,0.1,0.4l-47.3,27.3c-0.2,0.1-0.5,0.1-0.8,0l-1.1-0.6
		c-0.2-0.1-0.2-0.3-0.1-0.4l47.3-27.3C709.8,461.4,710.1,461.4,710.3,461.5z"/>
	<polygon id="_x3C_Tracé_x3E__1_" class="st29" points="669.1,454.1 677.5,459 677.2,459.2 662.7,467.6 654.5,462.9 654.2,462.7 	
"/>
	<polygon id="_x3C_Tracé_x3E__2_" class="st30" points="669.1,454.5 677.2,459.2 662.7,467.6 654.5,462.9 "/>
	<path id="_x3C_Tracé_x3E__3_" class="st30" d="M662.7,492.1l55.2-31.8v0.7c0,1.1-0.6,2.1-1.5,2.6l-52.2,30.1
		c-0.5,0.3-1,0.4-1.5,0.4s-1-0.1-1.5-0.4l-28.8-16.6c-0.9-0.5-1.5-1.5-1.5-2.6v-0.8L662.7,492.1z"/>
	<path id="_x3C_Tracé_x3E__4_" class="st18" d="M669.6,455.9c0.1-0.8,0.6-1.5,1.3-1.9l54-31.2c0.7,0.7,1,1.6,1,2.5
		c0,0.2,0,0.4,0,0.6l-5.7,33.9c-0.2,1-0.8,1.9-1.7,2.5l-51.9,30c-0.9,0.5-2.3,0.6-3.3,0.2L669.6,455.9z"/>
	<path id="_x3C_Tracé_x3E__5_" class="st30" d="M668.8,455.3c0.1-0.8,0.6-1.4,1.3-1.8l54.1-31.2c0.3,0.2,0.5,0.3,0.7,0.5l-54,31.2
		c-0.7,0.4-1.1,1.1-1.3,1.9l-6.1,36.7c-0.2-0.1-0.3-0.1-0.5-0.2l-0.4-0.2L668.8,455.3z"/>
</g>
<g id="PLANTE">
	<ellipse class="st31" cx="768.6" cy="454.5" rx="7.5" ry="4.3"/>
	<ellipse class="st26" cx="769.7" cy="453.7" rx="7.5" ry="4.3"/>
	<polygon class="st26" points="759.7,439 762.3,454 777.1,454 779.7,439.1 "/>
	<ellipse class="st32" cx="769.7" cy="438.8" rx="10" ry="5.8"/>
	<path class="st33" d="M769.7,443.3c-2.2,0-4.5-0.5-6.4-1.5c-1.5-0.8-2.3-1.9-2.3-3s0.8-2.2,2.3-3c4-2,8.8-2,12.9,0
		c1.5,0.8,2.3,1.9,2.3,3s-0.8,2.2-2.3,3C774.1,442.8,771.9,443.4,769.7,443.3z"/>
	<path class="st34" d="M774,434.3c0.3-3.9-1.3-7.8-4.2-10.4l0,0l0,0l0,0c-3,2.6-4.5,6.5-4.2,10.4l-5.7-0.5c2.4,9.1,10,8.3,10,8.3
		l0,0c0.6,0,7.6,0.4,9.9-8.3L774,434.3z"/>
	<path class="st35" d="M769.8,442.1c0,0-0.5-7.1-10-11.8C759.7,430.2,757.5,442,769.8,442.1z"/>
	<path class="st35" d="M769.7,442.1c0,0,0.6-7.1,10-11.8C779.7,430.2,782,442,769.7,442.1z"/>
</g>
<g id="TASSE">
	<path class="st26" d="M754.4,576.2v-16.3l-22.2-0.2v15.8c-0.4,1.9,0.6,3.9,3.2,5.4c4.9,2.5,10.8,2.5,15.7,0
		C753.3,579.5,754.4,577.9,754.4,576.2z"/>
	<ellipse class="st32" cx="743.3" cy="559.9" rx="11.1" ry="6.4"/>
	<path class="st33" d="M752.7,559.9c0,1.1-0.9,2.1-2.4,3c-1.9,1-4.1,1.6-6.3,1.6h-0.7c-2.4,0-4.8-0.5-7-1.6c-1.5-0.9-2.4-2-2.4-3
		c0-1.1,0.9-2.1,2.4-3c2.2-1.1,4.6-1.7,7-1.6h0.7c2.2,0,4.3,0.6,6.3,1.6C751.8,557.7,752.7,558.8,752.7,559.9z"/>
	<path class="st36" d="M752.7,567l-2.4-1.4l-1.1,0.7l1.1,0.7v0.4l2.2,1.2l-0.1,0.4c0.5,0.8,1,1.6,1.5,2.4l0.1-0.1v5.5
		c0,1.5-0.9,1-1.2,0.7l-2.5-1.3l-1.1,0.7l1.1,0.6v0.4l2.5,1.4c0.3,0.1,0.5,0.3,0.8,0.4l0.1,0.7l1-0.7l0,0c0.6-0.5,0.8-1.2,0.8-1.9
		V572C755.4,570,754.4,568.2,752.7,567z"/>
	<path class="st37" d="M751.7,580.1l-2.5-1.4v-1.8l2.5,1.4c0.4,0.2,1.2,0.7,1.2-0.7v-5.8c-0.1-1-0.6-1.9-1.4-2.5l-2.3-1.2v-1.8
		l2.4,1.4c1.7,1.2,2.7,3,2.9,5v5.8C754.5,580,753.7,581.3,751.7,580.1z"/>
</g>
<g id="HOMME-ASSIS_1_">
	<g>
		<polygon class="st26" points="606.4,681.3 543.8,645.2 606.4,609.1 668.9,645.2 "/>
		<polygon class="st38" points="606.4,753.5 543.8,717.4 543.8,645.2 606.4,681.3 "/>
		<polygon class="st39" points="668.9,717.4 606.4,753.5 606.4,681.3 668.9,645.2 "/>
	</g>
	<g id="HOMME_1_">
		<path class="st40" d="M690.4,694.7c5.4,1.5,11.2,0.8,16.1-2c3.9,0,24.9-8.9,27.8-1.3c2.5,6.7-6.6,12.8-11.5,14
			c-10.6,2.7-18.5,7.9-22.8,8.8c-3.2,0.7-7.3,1.1-9.9-1.4C687.2,709.7,687.5,698.6,690.4,694.7z"/>
		<path d="M700.1,712.3c4.3-0.9,12.1-6.2,22.8-8.8c4.1-1,11.1-5.4,11.8-10.9c1,6.1-7.3,11.5-11.8,12.6c-10.6,2.7-18.5,7.9-22.8,8.8
			c-3.2,0.7-7.3,1.1-9.9-1.4c-0.6-0.7-1.1-1.6-1.4-2.6C692,712.6,696.2,713.4,700.1,712.3z"/>
		<path class="st40" d="M652.4,674.5c5.4,1.5,11.2,0.8,16.1-2c3.9,0,24.9-8.9,27.8-1.3c2.5,6.7-6.6,12.8-11.5,14
			c-10.6,2.6-18.5,7.9-22.8,8.8c-3.2,0.7-7.3,1.1-9.8-1.4C649.2,689.5,649.5,678.4,652.4,674.5z"/>
		<path d="M662.1,692.1c4.3-0.9,12.2-6.2,22.8-8.8c4.1-1,11.1-5.4,11.8-10.9c1,6.1-7.3,11.5-11.8,12.6c-10.6,2.6-18.5,7.9-22.8,8.8
			c-3.2,0.7-7.3,1.1-9.8-1.4c-0.7-0.7-1.1-1.6-1.4-2.6C654,692.4,658.2,693.2,662.1,692.1z"/>
		<path class="st41" d="M593.3,648.2c16.3,7.2,31.9,8.4,44.6,1.5l13.1-7.5c0.8,16.9,1.5,33.1,1.5,33.1s10,7.6,17.9,0.8
			c0,0,1.6-23.7,3.3-47l13.7-7.9c-0.3,1.2-0.5,2.5-0.5,3.8c0,4.5,3.2,70.3,3.2,70.3s10.1,6,17.9-0.8c0,0,5.3-76.3,6.5-88.5
			c1.4-13.7-13.9-20.5-23.5-16.9c-2.3,0.8-7.8,2.9-14.7,5.4c0.3-3.8,0.5-6.8,0.7-8.5c1.4-13.7-13.8-20.5-23.5-17
			c-8.8,3.2-68.1,25.6-68.1,25.6c0.4,5.7,1.1,11.4,2.1,17l-23.4-2C562.6,631.6,576.9,641,593.3,648.2z M634.2,610.2l15.7-9
			c-0.3,1.1-0.4,2.2-0.5,3.4L634.2,610.2z"/>
		<g>
			<g>
				<g>
					<g>
						<defs>
							<path id="SVGID_7_" d="M705.2,563.8c64.8,59.7,20.7,91,20.7,91l-134.7-72.7C591.2,582.1,640.4,504.1,705.2,563.8z"/>
						</defs>
						<clipPath id="SVGID_8_">
							<use xlink:href="#SVGID_7_"  style="overflow:visible;"/>
						</clipPath>
						<g id="TABLE-PLATEAU_1_" class="st42">
							<path id="dessous_1_" class="st24" d="M992.3,542.1L755.8,405L547.2,526.4l-7.4-4.3v8.6l243.9,141.5l216-125.7v-8.6
								L992.3,542.1z"/>
							<polygon id="dessus_1_" class="st25" points="783.7,663.6 539.7,522.1 755.8,396.4 999.7,537.9 "/>
						</g>
					</g>
				</g>
			</g>
		</g>
		<path class="st17" d="M551.2,542.8c0,0,1.9,29.1,5.8,33.3c3.8,4.2,16.7,7.1,16.7,7.1l9.9,16.3c0,0-9.1-52-11-53.2
			C570.7,545,551.2,542.8,551.2,542.8z"/>
		<path id="_x3C_Tracé_x3E__52_" class="st2" d="M570.3,510.5c-5-2.3-11-0.5-13.8,4.2c-3.7,6.1-7.5,26.9-7.8,30.4
			c0,0,5.1,7.1,12.8,5.9L570.3,510.5z"/>
		<path id="_x3C_Tracé_x3E__51_" class="st17" d="M573.8,510.8c5,0.2,8.8,1.5,9.4,0c0.5-2.6,0.9-5.2,1.1-7.8c-0.6-1.5-1.1-3-1.1-3
			c-6.3-3.9-8.3-10.9-9.1-18.7c-1.4-13.6,5.9-25.5,19.5-26.9c12.8-1.3,22.2,7.7,24.7,20c1.3,6.1,4,17.6,0.4,27.6
			c-2,5.6-4.7,10-7.3,10.9c-2.5-0.1-5.1-0.3-7.6-0.7l0,0c0,0-0.7,3.8-1.1,6.2c-0.5,2.4-0.3,3.7,4.5,6.7s-7.3,9.1-15.2,8.5
			s-16.8-5.4-19.3-10.5C570.1,517.4,570.4,510.5,573.8,510.8z"/>
		<g id="ORDI_1_">
			<g id="_x3C_Tracé_x3E__45_">
				<path id="_x3C_Tracé_x3E__50_" class="st30" d="M720.2,563.1L720.2,563.1c0,1.3-0.7,2.4-1.7,3.1L685,585.5
					c-1.1,0.6-2.4,0.6-3.6,0l-46.9-27.1c-1.1-0.6-1.7-1.8-1.7-3v-0.3L720.2,563.1z"/>
				<path id="_x3C_Tracé_x3E__49_" class="st30" d="M718.3,566.1l-33.4,19.2c-0.5,0.3-1.1,0.4-1.8,0.4V563h37
					C720.2,564.3,719.5,565.5,718.3,566.1z"/>
				<path id="_x3C_Tracé_x3E__48_" class="st18" d="M684.4,583.7c-0.8,0.4-1.7,0.4-2.5,0l-48.6-28.1c-0.6-0.3-0.6-1,0-1.3
					l35.8-20.7l51,29.4L684.4,583.7z"/>
				<polygon id="_x3C_Tracé_x3E__47_" class="st29" points="653.2,563.1 653.5,563.2 669,572.2 677.6,567.3 677.8,567.1 662,558 
	"/>
				<polygon id="_x3C_Tracé_x3E__46_" class="st30" points="653.5,563.2 669,572.2 677.6,567.3 662,558.3 "/>
				<path class="st43" d="M706.9,564.6l2.4,1.3c0.3,0.1,0.5,0.1,0.7,0l2.2-1.2c0.2-0.1,0.3-0.3,0-0.4l-2.4-1.3
					c-0.3-0.1-0.5-0.1-0.7,0l-2.2,1.2C706.8,564.2,706.8,564.4,706.9,564.6z"/>
				<path class="st43" d="M703.7,562.7l2.4,1.3c0.3,0.1,0.5,0.1,0.7,0l2.2-1.2c0.2-0.1,0.3-0.3,0-0.4l-2.4-1.3
					c-0.3-0.1-0.5-0.1-0.7,0l-2.2,1.2C703.5,562.4,703.5,562.6,703.7,562.7z"/>
				<path class="st43" d="M700.5,560.9l2.4,1.3c0.3,0.1,0.5,0.1,0.7,0l2.2-1.2c0.2-0.2,0.3-0.3,0-0.4l-2.3-1.3
					c-0.3-0.1-0.5-0.1-0.7,0l-2.2,1.2C700.4,560.6,700.3,560.7,700.5,560.9z"/>
				<path class="st43" d="M697.3,559l2.4,1.3c0.3,0.1,0.5,0.1,0.7,0l2.2-1.2c0.2,0,0.3-0.3,0-0.4l-2.4-1.3c-0.3-0.1-0.5-0.1-0.7,0
					l-2.2,1.2C697.1,558.7,697.1,558.9,697.3,559z"/>
				<path class="st43" d="M694.1,557.2l2.4,1.3c0.3,0.1,0.5,0.1,0.7,0l2.2-1.2c0.2-0.1,0.3-0.3,0-0.4l-2.4-1.3
					c-0.3-0.1-0.5-0.1-0.7,0l-2.1,1.2C694,556.9,694,557.1,694.1,557.2z"/>
				<path class="st43" d="M691,555.3l2.4,1.3c0.3,0.1,0.5,0.1,0.7,0l2.2-1.2c0.2,0,0.3-0.3,0-0.4l-2.4-1.3c-0.3-0.1-0.5-0.1-0.7,0
					l-2.2,1.2C690.8,555.1,690.8,555.3,691,555.3z"/>
				<path class="st43" d="M687.8,553.5l2.4,1.3c0.3,0.1,0.5,0.1,0.7,0l2.2-1.2c0.2-0.1,0.3-0.3,0-0.4l-2.3-1.3
					c-0.3-0.1-0.5-0.1-0.7,0l-2.2,1.2C687.7,553.2,687.7,553.4,687.8,553.5z"/>
				<path class="st43" d="M684.6,551.7l2.4,1.3c0.3,0.1,0.5,0.1,0.7,0l2.2-1.2c0.2-0.2,0.2-0.3,0-0.4l-2.4-1.3
					c-0.3-0.1-0.5-0.1-0.7,0l-2.2,1.2C684.5,551.4,684.4,551.4,684.6,551.7z"/>
				<path class="st43" d="M681.4,549.9l2.4,1.3c0.3,0.1,0.5,0.1,0.7,0l2.2-1.2c0.2-0.1,0.3-0.3,0-0.4l-2.4-1.3
					c-0.3-0.1-0.5-0.1-0.7,0l-2.1,1.2C681.2,549.5,681.2,549.7,681.4,549.9z"/>
				<path class="st43" d="M678.2,547.9l2.4,1.3c0.3,0.1,0.5,0.1,0.7,0l2.2-1.2c0.2-0.1,0.3-0.3,0-0.4l-2.4-1.3
					c-0.3-0.1-0.5-0.1-0.7,0l-2.2,1.2C678.2,547.7,678,547.9,678.2,547.9z"/>
				<path class="st43" d="M675.1,546.1l2.4,1.3c0.3,0.1,0.5,0.1,0.7,0l2.2-1.2c0.2-0.1,0.3-0.3,0-0.4l-2.3-1.3
					c-0.3-0.1-0.5-0.1-0.7,0l-2.2,1.2C674.9,545.9,674.9,546,675.1,546.1z"/>
				<path class="st43" d="M671.8,544.4l2.4,1.3c0.3,0.1,0.5,0.1,0.7,0l2.2-1.2c0.2-0.1,0.2-0.3,0-0.4l-2.4-1.3
					c-0.3-0.1-0.5-0.1-0.7,0l-2.2,1.2C671.7,544,671.7,544.2,671.8,544.4z"/>
				<path class="st43" d="M668.7,542.5l2.4,1.3c0.3,0.1,0.5,0.1,0.7,0l2.2-1.2c0.2-0.2,0.3-0.3,0-0.4l-2.4-1.3
					c-0.3-0.1-0.5-0.1-0.7,0l-2.1,1.2C668.5,542.2,668.5,542.4,668.7,542.5z"/>
				<path class="st43" d="M664,539.7l3.7,2.2c0.3,0.1,0.5,0.1,0.7,0l2.2-1.2c0.2-0.1,0.3-0.3,0-0.4l-3.7-2.2c-0.3-0.1-0.5-0.1-0.7,0
					l-2.2,1.2C663.8,539.5,663.7,539.7,664,539.7z"/>
				<path class="st43" d="M699.1,563.6l2.4,1.3c0.3,0.1,0.5,0.1,0.7,0l2.2-1.2c0.2-0.1,0.3-0.3,0-0.4L702,562
					c-0.3-0.1-0.5-0.1-0.7,0l-2.2,1.2C698.9,563.3,698.9,563.4,699.1,563.6z"/>
				<path class="st43" d="M695.9,561.7l2.4,1.3c0.3,0.1,0.5,0.1,0.7,0l2.1-1.2c0.2-0.1,0.3-0.3,0-0.4l-2.4-1.3
					c-0.3-0.1-0.5-0.1-0.7,0l-2.2,1.2C695.7,561.4,695.7,561.6,695.9,561.7z"/>
				<path class="st43" d="M692.7,559.9l2.4,1.3c0.3,0.1,0.5,0.1,0.7,0l2.1-1.2c0.2-0.1,0.3-0.3,0-0.4l-2.4-1.3
					c-0.3-0.1-0.5-0.1-0.7,0l-2.2,1.2C692.6,559.6,692.5,559.8,692.7,559.9z"/>
				<path class="st43" d="M689.5,558l2.3,1.3c0.3,0.1,0.5,0.1,0.7,0l2.1-1.2c0.2-0.1,0.3-0.3,0-0.4l-2.4-1.3c-0.3-0.1-0.5-0.1-0.7,0
					l-2.2,1.2C689.3,557.8,689.3,558,689.5,558z"/>
				<path class="st43" d="M686.4,556.2l2.4,1.3c0.3,0.1,0.5,0.1,0.7,0l2.1-1.2c0.2,0,0.3-0.3,0-0.4l-2.4-1.3c-0.3-0.1-0.5-0.1-0.7,0
					l-2.2,1.2C686.2,556,686.1,556.2,686.4,556.2z"/>
				<path class="st43" d="M683.2,554.4l2.4,1.3c0.3,0.1,0.5,0.1,0.7,0l2.1-1.2c0.2-0.1,0.3-0.3,0-0.4l-2.4-1.3
					c-0.3-0.1-0.5-0.1-0.7,0l-2.2,1.2C682.9,554.1,682.9,554.3,683.2,554.4z"/>
				<path class="st43" d="M679.9,552.6l2.4,1.3c0.3,0.1,0.5,0.1,0.7,0l2.1-1.2c0.2-0.1,0.3-0.3,0-0.4l-2.4-1.3
					c-0.3-0.1-0.5-0.1-0.7,0l-2.2,1.2C679.8,552.3,679.8,552.5,679.9,552.6z"/>
				<path class="st43" d="M676.8,550.7l2.3,1.3c0.3,0.1,0.5,0.1,0.7,0l2.2-1.2c0.2-0.1,0.2-0.3,0-0.4l-2.4-1.3
					c-0.3-0.1-0.5-0.1-0.7,0l-2.2,1.2C676.6,550.4,676.6,550.6,676.8,550.7z"/>
				<path class="st43" d="M673.6,548.9l2.4,1.3c0.3,0.1,0.5,0.1,0.7,0l2.2-1.2c0.2-0.1,0.2-0.3,0-0.4l-2.3-1.3
					c-0.3-0.1-0.5-0.1-0.7,0l-2.2,1.2C673.5,548.6,673.5,548.7,673.6,548.9z"/>
				<path class="st43" d="M670.3,547l2.4,1.3c0.3,0.1,0.5,0.1,0.7,0l2.2-1.2c0.2-0.1,0.2-0.3,0-0.4l-2.4-1.3c-0.3-0.1-0.5-0.1-0.7,0
					l-2.2,1.2C670.3,546.7,670.2,546.9,670.3,547z"/>
				<path class="st43" d="M667.2,545.2l2.4,1.3c0.3,0.1,0.5,0.1,0.7,0l2.2-1.2c0.2-0.2,0.2-0.3,0-0.4l-2.4-1.3
					c-0.3-0.1-0.5-0.1-0.7,0l-2.2,1.2C667,544.9,667,545.1,667.2,545.2z"/>
				<path class="st43" d="M664,543.3l2.4,1.3c0.3,0.1,0.5,0.1,0.7,0l2.2-1.2c0.2-0.2,0.3-0.3,0-0.4l-2.4-1.3c-0.3-0.1-0.5-0.1-0.7,0
					l-2.2,1.2C663.8,543.1,663.8,543.2,664,543.3z"/>
				<path class="st43" d="M702.3,565.5l3.7,2.2c0.3,0.1,0.5,0.1,0.7,0l2.2-1.2c0.2-0.2,0.3-0.3,0-0.4l-3.7-2.2
					c-0.3-0.1-0.5-0.1-0.7,0l-2.2,1.2C702.1,565.2,702.1,565.3,702.3,565.5z"/>
				<path class="st43" d="M663.7,539.8l2.4,1.3c0.1,0,0.2,0.1,0.2,0.2s-0.1,0.2-0.2,0.2l-2.4,1.3c-0.2,0.1-0.4,0.1-0.7,0l-0.2-0.1
					c-0.2-0.1-0.4-0.1-0.6,0l-2.4,1.4c-0.2,0.1-0.4,0.1-0.7,0l-1.5-0.9c-0.2-0.1-0.2-0.3,0-0.3l2.4-1.3l0.4-0.3l0.3-0.2l0.3-0.2
					l1.9-1.1C663.4,539.8,663.6,539.8,663.7,539.8z"/>
				<path class="st43" d="M694.6,571.6l2.4,1.3c0.3,0.1,0.5,0.1,0.7,0l2.2-1.2c0.2-0.2,0.3-0.3,0-0.4l-2.3-1.3
					c-0.3-0.1-0.5-0.1-0.7,0l-2.2,1.2C694.4,571.4,694.4,571.5,694.6,571.6z"/>
				<path class="st43" d="M691.3,569.8l2.4,1.3c0.3,0.1,0.5,0.1,0.7,0l2.1-1.2c0.2,0,0.3-0.3,0-0.4l-2.4-1.3c-0.3-0.1-0.5-0.1-0.7,0
					l-2.2,1.2C691.2,569.5,691.2,569.7,691.3,569.8z"/>
				<path class="st43" d="M688.2,568l2.4,1.3c0.3,0.1,0.5,0.1,0.7,0l2.2-1.2c0.2-0.1,0.3-0.3,0-0.4l-2.4-1.3c-0.3-0.1-0.5-0.1-0.7,0
					l-2.2,1.2C688,567.7,688,568,688.2,568z"/>
				<path class="st43" d="M661.1,552.4l2.4,1.3c0.3,0.1,0.5,0.1,0.7,0l2.2-1.2c0.2,0,0.3-0.3,0-0.4l-2.4-1.3c-0.3-0.1-0.5-0.1-0.7,0
					l-2.1,1.2C660.9,552,660.9,552.3,661.1,552.4z"/>
				<path class="st43" d="M658,550.6l2.4,1.3c0.3,0.1,0.5,0.1,0.7,0l2.1-1.2c0.2-0.1,0.3-0.3,0-0.4l-2.4-1.3c-0.3-0.1-0.5-0.1-0.7,0
					l-2.2,1.2C657.8,550.3,657.7,550.4,658,550.6z"/>
				<path class="st43" d="M654.8,548.7l2.4,1.3c0.3,0.1,0.5,0.1,0.7,0l2.2-1.2c0.2-0.2,0.3-0.3,0-0.4l-2.4-1.3
					c-0.3-0.1-0.5-0.1-0.7,0l-2.2,1.2C654.6,548.4,654.6,548.6,654.8,548.7z"/>
				<path class="st43" d="M651.6,546.9l2.4,1.3c0.3,0.1,0.5,0.1,0.7,0l2.2-1.2c0.2-0.1,0.3-0.3,0-0.4l-2.4-1.3
					c-0.3-0.1-0.5-0.1-0.7,0l-2.1,1.2C651.5,546.6,651.5,546.7,651.6,546.9z"/>
				<path class="st43" d="M684.2,565.6l3,1.7c0.3,0.1,0.5,0.1,0.7,0l2.2-1.2c0.2-0.1,0.3-0.3,0-0.4l-3-1.7c-0.3-0.1-0.5-0.1-0.7,0
					l-2.2,1.2C684,565.4,684,565.6,684.2,565.6z"/>
				<path class="st43" d="M664.3,554.2l3,1.7c0.3,0.1,0.5,0.1,0.7,0l2.2-1.2c0.2-0.1,0.3-0.3,0-0.4l-3-1.7c-0.3-0.1-0.5-0.1-0.7,0
					l-2.2,1.2C664.2,553.9,664.1,554.1,664.3,554.2z"/>
				<path class="st43" d="M668.3,556.5l15,8.6c0.3,0.1,0.5,0.1,0.7,0l2.2-1.2c0.2-0.1,0.3-0.3,0-0.4l-15-8.6c-0.3-0.1-0.5-0.1-0.7,0
					l-2.2,1.2C668.2,556.2,668.1,556.4,668.3,556.5z"/>
				<path class="st43" d="M695.2,564.8l2.4,1.3c0.3,0.1,0.5,0.1,0.7,0l2.2-1.2c0.2-0.1,0.3-0.3,0-0.4l-2.3-1.3
					c-0.3-0.1-0.5-0.1-0.7,0l-2.2,1.2C695,564.6,694.9,564.8,695.2,564.8z"/>
				<path class="st43" d="M691.9,563l2.4,1.3c0.3,0.1,0.5,0.1,0.7,0l2.1-1.2c0.2-0.1,0.3-0.3,0-0.4l-2.4-1.3c-0.3-0.1-0.5-0.1-0.7,0
					l-2.2,1.2C691.8,562.8,691.8,562.9,691.9,563z"/>
				<path class="st43" d="M688.8,561.2l2.4,1.3c0.3,0.1,0.5,0.1,0.7,0l2.2-1.2c0.2-0.1,0.3-0.3,0-0.4l-2.4-1.3
					c-0.3-0.1-0.5-0.1-0.7,0l-2.2,1.2C688.6,560.9,688.6,561.1,688.8,561.2z"/>
				<path class="st43" d="M685.6,559.4l2.4,1.3c0.3,0.1,0.5,0.1,0.7,0l2.2-1.2c0.2-0.1,0.3-0.3,0-0.4l-2.4-1.3
					c-0.3-0.1-0.5-0.1-0.7,0l-2.2,1.2C685.4,559.1,685.4,559.3,685.6,559.4z"/>
				<path class="st43" d="M682.4,557.5l2.4,1.3c0.3,0.1,0.5,0.1,0.7,0l2.2-1.2c0.2-0.2,0.3-0.3,0-0.4l-2.4-1.3
					c-0.3-0.1-0.5-0.1-0.7,0l-2.2,1.2C682.3,557.3,682.2,557.4,682.4,557.5z"/>
				<path class="st43" d="M679.2,555.7l2.4,1.3c0.3,0.1,0.5,0.1,0.7,0l2.2-1.2c0.2-0.1,0.3-0.3,0-0.4l-2.4-1.3
					c-0.3-0.1-0.5-0.1-0.7,0l-2.2,1.2C679.1,555.3,679.1,555.6,679.2,555.7z"/>
				<path class="st43" d="M676,553.9l2.4,1.3c0.3,0.1,0.5,0.1,0.7,0l2.1-1.2c0.2,0,0.3-0.3,0-0.4l-2.4-1.3c-0.3-0.1-0.5-0.1-0.7,0
					l-2.2,1.2C675.8,553.6,675.8,553.9,676,553.9z"/>
				<path class="st43" d="M672.9,552l2.4,1.3c0.3,0.1,0.5,0.1,0.7,0l2.2-1.2c0.2-0.1,0.3-0.3,0-0.4l-2.4-1.3c-0.3-0.1-0.5-0.1-0.7,0
					l-2.2,1.2C672.7,551.7,672.7,552,672.9,552z"/>
				<path class="st43" d="M669.7,550.1l2.3,1.3c0.3,0.1,0.5,0.1,0.7,0l2.2-1.2c0.2-0.1,0.3-0.3,0-0.4l-2.4-1.3
					c-0.3-0.1-0.5-0.1-0.7,0l-2.2,1.2C669.5,549.9,669.5,550,669.7,550.1z"/>
				<path class="st43" d="M666.5,548.4l2.4,1.3c0.3,0.1,0.5,0.1,0.7,0l2.2-1.2c0.2-0.1,0.3-0.3,0-0.4l-2.3-1.3
					c-0.3-0.1-0.5-0.1-0.7,0l-2.2,1.2C666.3,548,666.3,548.2,666.5,548.4z"/>
				<path class="st43" d="M663.3,546.5l2.4,1.3c0.3,0.1,0.5,0.1,0.7,0l2.2-1.2c0.2-0.1,0.3-0.3,0-0.4l-2.4-1.3
					c-0.3-0.1-0.5-0.1-0.7,0l-2.2,1.2C663.1,546.2,663.1,546.4,663.3,546.5z"/>
				<path class="st43" d="M660.2,544.6l2.4,1.3c0.3,0.1,0.5,0.1,0.7,0l2.1-1.2c0.2-0.2,0.3-0.3,0-0.4L663,543
					c-0.3-0.1-0.5-0.1-0.7,0l-2.2,1.2C660,544.4,659.9,544.5,660.2,544.6z"/>
				<path class="st43" d="M698.3,566.7l4.7,2.7c0.3,0.1,0.5,0.1,0.7,0l2.2-1.2c0.2-0.1,0.3-0.3,0-0.4l-4.7-2.7
					c-0.3-0.1-0.5-0.1-0.7,0l-2.1,1.2C698.1,566.4,698.1,566.6,698.3,566.7z"/>
				<path class="st43" d="M693.6,567.5l2.4,1.3c0.3,0.1,0.5,0.1,0.7,0l2.2-1.2c0.2-0.1,0.3-0.3,0-0.4l-2.3-1.3
					c-0.3-0.1-0.5-0.1-0.7,0l-2.2,1.2C693.4,567.3,693.4,567.5,693.6,567.5z"/>
				<path class="st43" d="M690.5,565.6l2.4,1.3c0.3,0.1,0.5,0.1,0.7,0l2.2-1.2c0.2-0.1,0.3-0.3,0-0.4l-2.4-1.3
					c-0.3-0.1-0.5-0.1-0.7,0l-2.1,1.2C690.3,565.5,690.3,565.6,690.5,565.6z"/>
				<path class="st43" d="M687.2,563.9l2.4,1.3c0.3,0.1,0.5,0.1,0.7,0l2.2-1.2c0.2,0,0.3-0.3,0-0.4l-2.4-1.3c-0.3-0.1-0.5-0.1-0.7,0
					l-2.2,1.2C687.1,563.6,687.1,563.8,687.2,563.9z"/>
				<path class="st43" d="M684.1,562.1l2.4,1.3c0.3,0.1,0.5,0.1,0.7,0l2.2-1.2c0.2-0.1,0.2-0.3,0-0.4l-2.4-1.3
					c-0.3-0.1-0.5-0.1-0.7,0l-2.2,1.2C683.9,561.8,683.8,562,684.1,562.1z"/>
				<path class="st43" d="M680.9,560.2l2.3,1.3c0.3,0.1,0.5,0.1,0.7,0l2.2-1.2c0.2-0.2,0.3-0.3,0-0.4l-2.4-1.3
					c-0.3-0.1-0.5-0.1-0.7,0l-2.2,1.2C680.7,560,680.7,560.1,680.9,560.2z"/>
				<path class="st43" d="M677.8,558.4l2.4,1.3c0.3,0.1,0.5,0.1,0.7,0l2.1-1.2c0.2-0.1,0.3-0.3,0-0.4l-2.4-1.3
					c-0.3-0.1-0.5-0.1-0.7,0l-2.2,1.2C677.6,558,677.5,558.3,677.8,558.4z"/>
				<path class="st43" d="M674.5,556.6l2.4,1.3c0.3,0.1,0.5,0.1,0.7,0l2.2-1.2c0.2-0.1,0.3-0.3,0-0.4l-2.4-1.3
					c-0.3-0.1-0.5-0.1-0.7,0l-2.1,1.2C674.4,556.2,674.4,556.4,674.5,556.6z"/>
				<path class="st43" d="M671.4,554.7l2.4,1.3c0.3,0.1,0.5,0.1,0.7,0l2.2-1.2c0.2-0.2,0.3-0.3,0-0.4l-2.4-1.3
					c-0.3-0.1-0.5-0.1-0.7,0l-2.2,1.2C671.1,554.4,671.1,554.6,671.4,554.7z"/>
				<path class="st43" d="M668.2,552.9l2.3,1.3c0.3,0.1,0.5,0.1,0.7,0l2.2-1.2c0.2-0.1,0.3-0.3,0-0.4l-2.4-1.3
					c-0.3-0.1-0.5-0.1-0.7,0l-2.2,1.2C668,552.6,668,552.7,668.2,552.9z"/>
				<path class="st43" d="M665,551.1l2.4,1.3c0.3,0.1,0.5,0.1,0.7,0l2.2-1.2c0.2-0.1,0.3-0.3,0-0.4l-2.3-1.3c-0.3-0.1-0.5-0.1-0.7,0
					l-2.2,1.2C664.9,550.7,664.8,550.9,665,551.1z"/>
				<path class="st43" d="M661.8,549.1l2.4,1.3c0.3,0.1,0.5,0.1,0.7,0l2.1-1.2c0.2-0.1,0.3-0.3,0-0.4l-2.4-1.3
					c-0.3-0.1-0.5-0.1-0.7,0l-2.2,1.2C661.6,548.9,661.6,549.1,661.8,549.1z"/>
				<path class="st43" d="M654.7,545.1l6.2,3.6c0.3,0.1,0.5,0.1,0.7,0l2.2-1.2c0.2,0,0.3-0.3,0-0.4l-6.2-3.6c-0.3-0.1-0.5-0.1-0.7,0
					l-2.2,1.2C654.6,544.8,654.6,545,654.7,545.1z"/>
				<path class="st43" d="M696.8,569.4l3,1.7c0.3,0.1,0.5,0.1,0.7,0l2.1-1.2c0.2-0.1,0.3-0.3,0-0.4l-3-1.7c-0.3-0.1-0.5-0.1-0.7,0
					l-2.2,1.2C696.7,569.1,696.7,569.3,696.8,569.4z"/>
			</g>
			<g id="_x3C_Tracé_x3E__36_">
				<path id="_x3C_Tracé_x3E__44_" class="st30" d="M720.2,563.1L720.2,563.1l-51-29.4v-40.1l0.4-0.9l0.4-0.2l0,0
					c1.1-0.6,2.4-0.6,3.5,0l46.7,27c1.1,0.6,1.7,1.8,1.7,3v37.6C721.6,562,721.2,562.5,720.2,563.1z"/>
				<path id="_x3C_Tracé_x3E__43_" class="st30" d="M715.5,524.2L669,494.7v-1.3l0.4-0.9l0.4-0.2c1.1-0.6,2.4-0.6,3.5,0l46.7,27
					c0.6,0.3,1,0.8,1.3,1.4L715.5,524.2z"/>
				<path id="_x3C_Tracé_x3E__42_" class="st44" d="M670.3,492.6l49,28.4c0.5,0.3,0.9,0.9,0.9,1.5v40.8l-51-29.4v-40.4
					c0-0.4,0.3-0.8,0.8-0.8C670,492.4,670.1,492.5,670.3,492.6z"/>
				<path id="_x3C_Tracé_x3E__41_" class="st18" d="M670.3,492.6l49,28.4c0.5,0.3,0.9,0.9,0.9,1.5v40.8l-51-29.4v-40.4
					c0-0.4,0.3-0.8,0.8-0.8C670,492.4,670.1,492.5,670.3,492.6z"/>
				<polygon id="_x3C_Tracé_x3E__40_" class="st45" points="720.2,563.1 720.2,561.6 669,532.1 669,533.6 "/>
				<polygon id="_x3C_Tracé_x3E__39_" class="st45" points="670.3,531.5 670.3,494.6 671,495 671,531.1 "/>
				<polygon id="_x3C_Tracé_x3E__38_" class="st46" points="671,495 671,531.1 718.5,558.5 718.5,522.4 "/>
				<polygon id="_x3C_Tracé_x3E__37_" class="st18" points="670.3,531.5 718.5,559.2 718.5,558.5 671,531.1 "/>
				<g id="VIDEOPROJ-ON_2_">
					<polygon class="st26" points="677.6,505.7 673.5,503.4 673.5,501.8 677.6,504.1 "/>
					<polygon class="st26" points="686.4,510.8 679.3,506.7 679.3,505.1 686.4,509.2 "/>
					<polygon class="st26" points="677.6,508.6 673.5,506.3 673.5,504.7 677.6,507.1 "/>
					<polygon class="st26" points="686.4,513.7 679.3,509.6 679.3,508.1 686.4,512.2 "/>
					<polygon class="st26" points="677.6,512 673.5,509.7 673.5,508.1 677.6,510.5 "/>
					<polygon class="st26" points="686.4,517.1 679.3,513 679.3,511.5 686.4,515.6 "/>
					<polygon class="st26" points="677.6,515.4 673.5,513.1 673.5,511.5 677.6,513.8 "/>
					<polygon class="st26" points="686.4,520.5 679.3,516.4 679.3,514.8 686.4,519 "/>
					<path class="st47" d="M691.7,514.4c0.9-1.2,2.5-1.3,4.4-0.3c0.2,0.1,0.4,0.2,0.5,0.3L696,520L691.7,514.4L691.7,514.4z"/>
					<path class="st48" d="M700.8,520.7L696,520l0.5-5.6C698.5,515.8,700.1,518.2,700.8,520.7z"/>
					<path class="st49" d="M701.1,523c0,2.5-1.4,3.9-3.3,3.6L696,520l4.8,0.7C701,521.4,701.1,522.2,701.1,523z"/>
					<path class="st50" d="M691.7,514.4c-0.5,0.6-0.7,1.5-0.7,2.6c0,3.3,2.3,7.2,5.1,8.8c0.6,0.3,1.2,0.6,1.8,0.7L696,520
						L691.7,514.4L691.7,514.4z"/>
					<path class="st51" d="M705.8,522.6c0.9-1.2,2.5-1.3,4.4-0.3c0.2,0.1,0.4,0.2,0.5,0.3l-0.5,5.6L705.8,522.6L705.8,522.6z"/>
					<path class="st52" d="M714.9,528.8l-4.8-0.7l0.5-5.6C712.6,523.9,714.3,526.4,714.9,528.8z"/>
					<path class="st53" d="M715.3,531.1c0,2.5-1.4,3.9-3.3,3.6l-1.8-6.6l4.8,0.7C715.1,529.6,715.2,530.3,715.3,531.1z"/>
					<path class="st54" d="M705.8,522.6c-0.5,0.6-0.7,1.5-0.7,2.6c0,3.3,2.3,7.2,5.1,8.8c0.6,0.3,1.2,0.6,1.8,0.7l-1.8-6.6
						L705.8,522.6L705.8,522.6z"/>
					<path class="st55" d="M691.7,538.8c0,0,3.5-6.6,12.3,1.8c8.8,8.4,11,1.9,11,1.9"/>
					<ellipse transform="matrix(0.866 -0.5 0.5 0.866 -174.8851 421.506)" class="st26" cx="699.1" cy="537.1" rx="0.6" ry="1"/>
					<ellipse transform="matrix(0.866 -0.5 0.5 0.866 -175.7161 418.4067)" class="st26" cx="692.9" cy="537.1" rx="0.6" ry="1"/>
					
						<ellipse transform="matrix(0.867 -0.4983 0.4983 0.867 -176.3183 423.972)" class="st26" cx="706.1" cy="542.3" rx="0.6" ry="1"/>
					<ellipse transform="matrix(0.866 -0.5 0.5 0.866 -176.6347 429.5891)" class="st26" cx="713.3" cy="544.4" rx="0.6" ry="1"/>
					<polygon class="st26" points="674.9,529.4 673.5,528.6 673.5,523.8 674.9,524.6 "/>
					<polygon class="st26" points="678.7,531.7 677.3,530.8 677.3,524.3 678.7,525.1 "/>
					<polygon class="st26" points="682.6,533.9 681.2,533.1 681.2,523.8 682.6,524.5 "/>
					<polygon class="st26" points="686.4,536.1 685,535.3 685,523.7 686.4,524.5 "/>
				</g>
			</g>
		</g>
		<path id="_x3C_Tracé_x3E__35_" class="st18" d="M581.1,511.5c-1.4,3.5,2.2,7.7,11.6,10.7c9.4,3,10.3-0.8,10.3-0.8
			c6.3,2.8,12.4,6,18.4,9.4c5.7,4,8.1,15.4,8.9,34.8c0.9,22.4,1,55.7,0.2,61.4c0,0-10.6,10.6-24.2,9.5
			c-13.6-1.1-36.4-13.1-41.9-22.4c0-19.7,2.4-22.9-0.7-34.2c-7.3-25.9-11.1-36.5-7.6-53.8c2.9-14.2,7-16,12.6-15.8
			C572.9,510.5,577,510.9,581.1,511.5z"/>
		<path id="_x3C_Tracé_x3E__34_" class="st56" d="M652.7,589.7c-11.2,2.7-13.8-4.2-15.2-10c-3.5-14.1-5.4-26.8-8.1-34.8
			c-3.1-9.4-6.4-10.9-10.9-12.8c-5.4-2.1-10,2.4-8.1,14.4c2.2,13.9,5.6,27.6,10.2,40.9c1.4,4.4,4.5,12.2,9.1,15.9
			c5.8,4.6,14.4,4.5,27.5,1.2c5.4-1.4,11.7-4.7,22.3-9.7c2.7-1.3,5-2.2,10.5-4.7c5.5-2.4,10.3-6.2,14-10.9c2.9-4.1,3.2-6.1,2.7-7
			s-2-0.9-3.5,0.8c-2.2,3-5,5.5-8.1,7.4c0,0,3.5-3.6,5.4-6c1.7-2.1,3.1-4.4,4.2-6.9c1-2.4-1.1-5.7-2.7-4c-1.7,1.7-2.3,3.5-5.2,6.9
			c-1.5,1.8-3.2,3.5-5.2,4.9c1.8-2.4,3.4-5,4.8-7.7c1.2-2.1,1.8-4.5,1.7-6.9c0-1.3-1.8-2.7-3.5-0.4c-1.6,3.3-3.6,6.4-6,9.1
			c-2.6,2.7-4.7,4.2-4.8,3.4s1.5-2.2,2.4-5.2s0-6.4-1.7-6.7c-1.7-0.4-1.4-0.2-2.7,2.7c-1.9,3-3.6,6-5,9.2c-0.9,3-2.4,5.7-4.6,7.9
			C669.3,583.8,663.3,587.1,652.7,589.7z"/>
		<path class="st17" d="M686.8,587.4c0,0,9.3-5,13-6.4c5-1.8,10.2-4.8,12.7-7.4c0.9-0.9,2.2-2.1,2.6-2.7c1.5-2.1,1.4-4,0-2.9
			c-0.3,0.2-1.3,0.9-2.5,2.2c-2.1,2.2-5.4,2.5-5.4,2.5s3.2-1.4,5.7-3.6c2.2-1.9,3.9-4.5,3.6-6c-0.2-1.3-1-0.9-1-0.9s-1.2,0.8-3,2.9
			c-1.8,2.1-5.7,2.6-5.7,2.6s1.6-0.4,3.9-2.1c2.8-2.1,5.7-5.6,5.4-7c-0.2-1.1-1.1-1.4-2.4-0.2c-0.5,0.5-1,0.9-2,2.3
			c-2.6,3.8-8.8,5.5-8.8,5.5c0.4-0.3,2.9-0.7,4.7-3.1c2.1-2.7,4.2-4.6,3.5-5.7c-1.6-2.4-5.6,3.3-5.6,3.3s-8.6,5.4-11.5,6.3
			c-2.9,0.9,4.9-5,4.7-8.2s-1.2-5-2.2-4.7c-1,0.4-1.3,3.9-5,7.7c-1.1,1.1-5.1,7.3-5.6,9.2s-3.3,7-6.5,9c-3.1,2-17.2,7.1-25.7,7.2
			s-16,2.5-16.9-6.4s-4.1-23.4-5.5-25.9s-19.8,3.4-19.1,6.9s5,29,13.9,35.6c8.9,6.7,10.9,7.2,20.4,7.5S686.8,587.4,686.8,587.4z"/>
		<path id="_x3C_Tracé_x3E__33_" class="st2" d="M614.3,530.2c7.4-1.1,12.7,2.3,16,13.6s5.6,20.5,5.6,20.5c-3,4.2-7.4,7.1-12.5,8.1
			c-8.9,2.1-12.1-2.1-12.1-2.1s-2.5-11.8-4-19.9C605.8,542.5,605.1,531.6,614.3,530.2z"/>
		<path class="st57" d="M617.9,472.5c0,0,11.8-17.9-13.6-21.5c-18.4-2.7-30.2,9.2-31.5,22c-1.3,12.2,6.2,24.9,11.7,30
			c5.3,1.3,11,0.6,15.9-1.9c0.3-3.3,0.4-6.7,0.4-10C600.7,491,591.7,472.2,617.9,472.5z"/>
	</g>
	<g>
		<polygon class="st39" points="668.9,698.5 668.9,644.9 626.3,669.8 642.7,703.7 "/>
		<polygon class="st26" points="640.4,648.3 657.4,638.5 668.9,644.9 651.4,655.1 "/>
	</g>
</g>
<g id="TABLEAU">
	<polygon class="st58" points="1079.1,344.1 1080.6,343.3 1080,552.4 1078.5,553.3 "/>
	<polygon class="st59" points="806.5,186.7 808,185.8 1080.6,343.3 1079.1,344.1 "/>
	<polygon class="st60" points="1079.1,344.1 1078.5,553.3 805.9,395.8 806.5,186.7 "/>
	<path class="st61" d="M807.6,177.5c-0.8-0.4-2.7-0.5-3.9,0.2c-2.8,1.5-5,5.4-5,8.7c0,1.8,0.6,3,1.7,3.4h0.1l6,3l6.8-12.5
		L807.6,177.5z"/>
	<path class="st62" d="M809.9,180.8c2.8-1.6,5-0.4,5,2.9c0,3.1-2.3,7.1-5,8.7s-5,0.4-5-2.9S807.1,182.3,809.9,180.8"/>
	<path class="st63" d="M1074.3,344.9L809.8,192.2c-2.3-1.3-3-4.2-1.8-6.4c1.3-2.3,4.2-3,6.4-1.8l264.5,152.7c2.3,1.3,3,4.2,1.8,6.4
		C1079.3,345.4,1076.4,346.2,1074.3,344.9"/>
	<path class="st61" d="M799.1,386.3c-0.8-0.4-2.7-0.5-3.9,0.2c-2.8,1.5-5,5.4-5,8.7c0,1.8,0.6,3,1.7,3.4h0.1l6,3l6.8-12.5
		L799.1,386.3z"/>
	<path class="st62" d="M801.3,389.6c2.8-1.6,5-0.4,5,2.9c0,3.1-2.3,7.1-5,8.7s-5,0.4-5-2.9S798.5,391.1,801.3,389.6"/>
	<path class="st63" d="M1074.3,558.2L802.2,401.1c-2.3-1.3-3-4.2-1.8-6.4s4.2-3,6.4-1.8L1079,550c2.3,1.3,3,4.2,1.8,6.4
		C1079.3,558.7,1076.4,559.6,1074.3,558.2"/>
	<path class="st62" d="M1081.7,549.3c-0.8-0.4-2.7-0.5-3.9,0.2c-2.8,1.5-5,5.4-5,8.7c0,1.8,0.6,3,1.7,3.4h0.1l6,3l6.8-12.5
		L1081.7,549.3z"/>
	<path class="st61" d="M1084,552.7c2.8-1.6,5-0.4,5,2.9c0,3.1-2.3,7.1-5,8.7c-2.7,1.6-5,0.4-5-2.9S1081.2,554.2,1084,552.7"/>
	<path class="st62" d="M1081.7,335.9c-0.8-0.4-2.7-0.5-3.9,0.2c-2.8,1.5-5,5.4-5,8.7c0,1.8,0.6,3,1.7,3.4h0.1l6,3l6.8-12.5
		L1081.7,335.9z"/>
	<path class="st61" d="M1084,339.2c2.8-1.6,5-0.4,5,2.9c0,3.1-2.3,7.1-5,8.7s-5,0.4-5-2.9S1081.2,340.7,1084,339.2"/>
</g>
<g id="VIDEOPROJ-ON">
	<polygon class="st26" points="851.1,251.7 828,238.4 828,229.5 851.1,242.8 "/>
	<polygon class="st26" points="901.4,280.7 860.9,257.3 860.9,248.4 901.4,271.8 "/>
	<polygon class="st26" points="851.1,268.4 828,255.1 828,246.2 851.1,259.5 "/>
	<polygon class="st26" points="901.4,297.4 860.9,274.1 860.9,265.2 901.4,288.6 "/>
	<polygon class="st26" points="851.1,287.6 828,274.3 828,265.4 851.1,278.7 "/>
	<polygon class="st26" points="901.4,316.7 860.9,293.3 860.9,284.4 901.4,307.8 "/>
	<polygon class="st26" points="851.1,306.8 828,293.5 828,284.6 851.1,297.9 "/>
	<polygon class="st26" points="901.4,335.9 860.9,312.5 860.9,303.6 901.4,327 "/>
	<path class="st47" d="M931.3,301.1c5.1-6.6,14.2-7.6,24.7-1.6c1,0.6,2,1.2,3,1.9l-2.9,31.6l-24.8-31.7V301.1z"/>
	<path class="st48" d="M983.1,336.7l-27.1-3.8l3-31.6C970,309,979.3,322.9,983.1,336.7z"/>
	<path class="st49" d="M985,349.7c0,14.2-7.8,22-18.6,20.6L956,333l27.1,3.8C984.3,340.9,985,345.3,985,349.7z"/>
	<path class="st50" d="M931.2,301.2c-2.7,3.5-4.2,8.6-4.2,15c0,18.5,13,41,29,50.2c3.2,1.9,6.7,3.2,10.4,3.8L956,332.9L931.3,301
		L931.2,301.2z"/>
	<path class="st51" d="M1011.5,347.4c5.1-6.6,14.2-7.6,24.7-1.6c1,0.6,2,1.2,3,1.9l-3,31.6l-24.8-31.7L1011.5,347.4z"/>
	<path class="st52" d="M1063.3,383l-27.1-3.7l3-31.6C1050.2,355.3,1059.5,369.2,1063.3,383z"/>
	<path class="st53" d="M1065.2,396c0,14.2-7.8,22-18.6,20.5l-10.5-37.3l27.1,3.7C1064.5,387.2,1065.1,391.6,1065.2,396z"/>
	<path class="st54" d="M1011.4,347.5c-2.7,3.5-4.2,8.6-4.2,15c0,18.5,13,41,29,50.2c3.2,1.9,6.7,3.2,10.4,3.8l-10.5-37.3l-24.7-31.9
		L1011.4,347.5z"/>
	<path class="st64" d="M931.2,439.8c0,0,19.6-37.5,69.6,10.3c49.9,47.8,62.5,10.7,62.5,10.7"/>
	<ellipse transform="matrix(0.866 -0.5 0.5 0.866 -84.4446 544.436)" class="st26" cx="973.7" cy="429.8" rx="3.4" ry="5.9"/>
	<ellipse transform="matrix(0.866 -0.5 0.5 0.866 -89.1729 526.7836)" class="st26" cx="938.4" cy="429.8" rx="3.4" ry="5.9"/>
	
		<ellipse transform="matrix(0.867 -0.4983 0.4983 0.867 -94.2014 566.0368)" class="st26" cx="1013.3" cy="459.5" rx="3.4" ry="5.9"/>
	<ellipse transform="matrix(0.866 -0.5 0.5 0.866 -94.4495 590.0958)" class="st26" cx="1053.9" cy="471.3" rx="3.4" ry="5.9"/>
	<polygon class="st26" points="835.9,386.5 828,381.9 828,354.6 835.9,359.1 "/>
	<polygon class="st26" points="857.7,399.1 849.8,394.5 849.8,357.6 857.7,362.1 "/>
	<polygon class="st26" points="879.5,411.7 871.7,407.1 871.7,354.2 879.5,358.7 "/>
	<polygon class="st26" points="901.4,424.3 893.5,419.7 893.5,354 901.4,358.5 "/>
	<path class="st65" d="M849.8,493l220,46.5l2.9-187.8L811.3,200.8l0.7,194.6l26.5,82.4C838.6,477.7,839.8,490.9,849.8,493z"/>
</g>
<g id="VIDEOPROJ">
	<path class="st66" d="M847.6,486.8c0-4.1-2.9-9.2-6.5-11.2c-0.3-0.2-0.5-0.3-0.8-0.4l0,0l0,0c-0.9-0.4-1.8-0.5-2.5-0.4l0,0
		c-0.1,0-0.1,0-0.2,0c-0.1,0-0.2,0-0.3,0.1c-0.1,0-0.2,0.1-0.3,0.1c-0.2,0.1-0.4,0.2-0.5,0.3l-4.8,2.8c-0.1,0.1-0.1,0.1,0.1,0
		c0.1-0.1,0.3-0.1,0.4-0.1h0.1c0.2,0,0.4-0.1,0.4-0.1h0.1c0.2,0,0.4,0,0.5,0c0,0,0,0,0.1,0c0.2,0,0.4,0.1,0.5,0.1c0,0,0,0,0.1,0
		c0.2,0,0.4,0.1,0.5,0.2c0.1,0,0.2,0.1,0.3,0.1c-0.1,0.3-0.1,0.7-0.1,1.1c0,4.1,2.9,9.2,6.5,11.2c0.3,0.2,0.5,0.3,0.8,0.4
		c0,0.2-0.1,0.3-0.1,0.5v0.1c0,0.2-0.1,0.4-0.2,0.5v0.1c-0.1,0.2-0.1,0.4-0.2,0.4c0,0,0,0,0,0.1c-0.1,0.2-0.2,0.4-0.3,0.4
		c0,0,0,0,0,0.1c-0.1,0.1-0.2,0.3-0.3,0.4l-0.1,0.1c-0.1,0.1-0.2,0.2-0.3,0.3l-0.1,0.1c-0.1,0.1-0.3,0.2-0.4,0.3l5.3-3.1
		c0,0,0,0,0.1-0.1C846.7,490.5,847.6,489,847.6,486.8z"/>
	<path class="st15" d="M836.2,478.3c3.5,2,6.4,7,6.4,11s-2.9,5.7-6.4,3.7s-6.4-7-6.4-11S832.7,476.3,836.2,478.3"/>
	<path class="st67" d="M841.1,489.4l-28.9,16.5l-0.1,14.6L841,504l0,0c0,0,0,0,0.1-0.1c0,0,0.1,0,0.1-0.1l0,0l0.1-0.1l0,0l0,0l0,0
		v-0.1l0,0l0,0l0,0v-0.1l0,0l0.2-14.6C841.4,489.1,841.3,489.3,841.1,489.4z"/>
	<path class="st15" d="M812.1,506L812.1,506h-0.2c-0.1,0-0.1,0-0.2,0l0,0c-0.1,0-0.2,0-0.2,0l0,0c-0.1,0-0.2,0-0.2,0l0,0
		c-0.1,0-0.1,0-0.2,0l0,0c-0.1,0-0.1,0-0.2-0.1l0,0c-0.1,0-0.1-0.1-0.2-0.1l-27.9-16.1c-0.1,0-0.1-0.1-0.2-0.1
		c-0.2-0.1-0.2-0.3-0.2-0.4l-0.1,14.6c0,0.2,0.1,0.4,0.4,0.5l27.9,16.1c0.1,0,0.1,0.1,0.2,0.1l0,0l0,0h0.1c0,0,0,0,0.1,0l0,0l0,0
		h0.1c0,0,0,0,0.1,0l0,0c0,0,0,0,0.1,0h0.1l0,0l0,0h0.1c0.1,0,0.1,0,0.2,0l0,0l0,0h0.1l0,0h0.1c0,0,0,0,0.1,0l0,0
		c0.1,0,0.2-0.1,0.3-0.1l0.1-14.6C812.3,506,812.2,506,812.1,506"/>
	<path class="st66" d="M841.2,488.4c0.4,0.3,0.4,0.7,0,1l-28.9,16.5c-0.4,0.3-1.2,0.3-1.7,0l-27.9-16.1c-0.4-0.3-0.4-0.7,0-1
		l28.9-16.5c0.4-0.3,1.2-0.3,1.7,0L841.2,488.4z"/>
	<path class="st68" d="M795.6,509.8c0.2,0.1,0.4,0.4,0.4,0.6v0.5c0,0.3-0.2,0.4-0.4,0.2l-3.5-2c-0.2-0.1-0.4-0.4-0.4-0.6V508
		c0-0.3,0.2-0.4,0.4-0.2L795.6,509.8z"/>
	<path class="st69" d="M825.7,483.2c0.2,0.1,0.2,0.3,0,0.4l-0.6,0.4c-0.2,0.1-0.4,0.1-0.6,0l-3.7-2.1c-0.2-0.1-0.2-0.3,0-0.4
		l0.6-0.4c0.2-0.1,0.4-0.1,0.6,0L825.7,483.2z"/>
	<path class="st68" d="M838.6,495.9c0.2-0.1,0.4,0,0.4,0.2v4c0,0.3-0.2,0.5-0.4,0.6l-0.4,0.3c-0.2,0.1-0.4,0-0.4-0.2v-4
		c0-0.3,0.2-0.5,0.4-0.6L838.6,495.9z"/>
	<path class="st68" d="M809.8,510.4c0.5,0.3,0.9,1,0.9,1.5c0,0.5-0.4,0.8-0.9,0.5s-0.9-1-0.9-1.5
		C808.9,510.3,809.4,510.1,809.8,510.4"/>
</g>
<g id="HOMME-DEBOUT">
	<path id="_x3C_Tracé_x3E__32_" class="st17" d="M1069.4,471.2c0.7,6.4,8.4,34,6.7,43.4c-1.6,9.4-27.7,25.2-27.7,25.2l-3.6-16.1
		l14.5-14.1l-4-26.8L1069.4,471.2z"/>
	<path id="_x3C_Tracé_x3E__31_" class="st2" d="M1049.3,444.1c5.2-2.4,11.5-0.6,14.5,4.4c3.8,6.3,7.8,28.1,8.2,31.8
		c0,0-5.4,7.4-13.4,6.2L1049.3,444.1z"/>
	<path class="st70" d="M1019.5,751.5c-5.7,1.6-11.7,0.8-16.9-2c-4.1,0.1-26.1-9.3-29.1-1.4c-2.6,6.9,6.9,13.4,12,14.6
		c11.1,2.7,19.3,8.2,23.8,9.2c3.3,0.7,7.6,1.2,10.3-1.4C1022.9,767.2,1022.6,755.6,1019.5,751.5z"/>
	<path class="st71" d="M1009.4,769.9c-4.5-0.9-12.7-6.4-23.8-9.2c-4.3-1-11.6-5.7-12.4-11.3c-1,6.4,7.6,12.1,12.4,13.2
		c11.1,2.7,19.3,8.2,23.8,9.2c3.3,0.7,7.6,1.2,10.3-1.4c0.7-0.8,1.2-1.7,1.5-2.7C1017.8,770.3,1013.5,771.1,1009.4,769.9z"/>
	<path class="st70" d="M1055.3,735.4c-5.7,1.6-11.7,0.8-16.9-2c-4.1,0.1-26.1-9.3-29.1-1.4c-2.6,6.9,6.9,13.4,12,14.6
		c11.1,2.7,19.3,8.2,23.8,9.2c3.3,0.7,7.6,1.2,10.3-1.5C1058.7,751.2,1058.4,739.6,1055.3,735.4z"/>
	<path class="st71" d="M1045.2,753.9c-4.5-0.9-12.7-6.4-23.8-9.2c-4.3-1-11.6-5.7-12.4-11.3c-1,6.4,7.6,12,12.4,13.2
		c11.1,2.7,19.3,8.2,23.8,9.2c3.3,0.7,7.6,1.2,10.3-1.5c0.7-0.8,1.2-1.7,1.5-2.7C1053.6,754.2,1049.2,755,1045.2,753.9z"/>
	<path id="_x3C_Tracé_x3E__30_" class="st72" d="M1055.7,675.5c-0.9-8.2-2.6-16.3-5.1-24.2c0,0,1.5-20.8,2.3-40.6
		c0.9-22.4,8.6-42.1,2.5-60l-69.2,15.4c0,0,4.2,89.4,5.1,100.2c0.5,8.4,1.5,16.8,3.1,25.1c3.2,17.3,8.3,58.6,8.3,58.6
		c7.3,4.3,16.9,1.9,16.9,1.9s-0.5-52.2-1-64.7c-0.6-15.3-1-14.1-1-14.1l2.3-38l1.5-18.9c0,0,1.9,13.9,3.2,26.3
		c1.1,10.8,3.7,20.6,6.6,40.7c2.5,17.5,6.6,52.5,6.6,52.5c7.3,4.3,17.2,0.7,17.2,0.7S1057.7,690.7,1055.7,675.5z"/>
	<path id="_x3C_Tracé_x3E__29_" class="st17" d="M1045.7,444.4c-5.3,0.3-9.2,1.6-9.8,0c-0.6-2.7-1-5.5-1.2-8.2
		c0.6-1.5,1.1-3.2,1.1-3.2c6.6-4.1,8.7-11.3,9.6-19.5c1.5-14.2-6.2-26.7-20.4-28.2c-13.4-1.4-23.2,8.1-25.8,20.9
		c-1.4,6.4-4.2,18.4-0.4,29c2.1,5.9,4.8,10.5,7.6,11.4c2.7-0.1,5.3-0.3,7.9-0.7l0,0c0,0,0.7,4,1.2,6.4c0.5,2.5,0.3,3.9-4.8,7
		s7.6,9.5,15.9,8.9c8.3-0.6,17.5-5.5,20.1-10.9C1049.5,451.3,1049.2,444.3,1045.7,444.4z"/>
	<path id="_x3C_Tracé_x3E__28_" class="st18" d="M1038,445.2c1.4,3.6-2.3,8.1-12.1,11.2c-9.9,3.1-10.8-0.9-10.8-0.9
		s-14.5,6.6-19.2,9.9c-5.9,4.2-8.6,16.1-9.4,36.4c-0.9,23.5-1,58.3-0.2,64.3c0,0,11.1,11.1,25.3,9.9c14.2-1.2,38.1-13.7,43.9-23.4
		c-0.2-20.6-2.6-23.9,0.8-35.8c7.6-27.1,11.6-38.2,7.9-56.3c-3.1-14.9-7.3-16.7-13.2-16.6C1046.6,444.2,1042.3,444.6,1038,445.2z"/>
	<path class="st17" d="M906.5,481.6c-0.2-0.2-0.8-0.9-2.3-2.3c-1.8-1.6-2.7-3-3.7-4.7c-2.1-3.6-3.2-5.4-2.1-6.6
		c2.4-2.5,5.9,4.2,5.9,4.2c1.2,2.5,2.2,2.8,3.6,4.1c1.4,1.1,2.9,2.8,3.9,3.7c3.2,2.8,6.1,4.9,7,5.4c2.5,1.5-2.1-4.1-1-7.7
		s1.6-4.8,2.8-4.1c1.2,0.7,0.4,4.2,4,9.5c1.1,1.6,2.2,7.5,2.3,9.7c0.1,2.3,3.3,8.6,6.8,11.8c3.5,3.2,16.1,8.6,24.8,11.9
		c9.9,3.8,15.4,3.7,18.6-6.3c3.2-10,10.2-25.9,12.3-28.5s20.4,8.4,18.8,12.4s-13.7,30.2-23.7,37.7c-10.3,7.7-12.4,8.4-23.7,3.9
		c-9.7-3.9-38.2-24.7-38.2-24.7s-10.3-7.4-14.6-10.2c-3.6-2.4-6.8-4.5-6.6-6.1c0.2-1.3,1.1-1.9,1.1-2.6s0.2-2.5,0.9-3.3
		c0.6-0.7,1.1-0.6,1.7-1.4c0.3-0.4-0.5-1.8-0.1-2.9c0.4-0.9,1.4-1.1,1.6-1.8C907.1,482.1,906.5,481.6,906.5,481.6z"/>
	<path id="_x3C_Tracé_x3E__21_" class="st2" d="M1004.3,459c-7.8-1.1-13.3,2.4-16.7,14.2s-5.8,21.5-5.8,21.5
		c3.1,4.4,7.7,7.5,13,8.6c9.3,2.3,12.7-2.2,12.7-2.2s2.6-12.4,4.2-20.8C1013.2,471.9,1013.9,460.4,1004.3,459z"/>
	<path class="st73" d="M999.4,404.4c0,0-12.3-18.7,14.3-22.5c19.2-2.7,31.6,9.7,33,23c1.4,12.8-6.5,26.1-12.2,31.4
		c-2.8,1-8.8,1.6-16.6-2c-0.3-3.5-0.4-7-0.4-10.5C1017.6,423.7,1026.9,404.1,999.4,404.4z"/>
	<path class="st74" d="M999.4,404.4c0,0,1.5-4-0.8-5.8c-11.4-9.5-3.2-11,13.8-13.4c19.2-2.7,32.8,6.4,34.2,19.7
		c1.4,12.8-6.5,26.1-12.2,31.4c-2.8,1-8.8,1.6-16.6-2c-0.3-3.5-0.4-7-0.4-10.5C1017.6,423.7,1026.9,404.1,999.4,404.4z"/>
</g>
<g id="LINTO_6_">
	<path class="st75" d="M795.8,527.4c4.3-2.4,7-7.5,7-15c0-14.7-9.2-31.6-22-38.9c-3.4-2-6.2-3.2-9.4-3.5c-8.7-0.8-16,4.5-16,15.3
		c-0.1,14.4,11,32.3,23.4,40l17.7,12.8l1.9-1.4C796.5,534,794.8,530.1,795.8,527.4L795.8,527.4z"/>
	<path class="st76" d="M793.8,528.8c4.3-2.4,7-7.5,7-15c0-14.7-10.3-32.6-23.1-40s-23.2-1.5-23.2,13.2c-0.1,14.4,9.9,31.9,22.3,39.6
		l19.7,11.4C794.6,535.4,792.9,531.5,793.8,528.8L793.8,528.8z"/>
	<path class="st75" d="M753.3,480.7"/>
	<path d="M774.4,506.9c0.2,0.1,0.4,0.3,0.6,0.5c0.1,0.2,0.5,0.5,0.9,0.8c0.5,0.3,1,0.7,1.5,1c0.6,0.3,1.2,0.6,1.7,0.8
		c0.5,0.2,0.9,0.3,1.1,0.3c0.2,0,0.3,0.1,0.6,0.2c0.5,0.3,1,0.9,1.2,1.6c0.3,0.9,0,1.7-0.7,1.7c-0.6-0.1-1.2-0.2-1.8-0.5
		s-1.3-0.6-2.1-1c-0.6-0.4-1.3-0.8-2-1.3c-0.6-0.5-1.2-1-1.7-1.6c-0.6-0.8-0.9-1.9-0.6-2.4C773.4,506.6,773.9,506.6,774.4,506.9z"/>
	<path d="M770.8,492.7c1.3,0.8,2.4,2.6,2.4,4.1s-1,2.1-2.4,1.3c-1.3-0.8-2.4-2.6-2.4-4.1S769.5,492,770.8,492.7z"/>
	<path d="M784.5,500.6c1.3,0.8,2.4,2.6,2.4,4.1s-1,2.1-2.4,1.3c-1.3-0.8-2.4-2.6-2.4-4.1C782.1,500.5,783.2,499.8,784.5,500.6z"/>
</g>
<g id="LUMIERE_1_">
	<ellipse class="st77" cx="748.2" cy="160" rx="5.5" ry="8"/>
	<path class="st78" d="M748.2,159.1c2.1,0,4.1,0.5,5.5,1.3c1.2,0.7,1.9,1.6,1.9,2.4c0,0.8-0.7,1.7-1.9,2.4c-1.4,0.8-3.4,1.3-5.5,1.3
		s-4.1-0.5-5.5-1.3c-1.2-0.7-1.9-1.6-1.9-2.4c0-0.8,0.7-1.7,1.9-2.4C744.1,159.5,746.1,159.1,748.2,159.1z"/>
	<path class="st77" d="M748.2,160c2.1,0,4.1,0.5,5.5,1.3c1.2,0.7,1.9,1.6,1.9,2.4c0,0.8-0.7,1.7-1.9,2.4c-1.4,0.8-3.4,1.3-5.5,1.3
		s-4.1-0.5-5.5-1.3c-1.2-0.7-1.9-1.6-1.9-2.4c0-0.8,0.7-1.7,1.9-2.4C744.1,160.5,746.1,160,748.2,160z"/>
	<path class="st78" d="M748.2,160.9c2.7,0,5.3,0.6,7.2,1.7c1.6,0.9,2.4,2,2.4,3.1s-0.9,2.2-2.4,3.1c-1.9,1.1-4.5,1.7-7.2,1.7
		s-5.3-0.6-7.2-1.7c-1.6-0.9-2.4-2-2.4-3.1s0.9-2.2,2.4-3.1C742.9,161.5,745.5,160.9,748.2,160.9z"/>
	<path class="st77" d="M748.2,162.1c2.7,0,5.3,0.6,7.2,1.7c1.6,0.9,2.4,2,2.4,3.1s-0.9,2.2-2.4,3.1c-1.9,1.1-4.5,1.7-7.2,1.7
		s-5.3-0.6-7.2-1.7c-1.6-0.9-2.4-2-2.4-3.1s0.9-2.2,2.4-3.1C742.9,162.7,745.5,162.1,748.2,162.1z"/>
	<path class="st78" d="M748.2,163.2c3.3,0,6.5,0.7,8.7,2.1c1.9,1.1,3,2.5,3,3.8s-1.1,2.7-3,3.8c-2.3,1.3-5.4,2.1-8.7,2.1
		s-6.5-0.8-8.7-2.1c-1.9-1.1-3-2.5-3-3.8s1.1-2.7,3-3.8C741.7,164,744.9,163.2,748.2,163.2z"/>
	<path class="st77" d="M748.2,164.7c3.3,0,6.5,0.7,8.7,2.1c1.9,1.1,3,2.5,3,3.8s-1.1,2.7-3,3.8c-2.3,1.3-5.4,2.1-8.7,2.1
		s-6.5-0.7-8.7-2.1c-1.9-1.1-3-2.5-3-3.8s1.1-2.7,3-3.8C741.7,165.5,744.9,164.7,748.2,164.7z"/>
	<path class="st78" d="M748.2,166.2c3.8,0,7.4,0.9,10,2.4c2.2,1.2,3.4,2.8,3.4,4.3s-1.2,3.1-3.4,4.3c-2.6,1.5-6.2,2.4-10,2.4
		s-7.4-0.9-10-2.4c-2.2-1.2-3.4-2.8-3.4-4.3s1.2-3.1,3.4-4.3C740.8,167.1,744.4,166.2,748.2,166.2z"/>
	<path class="st77" d="M748.2,167.9c3.8,0,7.4,0.9,10,2.4c2.2,1.2,3.4,2.8,3.4,4.3s-1.2,3.1-3.4,4.3c-2.6,1.5-6.2,2.4-10,2.4
		s-7.4-0.9-10-2.4c-2.2-1.2-3.4-2.8-3.4-4.3s1.2-3.1,3.4-4.3C740.8,168.8,744.4,167.9,748.2,167.9z"/>
	<ellipse class="st79" cx="748.2" cy="177.9" rx="15.1" ry="8.7"/>
	<rect x="752" y="178.6" class="st80" width="1.3" height="20.8"/>
	<rect x="742.9" y="178.6" class="st80" width="1.3" height="20.8"/>
	<polygon class="st80" points="748.2,198 750.2,199.8 752.6,198.2 753.3,199.4 750,201.6 748.1,199.8 745.8,201.6 742.9,199.4 
		743.8,198.3 745.9,199.9 "/>
	<path class="st81" d="M733.1,177.5c0,2-0.4,7.7-5,15.7c-5.4,9.4,0.2,31.7,20.1,31.7s25.5-22.3,20.1-31.7c-4-6.9-4.8-13-5-15.8"/>
	<polygon class="st77" points="748.1,143.7 762.9,152.3 762.9,163.5 748.2,155 733.2,163.4 733.4,152.2 "/>
</g>
<path id="ETEIND" class="st82" d="M1114.1,328.1l-366-211.3l-366,211.3v322c0,0,23.2,71.1,119.1,98c20.6,5.8,40.2,9,59.4,11.1
	l56.1,3.8c44.8,2.4,90.1,5.6,143.1,28c76.8,32.4,215.6,22.4,241.2-24.1c3.9,1.8,7.1,3.4,9.3,3.9c3.3,0.7,7.6,1.2,10.3-1.4
	c0.2-0.2,0.3-0.4,0.5-0.6c0.1-0.1,0.1-0.2,0.2-0.3c0.3-0.5,0.6-1.1,0.8-1.8l0,0c1.5-4.6,0.9-12.6-1.5-16.1c0-0.6,0-2.7-0.1-5.6
	c0.6,0.2,1.2,0.4,1.8,0.6c11.1,2.7,19.3,8.2,23.8,9.2c1.5,0.3,3.1,0.6,4.7,0.5c2.1,0,4.1-0.5,5.6-2c3.1-3.1,2.8-14.8-0.2-18.9
	c-0.1,0-0.1,0-0.2,0c0.3-5.2,1.5-29.1,1.2-46.4c29.7-27.1,56.9-37.9,56.9-37.9V328.1L1114.1,328.1z M1038.4,732.3
	c-3-0.5-9.9-2.9-16.2-4c4.4-6.4,8.9-12.4,13.5-17.9C1036.9,719.8,1037.9,728.3,1038.4,732.3z"/>
<g id="LUMIERE-ON">
	<ellipse class="st83" cx="748.2" cy="178" rx="15.1" ry="8.7"/>
	<path class="st84" d="M733.1,177.5c0,2-0.4,7.7-5,15.7c-5.4,9.4,0.2,31.7,20.1,31.7c19.8,0,25.5-22.3,20.1-31.7
		c-4-6.9-4.8-13-5-15.8"/>
	
		<linearGradient id="SVGID_9_" gradientUnits="userSpaceOnUse" x1="748.6" y1="-1218.6539" x2="748.6" y2="-853.5222" gradientTransform="matrix(1 0 0 1 0 1485.2756)">
		<stop  offset="0" style="stop-color:#FFC420"/>
		<stop  offset="0.1144" style="stop-color:#FFDF57"/>
		<stop  offset="0.6337" style="stop-color:#FFDF57;stop-opacity:0"/>
	</linearGradient>
	<path class="st85" d="M735,173.6L397.1,547.1c0,0,115.4,147.1,354.4,152.1s348.6-119.8,348.6-119.8L761.5,173.8
		c0,0-3.1-4.6-13.3-4.6C738.6,169.3,735,173.6,735,173.6z"/>
</g>
<linearGradient id="VIDEOPROJ-ON_3_" gradientUnits="userSpaceOnUse" x1="781.4054" y1="866.7792" x2="829.535" y2="934.5535" gradientTransform="matrix(1 0 0 -1 0 1320)">
	<stop  offset="0" style="stop-color:#0D0C23"/>
	<stop  offset="7.220172e-02" style="stop-color:#0D0C23;stop-opacity:0.8533"/>
	<stop  offset="0.4923" style="stop-color:#0D0C23;stop-opacity:0"/>
</linearGradient>
<path id="VIDEOPROJ-ON_1_" class="st86" d="M1114.1,328.1l-366-211.3l-366,211.3v322c0,0,23.2,71.1,119.1,98
	c20.6,5.8,40.2,9,59.4,11.1l56.1,3.8c44.8,2.4,90.1,5.6,143.1,28c76.8,32.4,215.6,22.4,241.2-24.1c3.9,1.8,7.1,3.4,9.3,3.9
	c3.3,0.7,7.6,1.2,10.3-1.4c0.2-0.2,0.3-0.4,0.5-0.6c0.1-0.1,0.1-0.2,0.2-0.3c0.3-0.5,0.6-1.1,0.8-1.8l0,0c1.5-4.6,0.9-12.6-1.5-16.1
	c0-0.6,0-2.7-0.1-5.6c0.6,0.2,1.2,0.4,1.8,0.6c11.1,2.7,19.3,8.2,23.8,9.2c1.5,0.3,3.1,0.6,4.7,0.5c2.1,0,4.1-0.5,5.6-2
	c3.1-3.1,2.8-14.8-0.2-18.9c-0.1,0-0.1,0-0.2,0c0.3-5.2,1.5-29.1,1.2-46.4c29.7-27.1,56.9-37.9,56.9-37.9V328.1L1114.1,328.1z
	 M1038.4,732.3c-3-0.5-9.9-2.9-16.2-4c4.4-6.4,8.9-12.4,13.5-17.9C1036.9,719.8,1037.9,728.3,1038.4,732.3z"/>
</svg>
