<?xml version="1.0" encoding="UTF-8" standalone="no"?>
<svg
   xmlns:dc="http://purl.org/dc/elements/1.1/"
   xmlns:cc="http://creativecommons.org/ns#"
   xmlns:rdf="http://www.w3.org/1999/02/22-rdf-syntax-ns#"
   xmlns:svg="http://www.w3.org/2000/svg"
   xmlns="http://www.w3.org/2000/svg"
   xmlns:sodipodi="http://sodipodi.sourceforge.net/DTD/sodipodi-0.dtd"
   xmlns:inkscape="http://www.inkscape.org/namespaces/inkscape"
   height="60"
   viewBox="0 -53 45 45"
   width="60"
   version="1.1"
   id="svg8"
   sodipodi:docname="mobile-menu.svg"
   inkscape:version="0.92.4 (5da689c313, 2019-01-14)">
  <metadata
     id="metadata14">
    <rdf:RDF>
      <cc:Work
         rdf:about="">
        <dc:format>image/svg+xml</dc:format>
        <dc:type
           rdf:resource="http://purl.org/dc/dcmitype/StillImage" />
        <dc:title></dc:title>
      </cc:Work>
    </rdf:RDF>
  </metadata>
  <defs
     id="defs12" />
  <sodipodi:namedview
     pagecolor="#ffffff"
     bordercolor="#666666"
     borderopacity="1"
     objecttolerance="10"
     gridtolerance="10"
     guidetolerance="10"
     inkscape:pageopacity="0"
     inkscape:pageshadow="2"
     inkscape:window-width="1920"
     inkscape:window-height="1043"
     id="namedview10"
     showgrid="false"
     units="px"
     inkscape:zoom="2.6074563"
     inkscape:cx="95.351814"
     inkscape:cy="8.9910045"
     inkscape:window-x="0"
     inkscape:window-y="0"
     inkscape:window-maximized="1"
     inkscape:current-layer="svg8" />
  <g
     id="g824"
     transform="matrix(0.08290092,0,0,0.08290092,6.5830234,-13.892128)">
    <path
       inkscape:connector-curvature="0"
       id="path2"
       d="M 368,-184.33203 H 16 c -8.832031,0 -16,-7.16797 -16,-16 0,-8.83203 7.167969,-16 16,-16 h 352 c 8.83203,0 16,7.16797 16,16 0,8.83203 -7.16797,16 -16,16 z m 0,0" />
    <path
       inkscape:connector-curvature="0"
       id="path4"
       d="M 368,-307 H 16 c -8.832031,0 -16,-7.16797 -16,-16 0,-8.83203 7.167969,-16 16,-16 h 352 c 8.83203,0 16,7.16797 16,16 0,8.83203 -7.16797,16 -16,16 z m 0,0" />
    <path
       inkscape:connector-curvature="0"
       id="path6"
       d="M 368,-61.66797 H 16 c -8.832031,0 -16,-7.16797 -16,-16 0,-8.83203 7.167969,-16 16,-16 h 352 c 8.83203,0 16,7.16797 16,16 0,8.83203 -7.16797,16 -16,16 z m 0,0" />
  </g>
</svg>
