<svg id="Calque_1" data-name="Calque 1" xmlns="http://www.w3.org/2000/svg" viewBox="0 0 60 60"><defs><style>.cls-1{fill:#854cab;}.cls-2{fill:#1b92ea;}</style></defs><title>vocal</title><path class="cls-1" d="M30,21.21V33a.74.74,0,1,0,1.47,0V21.21a.74.74,0,0,0-1.47,0Z"/><path class="cls-1" d="M19.06,19.3V34.87a.74.74,0,0,0,.74.74.73.73,0,0,0,.73-.74V19.3a.72.72,0,0,0-.73-.73A.73.73,0,0,0,19.06,19.3Z"/><path class="cls-1" d="M22.69,16.71V37.46a.74.74,0,1,0,1.47,0V16.71a.74.74,0,0,0-1.47,0Z"/><path class="cls-2" d="M42.61,36a6.62,6.62,0,1,0,6.62,6.62A6.63,6.63,0,0,0,42.61,36Zm0,11.77a5.15,5.15,0,1,1,5.15-5.15A5.16,5.16,0,0,1,42.61,47.79Z"/><path class="cls-1" d="M33.58,23.37V30.8a.74.74,0,1,0,1.47,0V23.37a.74.74,0,1,0-1.47,0Z"/><path class="cls-1" d="M27.05,32.06a.76.76,0,0,0,.73-.78V22.39a.74.74,0,1,0-1.47,0v8.91A.76.76,0,0,0,27.05,32.06Z"/><path class="cls-1" d="M45.93,27.7V26.47a.74.74,0,0,0-1.47,0V27.7a.74.74,0,1,0,1.47,0Z"/><path class="cls-1" d="M42.31,28.26V25.91a.74.74,0,0,0-1.48,0v2.35a.74.74,0,1,0,1.48,0Z"/><path class="cls-1" d="M8.18,26.43v1.32a.74.74,0,1,0,1.47,0V26.43a.74.74,0,1,0-1.47,0Z"/><path class="cls-1" d="M11.81,25.56v3.05a.74.74,0,1,0,1.47,0V25.56a.74.74,0,0,0-1.47,0Z"/><path class="cls-1" d="M15.43,21.32V32.85a.74.74,0,1,0,1.48,0V21.32a.74.74,0,0,0-1.48,0Z"/><path class="cls-1" d="M38.69,30.77V22.36a.77.77,0,0,0-.45-.72h0a.29.29,0,0,0-.1,0H38l-.15,0h0l-.1,0,0,0-.09.05,0,0a.27.27,0,0,0-.08.07l0,0-.06.08,0,0a.41.41,0,0,0-.05.09v0a.36.36,0,0,0,0,.11v0a.68.68,0,0,0,0,.14v8.92s0,.07,0,.1a8.41,8.41,0,0,1,1.33-.55Z"/><path class="cls-2" d="M38.68,30.77h0"/><path class="cls-2" d="M37.22,31.36h0s0,0,0,.05Z"/><path class="cls-2" d="M38.68,30.77h0l-.14,0a7.93,7.93,0,0,0-1.34.52A12.53,12.53,0,0,0,31,47.38a21.14,21.14,0,0,1-4,.38A20.71,20.71,0,1,1,37.57,9.21a.72.72,0,0,0,1-.26.71.71,0,0,0-.26-1A22.17,22.17,0,1,0,27.06,49.23a18,18,0,0,0,4.65-.49A12.51,12.51,0,1,0,50.61,33a.73.73,0,1,0-.94,1.13,11,11,0,1,1-7.06-2.55,9.05,9.05,0,0,1,1,.05,10.7,10.7,0,0,1,3.92,1.13.75.75,0,0,0,.64,0,.73.73,0,0,0,.41-.5,22.14,22.14,0,0,0,.61-5.2,21.89,21.89,0,0,0-2.33-9.91,22.31,22.31,0,0,0-6.24-7.61.73.73,0,1,0-.9,1.16,20.62,20.62,0,0,1,8,16.36,21.21,21.21,0,0,1-.38,4,12.57,12.57,0,0,0-8.7-.31"/><path class="cls-2" d="M38.68,30.77h0"/></svg>