<svg width="23" height="22" viewBox="0 0 23 22" fill="none" xmlns="http://www.w3.org/2000/svg">
<path fill-rule="evenodd" clip-rule="evenodd" d="M11 0C4.92638 0 0 4.82075 0 10.7642C0 15.5189 3.17178 19.5472 7.4908 21C8.03068 21.066 8.23313 20.7359 8.23313 20.4717C8.23313 20.2075 8.23313 19.5472 8.23313 18.6226C5.19632 19.283 4.52147 17.1698 4.52147 17.1698C4.04908 15.9151 3.30675 15.5849 3.30675 15.5849C2.29448 14.9245 3.37423 14.9245 3.37423 14.9245C4.45399 14.9906 5.06135 16.0472 5.06135 16.0472C6.07362 17.6981 7.62577 17.2359 8.23313 16.9717C8.30061 16.2453 8.63804 15.783 8.90798 15.5189C6.47853 15.2547 3.91411 14.3302 3.91411 10.1698C3.91411 8.98113 4.31902 8.05661 5.06135 7.26415C4.99387 7.06604 4.58896 5.9434 5.19632 4.49057C5.19632 4.49057 6.1411 4.22642 8.23313 5.61321C9.11043 5.34906 10.0552 5.28302 11 5.28302C11.9448 5.28302 12.8896 5.4151 13.7669 5.61321C15.8589 4.22642 16.8037 4.49057 16.8037 4.49057C17.411 5.9434 17.0061 7.06604 16.9387 7.33019C17.6135 8.0566 18.0859 9.04717 18.0859 10.2359C18.0859 14.3962 15.5215 15.2547 13.092 15.5189C13.4969 15.8491 13.8344 16.5094 13.8344 17.5C13.8344 18.9528 13.8344 20.0755 13.8344 20.4717C13.8344 20.7359 14.0368 21.066 14.5767 21C18.9632 19.5472 22.0675 15.5189 22.0675 10.7642C22 4.82075 17.0736 0 11 0Z" fill="white"/>
</svg>
