<?xml version="1.0" encoding="UTF-8" standalone="no"?>
<svg
   xmlns:dc="http://purl.org/dc/elements/1.1/"
   xmlns:cc="http://creativecommons.org/ns#"
   xmlns:rdf="http://www.w3.org/1999/02/22-rdf-syntax-ns#"
   xmlns:svg="http://www.w3.org/2000/svg"
   xmlns="http://www.w3.org/2000/svg"
   xmlns:sodipodi="http://sodipodi.sourceforge.net/DTD/sodipodi-0.dtd"
   xmlns:inkscape="http://www.inkscape.org/namespaces/inkscape"
   width="507"
   height="540"
   viewBox="0 0 507 540"
   fill="none"
   version="1.1"
   id="svg104"
   sodipodi:docname="illustration-homepage-01.svg"
   inkscape:version="1.0.2 (e86c870879, 2021-01-15)">
  <metadata
     id="metadata108">
    <rdf:RDF>
      <cc:Work
         rdf:about="">
        <dc:format>image/svg+xml</dc:format>
        <dc:type
           rdf:resource="http://purl.org/dc/dcmitype/StillImage" />
      </cc:Work>
    </rdf:RDF>
  </metadata>
  <sodipodi:namedview
     pagecolor="#ffffff"
     bordercolor="#666666"
     borderopacity="1"
     objecttolerance="10"
     gridtolerance="10"
     guidetolerance="10"
     inkscape:pageopacity="0"
     inkscape:pageshadow="2"
     inkscape:window-width="1920"
     inkscape:window-height="1016"
     id="namedview106"
     showgrid="false"
     inkscape:zoom="1.1208952"
     inkscape:cx="169.24771"
     inkscape:cy="183.42531"
     inkscape:window-x="0"
     inkscape:window-y="27"
     inkscape:window-maximized="1"
     inkscape:current-layer="svg104" />
  <rect
     x="6.98508"
     y="194.46"
     width="92.7741"
     height="92.7741"
     rx="38"
     fill="white"
     stroke="#292929"
     stroke-width="5"
     id="rect2" />
  <g
     id="g936"
     transform="matrix(1.4816111,0,0,1.4816111,-25.866988,-132.84397)">
    <path
       fill-rule="evenodd"
       clip-rule="evenodd"
       d="m 46,243.462 c 0,-3.569 2.9102,-6.462 6.5,-6.462 3.5899,0 6.5,2.893 6.5,6.462 v 8.076 C 59,255.107 56.0899,258 52.5,258 48.9102,258 46,255.107 46,251.538 Z m 6.5,-3.231 c -1.7949,0 -3.25,1.446 -3.25,3.231 v 8.076 c 0,1.785 1.4551,3.231 3.25,3.231 1.795,0 3.25,-1.446 3.25,-3.231 v -8.076 c 0,-1.785 -1.455,-3.231 -3.25,-3.231 z"
       fill="#292929"
       id="path4" />
    <path
       fill-rule="evenodd"
       clip-rule="evenodd"
       d="m 41.625,250 c 0.8975,0 1.625,0.696 1.625,1.556 0,5.154 4.3653,9.333 9.75,9.333 5.3848,0 9.75,-4.179 9.75,-9.333 0,-0.86 0.7276,-1.556 1.625,-1.556 0.8975,0 1.625,0.696 1.625,1.556 C 66,258.428 60.1797,264 53,264 45.8203,264 40,258.428 40,251.556 40,250.696 40.7276,250 41.625,250 Z"
       fill="#292929"
       id="path6" />
    <path
       fill-rule="evenodd"
       clip-rule="evenodd"
       d="m 52.5,261 c 0.8285,0 1.5,0.716 1.5,1.6 v 4.8 c 0,0.884 -0.6715,1.6 -1.5,1.6 -0.8284,0 -1.5,-0.716 -1.5,-1.6 v -4.8 c 0,-0.884 0.6716,-1.6 1.5,-1.6 z"
       fill="#292929"
       id="path8" />
  </g>
  <path
     d="M11.0165 303.527C10.9701 303.093 10.7745 302.755 10.4298 302.513C10.0884 302.271 9.64432 302.15 9.09744 302.15C8.71297 302.15 8.38319 302.208 8.10809 302.324C7.833 302.44 7.62254 302.598 7.4767 302.797C7.33087 302.996 7.25629 303.223 7.25298 303.478C7.25298 303.69 7.30104 303.874 7.39716 304.03C7.49659 304.185 7.63082 304.318 7.79986 304.427C7.96889 304.533 8.15615 304.623 8.36164 304.696C8.56714 304.769 8.77429 304.83 8.98309 304.88L9.93764 305.118C10.3221 305.208 10.6917 305.329 11.0463 305.481C11.4043 305.634 11.7241 305.826 12.0058 306.058C12.2909 306.29 12.5162 306.57 12.682 306.898C12.8477 307.226 12.9305 307.611 12.9305 308.052C12.9305 308.648 12.7781 309.174 12.4732 309.628C12.1682 310.078 11.7274 310.431 11.1507 310.687C10.5773 310.938 9.88295 311.064 9.06761 311.064C8.27547 311.064 7.58773 310.942 7.0044 310.697C6.42438 310.451 5.97031 310.093 5.64218 309.623C5.31737 309.152 5.14171 308.579 5.1152 307.902H6.92983C6.95634 308.257 7.06572 308.552 7.25795 308.787C7.45019 309.023 7.70042 309.198 8.00866 309.314C8.32021 309.43 8.66823 309.488 9.0527 309.488C9.45374 309.488 9.80506 309.429 10.1067 309.309C10.4116 309.187 10.6502 309.018 10.8226 308.802C10.9949 308.584 11.0828 308.328 11.0861 308.037C11.0828 307.772 11.0049 307.553 10.8524 307.38C10.6999 307.205 10.4862 307.059 10.2111 306.943C9.9393 306.824 9.62111 306.718 9.25653 306.625L8.09815 306.326C7.25961 306.111 6.59673 305.785 6.10951 305.347C5.62561 304.906 5.38366 304.321 5.38366 303.592C5.38366 302.992 5.54607 302.467 5.87088 302.016C6.199 301.565 6.64479 301.216 7.20824 300.967C7.77168 300.715 8.4097 300.589 9.1223 300.589C9.84484 300.589 10.4779 300.715 11.0214 300.967C11.5683 301.216 11.9975 301.562 12.3091 302.006C12.6206 302.447 12.7814 302.954 12.7913 303.527H11.0165ZM14.4953 313.774V303.274H16.2652V304.537H16.3696C16.4624 304.351 16.5934 304.154 16.7624 303.945C16.9314 303.733 17.1601 303.552 17.4485 303.403C17.7368 303.251 18.1047 303.175 18.5522 303.175C19.1421 303.175 19.6741 303.325 20.148 303.627C20.6253 303.925 21.0032 304.368 21.2816 304.954C21.5633 305.538 21.7042 306.254 21.7042 307.102C21.7042 307.941 21.5666 308.653 21.2915 309.24C21.0164 309.826 20.6419 310.274 20.1679 310.582C19.694 310.89 19.157 311.045 18.5571 311.045C18.1196 311.045 17.7567 310.972 17.4684 310.826C17.18 310.68 16.948 310.504 16.7723 310.299C16.6 310.09 16.4658 309.893 16.3696 309.707H16.2951V313.774H14.4953ZM16.2603 307.092C16.2603 307.586 16.3299 308.018 16.4691 308.39C16.6116 308.761 16.8154 309.051 17.0806 309.26C17.349 309.465 17.6738 309.568 18.055 309.568C18.4527 309.568 18.7858 309.462 19.0543 309.25C19.3228 309.034 19.5249 308.741 19.6608 308.37C19.8 307.995 19.8696 307.569 19.8696 307.092C19.8696 306.618 19.8017 306.197 19.6658 305.829C19.5299 305.461 19.3277 305.173 19.0593 304.964C18.7908 304.755 18.456 304.651 18.055 304.651C17.6705 304.651 17.3441 304.752 17.0756 304.954C16.8071 305.157 16.6033 305.44 16.4641 305.804C16.3282 306.169 16.2603 306.598 16.2603 307.092ZM26.626 311.059C25.8604 311.059 25.1992 310.9 24.6424 310.582C24.0889 310.261 23.663 309.807 23.3647 309.22C23.0664 308.63 22.9172 307.936 22.9172 307.137C22.9172 306.351 23.0664 305.662 23.3647 305.069C23.6663 304.472 24.0872 304.008 24.6274 303.677C25.1677 303.342 25.8024 303.175 26.5316 303.175C27.0022 303.175 27.4463 303.251 27.864 303.403C28.2849 303.552 28.6561 303.784 28.9776 304.099C29.3024 304.414 29.5576 304.815 29.7432 305.302C29.9288 305.786 30.0216 306.363 30.0216 307.032V307.584H23.7624V306.371H28.2965C28.2932 306.027 28.2186 305.72 28.0728 305.451C27.9269 305.18 27.7231 304.966 27.4613 304.81C27.2027 304.654 26.9011 304.576 26.5564 304.576C26.1885 304.576 25.8654 304.666 25.587 304.845C25.3086 305.021 25.0915 305.253 24.9357 305.541C24.7832 305.826 24.7053 306.139 24.702 306.481V307.54C24.702 307.984 24.7832 308.365 24.9456 308.683C25.108 308.998 25.3351 309.24 25.6267 309.409C25.9184 309.575 26.2598 309.657 26.6509 309.657C26.9127 309.657 27.1497 309.621 27.3618 309.548C27.5739 309.472 27.7579 309.361 27.9137 309.215C28.0694 309.069 28.1871 308.889 28.2667 308.673L29.947 308.862C29.841 309.306 29.6388 309.694 29.3405 310.025C29.0455 310.353 28.6677 310.609 28.207 310.791C27.7463 310.97 27.2193 311.059 26.626 311.059ZM34.9249 311.059C34.1592 311.059 33.498 310.9 32.9412 310.582C32.3877 310.261 31.9618 309.807 31.6635 309.22C31.3652 308.63 31.216 307.936 31.216 307.137C31.216 306.351 31.3652 305.662 31.6635 305.069C31.9651 304.472 32.386 304.008 32.9263 303.677C33.4665 303.342 34.1012 303.175 34.8304 303.175C35.301 303.175 35.7452 303.251 36.1628 303.403C36.5837 303.552 36.9549 303.784 37.2764 304.099C37.6012 304.414 37.8564 304.815 38.042 305.302C38.2276 305.786 38.3205 306.363 38.3205 307.032V307.584H32.0612V306.371H36.5953C36.592 306.027 36.5174 305.72 36.3716 305.451C36.2258 305.18 36.0219 304.966 35.7601 304.81C35.5016 304.654 35.1999 304.576 34.8553 304.576C34.4874 304.576 34.1642 304.666 33.8858 304.845C33.6074 305.021 33.3903 305.253 33.2345 305.541C33.0821 305.826 33.0042 306.139 33.0008 306.481V307.54C33.0008 307.984 33.0821 308.365 33.2445 308.683C33.4069 308.998 33.6339 309.24 33.9256 309.409C34.2172 309.575 34.5586 309.657 34.9497 309.657C35.2116 309.657 35.4485 309.621 35.6607 309.548C35.8728 309.472 36.0567 309.361 36.2125 309.215C36.3683 309.069 36.4859 308.889 36.5655 308.673L38.2459 308.862C38.1398 309.306 37.9376 309.694 37.6393 310.025C37.3444 310.353 36.9665 310.609 36.5058 310.791C36.0451 310.97 35.5181 311.059 34.9249 311.059ZM43.174 311.059C42.4117 311.059 41.7571 310.892 41.2102 310.557C40.6666 310.223 40.2474 309.76 39.9524 309.17C39.6607 308.577 39.5149 307.894 39.5149 307.122C39.5149 306.346 39.664 305.662 39.9623 305.069C40.2606 304.472 40.6815 304.008 41.2251 303.677C41.772 303.342 42.4183 303.175 43.164 303.175C43.7838 303.175 44.3323 303.289 44.8096 303.518C45.2902 303.743 45.673 304.063 45.9581 304.477C46.2431 304.888 46.4055 305.369 46.4453 305.919H44.7251C44.6555 305.551 44.4898 305.244 44.2279 304.999C43.9694 304.75 43.6231 304.626 43.1889 304.626C42.821 304.626 42.4978 304.726 42.2194 304.925C41.941 305.12 41.7239 305.402 41.5681 305.77C41.4157 306.138 41.3395 306.578 41.3395 307.092C41.3395 307.612 41.4157 308.06 41.5681 308.434C41.7206 308.806 41.9344 309.092 42.2095 309.295C42.4879 309.493 42.8144 309.593 43.1889 309.593C43.454 309.593 43.691 309.543 43.8998 309.444C44.1119 309.341 44.2893 309.193 44.4318 309.001C44.5743 308.809 44.6721 308.575 44.7251 308.3H46.4453C46.4022 308.84 46.2431 309.319 45.968 309.737C45.6929 310.151 45.3184 310.476 44.8444 310.711C44.3705 310.943 43.8136 311.059 43.174 311.059ZM49.7228 306.436V310.91H47.9231V300.728H49.683V304.572H49.7725C49.9515 304.141 50.2282 303.801 50.6028 303.552C50.9806 303.3 51.4612 303.175 52.0445 303.175C52.5748 303.175 53.0372 303.286 53.4316 303.508C53.826 303.73 54.1309 304.054 54.3464 304.482C54.5651 304.91 54.6745 305.432 54.6745 306.048V310.91H52.8748V306.326C52.8748 305.813 52.7422 305.413 52.4771 305.128C52.2152 304.84 51.8473 304.696 51.3734 304.696C51.0552 304.696 50.7701 304.765 50.5183 304.905C50.2697 305.041 50.0741 305.238 49.9316 305.496C49.7924 305.755 49.7228 306.068 49.7228 306.436ZM63.3126 311.059C62.5669 311.059 61.9206 310.895 61.3737 310.567C60.8268 310.239 60.4026 309.78 60.101 309.19C59.8027 308.6 59.6535 307.911 59.6535 307.122C59.6535 306.333 59.8027 305.642 60.101 305.049C60.4026 304.456 60.8268 303.995 61.3737 303.667C61.9206 303.339 62.5669 303.175 63.3126 303.175C64.0584 303.175 64.7047 303.339 65.2516 303.667C65.7984 303.995 66.221 304.456 66.5193 305.049C66.8209 305.642 66.9717 306.333 66.9717 307.122C66.9717 307.911 66.8209 308.6 66.5193 309.19C66.221 309.78 65.7984 310.239 65.2516 310.567C64.7047 310.895 64.0584 311.059 63.3126 311.059ZM63.3226 309.618C63.7269 309.618 64.065 309.507 64.3368 309.285C64.6086 309.059 64.8107 308.758 64.9433 308.38C65.0792 308.002 65.1472 307.581 65.1472 307.117C65.1472 306.65 65.0792 306.227 64.9433 305.849C64.8107 305.468 64.6086 305.165 64.3368 304.939C64.065 304.714 63.7269 304.601 63.3226 304.601C62.9083 304.601 62.5636 304.714 62.2885 304.939C62.0167 305.165 61.8129 305.468 61.677 305.849C61.5444 306.227 61.4781 306.65 61.4781 307.117C61.4781 307.581 61.5444 308.002 61.677 308.38C61.8129 308.758 62.0167 309.059 62.2885 309.285C62.5636 309.507 62.9083 309.618 63.3226 309.618ZM68.4993 310.91V303.274H70.2443V304.547H70.3238C70.463 304.106 70.7017 303.766 71.0397 303.527C71.3811 303.286 71.7706 303.165 72.2081 303.165C72.3075 303.165 72.4185 303.17 72.5412 303.179C72.6671 303.186 72.7715 303.198 72.8544 303.214V304.87C72.7781 304.843 72.6572 304.82 72.4914 304.8C72.329 304.777 72.1716 304.765 72.0191 304.765C71.691 304.765 71.396 304.837 71.1342 304.979C70.8757 305.118 70.6718 305.312 70.5227 305.561C70.3735 305.809 70.299 306.096 70.299 306.421V310.91H68.4993ZM81.3359 303.274V304.666H76.946V303.274H81.3359ZM78.0298 301.444H79.8295V308.613C79.8295 308.855 79.866 309.041 79.9389 309.17C80.0151 309.296 80.1145 309.382 80.2372 309.429C80.3598 309.475 80.4957 309.498 80.6449 309.498C80.7575 309.498 80.8603 309.49 80.9531 309.474C81.0492 309.457 81.1221 309.442 81.1718 309.429L81.4751 310.836C81.379 310.869 81.2414 310.905 81.0625 310.945C80.8868 310.985 80.6714 311.008 80.4162 311.015C79.9654 311.028 79.5594 310.96 79.1981 310.811C78.8368 310.658 78.5502 310.423 78.338 310.105C78.1292 309.787 78.0265 309.389 78.0298 308.912V301.444ZM86.1397 311.059C85.3741 311.059 84.7129 310.9 84.156 310.582C83.6025 310.261 83.1766 309.807 82.8783 309.22C82.58 308.63 82.4309 307.936 82.4309 307.137C82.4309 306.351 82.58 305.662 82.8783 305.069C83.1799 304.472 83.6009 304.008 84.1411 303.677C84.6814 303.342 85.3161 303.175 86.0452 303.175C86.5159 303.175 86.96 303.251 87.3776 303.403C87.7986 303.552 88.1698 303.784 88.4913 304.099C88.8161 304.414 89.0713 304.815 89.2569 305.302C89.4425 305.786 89.5353 306.363 89.5353 307.032V307.584H83.2761V306.371H87.8102C87.8068 306.027 87.7323 305.72 87.5864 305.451C87.4406 305.18 87.2368 304.966 86.9749 304.81C86.7164 304.654 86.4148 304.576 86.0701 304.576C85.7022 304.576 85.379 304.666 85.1006 304.845C84.8222 305.021 84.6051 305.253 84.4494 305.541C84.2969 305.826 84.219 306.139 84.2157 306.481V307.54C84.2157 307.984 84.2969 308.365 84.4593 308.683C84.6217 308.998 84.8487 309.24 85.1404 309.409C85.4321 309.575 85.7735 309.657 86.1646 309.657C86.4264 309.657 86.6634 309.621 86.8755 309.548C87.0876 309.472 87.2716 309.361 87.4273 309.215C87.5831 309.069 87.7008 308.889 87.7803 308.673L89.4607 308.862C89.3547 309.306 89.1525 309.694 88.8542 310.025C88.5592 310.353 88.1814 310.609 87.7207 310.791C87.26 310.97 86.733 311.059 86.1397 311.059ZM92.3654 303.274L93.9066 306.093L95.4726 303.274H97.3767L95.0749 307.092L97.4165 310.91H95.5223L93.9066 308.161L92.3057 310.91H90.3966L92.7233 307.092L90.4563 303.274H92.3654ZM102.582 303.274V304.666H98.1921V303.274H102.582ZM99.2759 301.444H101.076V308.613C101.076 308.855 101.112 309.041 101.185 309.17C101.261 309.296 101.361 309.382 101.483 309.429C101.606 309.475 101.742 309.498 101.891 309.498C102.004 309.498 102.106 309.49 102.199 309.474C102.295 309.457 102.368 309.442 102.418 309.429L102.721 310.836C102.625 310.869 102.488 310.905 102.309 310.945C102.133 310.985 101.917 311.008 101.662 311.015C101.211 311.028 100.805 310.96 100.444 310.811C100.083 310.658 99.7962 310.423 99.5841 310.105C99.3753 309.787 99.2726 309.389 99.2759 308.912V301.444Z"
     fill="black"
     id="path10" />
  <rect
     x="207.915"
     y="2.5"
     width="92.7741"
     height="92.7741"
     rx="38"
     fill="white"
     stroke="#292929"
     stroke-width="5"
     id="rect12" />
  <path
     fill-rule="evenodd"
     clip-rule="evenodd"
     d="M267.174 28.6172C259.074 20.9584 245.943 20.9584 237.843 28.6172C235.177 31.1385 233.389 34.173 232.477 37.3839C232.37 37.7623 232.061 38.0604 231.662 38.1703C226.293 39.6482 222.367 44.338 222.367 49.8957C222.367 56.643 228.151 62.1059 235.276 62.1059H272.874C278.269 62.1059 282.65 57.9694 282.65 52.8582C282.65 48.197 279.004 44.3441 274.271 43.704C273.683 43.6245 273.247 43.1485 273.25 42.5888C273.277 37.5324 271.251 32.4727 267.174 28.6172ZM236.157 27.0348C245.187 18.4967 259.829 18.4967 268.859 27.0348C273.151 31.0923 275.402 36.3494 275.613 41.6618C281.01 42.8372 285.029 47.4054 285.029 52.8582C285.029 59.1999 279.591 64.3478 272.874 64.3478H235.276C226.828 64.3478 219.988 57.8735 219.988 49.8957C219.988 43.5414 224.326 38.1444 230.358 36.2081C231.42 32.85 233.354 29.6856 236.157 27.0348Z"
     fill="#292929"
     id="path14" />
  <path
     fill-rule="evenodd"
     clip-rule="evenodd"
     d="M235.849 26.7089C245.052 18.0073 259.965 18.0073 269.167 26.7089C273.452 30.7605 275.747 35.9901 276.045 41.3015C281.458 42.6308 285.478 47.2884 285.478 52.8582C285.478 59.4709 279.815 64.7963 272.874 64.7963H235.276C226.605 64.7963 219.539 58.1445 219.539 49.8957C219.539 43.4052 223.916 37.9028 230.001 35.8534C231.1 32.5043 233.052 29.3543 235.849 26.7089ZM268.551 27.3607C259.694 18.9861 245.323 18.9861 236.466 27.3607C233.718 29.9591 231.825 33.0579 230.785 36.3434C230.741 36.482 230.633 36.5907 230.495 36.6351C224.629 38.518 220.436 43.7556 220.436 49.8957C220.436 57.6025 227.052 63.8993 235.276 63.8993H272.874C279.367 63.8993 284.581 58.9289 284.581 52.8582C284.581 47.6372 280.73 43.2352 275.518 42.1001C275.318 42.0566 275.173 41.8838 275.165 41.6797C274.958 36.4834 272.757 31.3372 268.551 27.3607ZM266.865 28.9431C258.938 21.4478 246.078 21.4478 238.151 28.9431C235.543 31.4089 233.798 34.3731 232.909 37.5064C232.756 38.0449 232.321 38.4539 231.781 38.6027C226.587 40.0325 222.816 44.5598 222.816 49.8957C222.816 56.3719 228.374 61.6574 235.276 61.6574H272.874C278.045 61.6574 282.201 57.6983 282.201 52.8582C282.201 48.4433 278.744 44.7615 274.211 44.1485C273.42 44.0416 272.797 43.3917 272.802 42.5865C272.828 37.6532 270.852 32.7126 266.865 28.9431ZM237.535 28.2913C245.808 20.469 259.209 20.469 267.482 28.2913C271.65 32.2328 273.726 37.4117 273.699 42.5912C273.697 42.9054 273.946 43.2075 274.331 43.2596C279.265 43.9267 283.098 47.9507 283.098 52.8582C283.098 58.2405 278.492 62.5544 272.874 62.5544H235.276C227.927 62.5544 221.919 56.9141 221.919 49.8957C221.919 44.1163 225.999 39.2639 231.543 37.7379C231.8 37.667 231.984 37.4797 232.046 37.2614C232.979 33.9729 234.81 30.8681 237.535 28.2913Z"
     fill="#292929"
     id="path16" />
  <circle
     cx="264.593"
     cy="59.5984"
     r="17.5445"
     fill="white"
     id="circle18" />
  <path
     fill-rule="evenodd"
     clip-rule="evenodd"
     d="M261.952 46.329V48.6495C261.952 51.6446 258.722 53.5317 256.128 52.0255L254.136 50.8686C253.08 52.1207 252.272 53.5459 251.734 55.0642L253.728 56.2224C256.313 57.7237 256.313 61.4731 253.728 62.9744L251.732 64.1337C252 64.8858 252.338 65.6248 252.75 66.3421C253.16 67.0571 253.626 67.7196 254.137 68.3274L256.128 67.1712C258.722 65.6649 261.952 67.5521 261.952 70.5472L261.952 72.8642C263.526 73.1538 265.155 73.162 266.759 72.8678V70.5473C266.759 67.5522 269.989 65.665 272.582 67.1713L274.575 68.3282C275.631 67.0761 276.439 65.6509 276.977 64.1326L274.983 62.9743C272.398 61.4731 272.398 57.7236 274.983 56.2223L276.979 55.063C276.711 54.3109 276.373 53.5719 275.961 52.8547C275.551 52.1396 275.085 51.4771 274.574 50.8693L272.582 52.0255C269.989 53.5318 266.759 51.6446 266.759 48.6495L266.759 46.3326C265.185 46.043 263.556 46.0348 261.952 46.329ZM261.048 45.0073C263.253 44.5012 265.514 44.518 267.663 45.0111C267.999 45.0881 268.237 45.3868 268.237 45.7311V48.6495C268.237 50.5206 270.245 51.6747 271.841 50.7479L274.356 49.2871C274.656 49.1131 275.036 49.1708 275.271 49.4258C276.012 50.2309 276.675 51.1306 277.242 52.1192C277.81 53.1078 278.253 54.1353 278.575 55.1829C278.677 55.5115 278.538 55.8665 278.24 56.0392L275.725 57.5C274.12 58.4317 274.12 60.7649 275.725 61.6967L278.238 63.156C278.535 63.3285 278.674 63.683 278.573 64.0114C277.924 66.1282 276.808 68.1052 275.271 69.7721C275.036 70.0265 274.656 70.0838 274.357 69.91L271.841 68.4489C270.245 67.5221 268.237 68.6763 268.237 70.5473V73.4695C268.237 73.8138 267.999 74.1125 267.663 74.1895C265.458 74.6956 263.197 74.6788 261.048 74.1857C260.712 74.1087 260.474 73.81 260.474 73.4657V70.5472C260.474 68.6761 258.466 67.522 256.87 68.4488L254.355 69.9096C254.055 70.0836 253.675 70.0259 253.44 69.771C252.699 68.9658 252.036 68.0662 251.469 67.0776C250.901 66.0889 250.458 65.0615 250.136 64.0138C250.034 63.6852 250.173 63.3302 250.471 63.1576L252.986 61.6968C254.591 60.765 254.591 58.4318 252.986 57.5L250.473 56.0408C250.176 55.8683 250.037 55.5138 250.138 55.1854C250.787 53.0686 251.903 51.0916 253.44 49.4247C253.675 49.1703 254.055 49.113 254.354 49.2868L256.87 50.7479C258.466 51.6747 260.474 50.5205 260.474 48.6495V45.7273C260.474 45.383 260.712 45.0843 261.048 45.0073ZM264.356 57.1765C263.032 57.1765 261.952 58.2568 261.952 59.5984C261.952 60.9401 263.032 62.0203 264.356 62.0203C265.679 62.0203 266.759 60.9401 266.759 59.5984C266.759 58.2568 265.679 57.1765 264.356 57.1765ZM260.474 59.5984C260.474 57.4489 262.208 55.6991 264.356 55.6991C266.503 55.6991 268.237 57.4489 268.237 59.5984C268.237 61.7479 266.503 63.4978 264.356 63.4978C262.208 63.4978 260.474 61.7479 260.474 59.5984Z"
     fill="#292929"
     id="path20" />
  <path
     fill-rule="evenodd"
     clip-rule="evenodd"
     d="M260.947 44.5702C263.22 44.0486 265.55 44.066 267.763 44.574C268.303 44.6978 268.685 45.1777 268.685 45.7311V48.6495C268.685 50.1783 270.321 51.1115 271.615 50.3601L274.131 48.8993C274.612 48.6196 275.224 48.7123 275.601 49.1221C276.364 49.9516 277.047 50.8782 277.631 51.8959C278.216 52.9136 278.672 53.9717 279.004 55.0508C279.167 55.5789 278.943 56.1495 278.466 56.427L275.95 57.8878C274.643 58.6467 274.643 60.5499 275.95 61.3089L278.463 62.7681C278.94 63.0454 279.164 63.6151 279.002 64.143C278.333 66.3224 277.184 68.3588 275.6 70.0762C275.223 70.4851 274.612 70.5772 274.131 70.2979L271.615 68.8368C270.321 68.0853 268.685 69.0185 268.685 70.5473V73.4695C268.685 74.0229 268.303 74.5028 267.763 74.6266C265.491 75.1482 263.161 75.1308 260.947 74.6228C260.408 74.499 260.026 74.019 260.026 73.4657L260.026 70.5472C260.026 69.0184 258.39 68.0852 257.096 68.8366L254.58 70.2974C254.098 70.5771 253.487 70.4844 253.11 70.0747C252.347 69.2451 251.664 68.3186 251.08 67.3009C250.495 66.2831 250.039 65.225 249.707 64.1459C249.544 63.6178 249.767 63.0472 250.245 62.7697L252.761 61.3089C254.068 60.55 254.068 58.6468 252.761 57.8879L250.248 56.4287C249.771 56.1514 249.547 55.5817 249.709 55.0538C250.378 52.8744 251.527 50.838 253.111 49.1206C253.488 48.7117 254.098 48.6196 254.58 48.8989L257.096 50.36C258.39 51.1114 260.026 50.1783 260.026 48.6495V45.7273C260.026 45.1739 260.408 44.694 260.947 44.5702ZM267.563 45.4483C265.479 44.9699 263.286 44.9538 261.148 45.4444C261.016 45.4747 260.923 45.592 260.923 45.7273V48.6495C260.923 50.8628 258.543 52.2379 256.645 51.1357L254.129 49.6746C254.011 49.6063 253.862 49.6289 253.77 49.7288C252.279 51.3451 251.197 53.2629 250.567 55.3169C250.527 55.4459 250.582 55.5852 250.698 55.653L253.211 57.1122C255.114 58.2169 255.114 60.98 253.211 62.0846L250.696 63.5454C250.579 63.6132 250.524 63.7527 250.564 63.8818C250.877 64.8979 251.307 65.8947 251.858 66.8543C252.408 67.8139 253.052 68.6865 253.77 69.4673L253.44 69.771L253.77 69.4673C253.862 69.5674 254.012 69.5901 254.13 69.5217L256.645 68.0609C258.543 66.9587 260.923 68.3339 260.923 70.5472L260.923 73.4657C260.923 73.6009 261.016 73.7183 261.148 73.7485C263.232 74.2269 265.425 74.243 267.563 73.7524C267.695 73.7221 267.788 73.6048 267.788 73.4695V70.5473C267.788 68.334 270.168 66.9588 272.066 68.0611L274.582 69.5222C274.699 69.5905 274.849 69.5679 274.941 69.468C276.432 67.8517 277.514 65.9339 278.144 63.8799C278.184 63.7509 278.129 63.6116 278.012 63.5438L275.5 62.0846C273.597 60.9799 273.597 58.2168 275.5 57.1121L278.015 55.6513C278.132 55.5835 278.187 55.444 278.147 55.3149C277.834 54.2989 277.404 53.302 276.853 52.3425C276.303 51.3829 275.659 50.5102 274.941 49.7294C274.848 49.6293 274.699 49.6066 274.581 49.675L272.066 51.1358C270.168 52.238 267.788 50.8628 267.788 48.6495V45.7311C267.788 45.5958 267.695 45.4785 267.563 45.4483ZM262.4 46.7083V48.6495C262.4 51.9852 258.8 54.0958 255.903 52.4134L254.241 51.4482C253.414 52.4883 252.758 53.6428 252.285 54.8659L253.953 55.8346C256.836 57.5087 256.836 61.6881 253.953 63.3623L252.284 64.3316C252.52 64.9387 252.804 65.536 253.139 66.1188C253.471 66.698 253.841 67.2413 254.243 67.7476L255.903 66.7833C258.8 65.1009 262.4 67.2114 262.4 70.5472L262.4 72.4852C263.686 72.6837 265.005 72.6888 266.311 72.4885V70.5473C266.311 67.2116 269.91 65.101 272.808 66.7834L274.47 67.7486C275.297 66.7085 275.953 65.554 276.426 64.3309L274.758 63.3622C271.875 61.6881 271.875 57.5086 274.758 55.8345L276.427 54.8651C276.191 54.2581 275.907 53.6607 275.572 53.078C275.24 52.4987 274.87 51.9554 274.468 51.4491L272.808 52.4134C269.91 54.0958 266.311 51.9853 266.311 48.6495L266.311 46.7116C265.025 46.5131 263.706 46.508 262.4 46.7083ZM261.871 45.8878C263.53 45.5837 265.214 45.5923 266.84 45.8915C267.053 45.9307 267.208 46.1162 267.208 46.3326L267.208 48.6495C267.208 51.304 270.067 52.9677 272.357 51.6377L274.348 50.4815C274.537 50.3721 274.776 50.4139 274.917 50.5805C275.445 51.2087 275.926 51.8931 276.35 52.6314C276.775 53.372 277.125 54.1353 277.402 54.9125C277.474 55.1161 277.391 55.3424 277.204 55.4509L275.208 56.6102C272.921 57.9386 272.921 61.2581 275.208 62.5865L277.203 63.7447C277.389 63.8531 277.472 64.0789 277.4 64.2823C276.844 65.8507 276.009 67.3233 274.917 68.6174C274.777 68.7838 274.538 68.8253 274.349 68.7161L272.357 67.5591C270.067 66.2291 267.208 67.8928 267.208 70.5473V72.8678C267.208 73.0843 267.053 73.2699 266.84 73.309C265.181 73.6131 263.497 73.6045 261.871 73.3053C261.658 73.2661 261.503 73.0806 261.503 72.8642L261.503 70.5472C261.503 67.8927 258.644 66.229 256.354 67.559L254.363 68.7152C254.174 68.8246 253.934 68.7829 253.794 68.6162C253.265 67.9881 252.785 67.3037 252.361 66.5654C251.936 65.8248 251.586 65.0614 251.309 64.2842C251.237 64.0807 251.32 63.8543 251.506 63.7458L253.503 62.5866C255.79 61.2582 255.79 57.9386 253.503 56.6103L251.508 55.4521C251.322 55.3437 251.239 55.1179 251.311 54.9145C251.866 53.3461 252.701 51.8735 253.793 50.5794C253.934 50.413 254.173 50.3715 254.361 50.4808L256.354 51.6377C258.644 52.9677 261.503 51.304 261.503 48.6495V46.329C261.503 46.1125 261.658 45.9269 261.871 45.8878ZM260.026 59.5984C260.026 57.2038 261.958 55.2506 264.355 55.2506C266.753 55.2506 268.685 57.2038 268.685 59.5984C268.685 61.993 266.753 63.9463 264.355 63.9463C261.958 63.9463 260.026 61.993 260.026 59.5984ZM264.355 56.1476C262.458 56.1476 260.923 57.694 260.923 59.5984C260.923 61.5028 262.458 63.0493 264.355 63.0493C266.253 63.0493 267.788 61.5028 267.788 59.5984C267.788 57.694 266.253 56.1476 264.355 56.1476ZM264.355 57.625C263.282 57.625 262.4 58.5023 262.4 59.5984C262.4 60.6946 263.282 61.5718 264.355 61.5718C265.429 61.5718 266.311 60.6946 266.311 59.5984C266.311 58.5023 265.429 57.625 264.355 57.625ZM261.503 59.5984C261.503 58.0113 262.782 56.728 264.355 56.728C265.929 56.728 267.208 58.0113 267.208 59.5984C267.208 61.1855 265.929 62.4689 264.355 62.4689C262.782 62.4689 261.503 61.1855 261.503 59.5984Z"
     fill="#292929"
     id="path22" />
  <path
     d="M239.622 47.2876H238.441L241.858 37.9821H243.021L246.438 47.2876H245.257L242.476 39.4543H242.403L239.622 47.2876ZM240.059 43.6527H244.82V44.6523H240.059V43.6527Z"
     fill="#292929"
     id="path24" />
  <path
     d="M247.887 47.2876V37.9821H251.032C251.762 37.9821 252.358 38.1139 252.822 38.3774C253.288 38.6379 253.634 38.9908 253.858 39.4361C254.082 39.8814 254.194 40.3782 254.194 40.9265C254.194 41.4747 254.082 41.973 253.858 42.4213C253.637 42.8696 253.294 43.2271 252.831 43.4937C252.367 43.7572 251.774 43.889 251.05 43.889H248.796V42.8893H251.013C251.513 42.8893 251.915 42.803 252.218 42.6303C252.52 42.4577 252.74 42.2244 252.876 41.9306C253.016 41.6338 253.085 41.299 253.085 40.9265C253.085 40.5539 253.016 40.2207 252.876 39.9268C252.74 39.633 252.519 39.4028 252.213 39.2362C251.907 39.0666 251.501 38.9817 250.995 38.9817H249.014V47.2876H247.887Z"
     fill="#292929"
     id="path26" />
  <path
     d="M257.136 37.9821V47.2876H256.009V37.9821H257.136Z"
     fill="#292929"
     id="path28" />
  <path
     d="M214.937 113.101H213.078C213.025 112.796 212.927 112.526 212.784 112.29C212.642 112.052 212.465 111.85 212.252 111.684C212.04 111.518 211.798 111.394 211.527 111.311C211.258 111.225 210.968 111.182 210.657 111.182C210.103 111.182 209.613 111.321 209.185 111.599C208.757 111.874 208.423 112.279 208.181 112.812C207.939 113.343 207.818 113.991 207.818 114.756C207.818 115.535 207.939 116.191 208.181 116.725C208.426 117.255 208.761 117.656 209.185 117.928C209.613 118.197 210.101 118.331 210.652 118.331C210.957 118.331 211.242 118.291 211.507 118.212C211.775 118.129 212.015 118.008 212.228 117.849C212.443 117.69 212.624 117.494 212.77 117.262C212.919 117.03 213.021 116.765 213.078 116.466L214.937 116.476C214.868 116.96 214.717 117.414 214.485 117.839C214.256 118.263 213.956 118.637 213.585 118.962C213.214 119.284 212.779 119.536 212.282 119.718C211.785 119.897 211.233 119.986 210.627 119.986C209.732 119.986 208.933 119.779 208.23 119.365C207.528 118.951 206.974 118.352 206.57 117.57C206.166 116.788 205.963 115.85 205.963 114.756C205.963 113.659 206.167 112.721 206.575 111.942C206.983 111.16 207.538 110.562 208.24 110.148C208.943 109.733 209.738 109.526 210.627 109.526C211.194 109.526 211.72 109.606 212.208 109.765C212.695 109.924 213.129 110.158 213.51 110.466C213.891 110.771 214.205 111.145 214.45 111.589C214.698 112.03 214.861 112.534 214.937 113.101ZM219.878 119.996C219.132 119.996 218.486 119.832 217.939 119.504C217.392 119.176 216.968 118.717 216.666 118.127C216.368 117.537 216.219 116.848 216.219 116.059C216.219 115.27 216.368 114.579 216.666 113.986C216.968 113.392 217.392 112.932 217.939 112.604C218.486 112.275 219.132 112.111 219.878 112.111C220.623 112.111 221.27 112.275 221.817 112.604C222.363 112.932 222.786 113.392 223.084 113.986C223.386 114.579 223.537 115.27 223.537 116.059C223.537 116.848 223.386 117.537 223.084 118.127C222.786 118.717 222.363 119.176 221.817 119.504C221.27 119.832 220.623 119.996 219.878 119.996ZM219.888 118.555C220.292 118.555 220.63 118.444 220.902 118.221C221.174 117.996 221.376 117.694 221.508 117.317C221.644 116.939 221.712 116.518 221.712 116.054C221.712 115.587 221.644 115.164 221.508 114.786C221.376 114.405 221.174 114.102 220.902 113.876C220.63 113.651 220.292 113.538 219.888 113.538C219.473 113.538 219.129 113.651 218.853 113.876C218.582 114.102 218.378 114.405 218.242 114.786C218.109 115.164 218.043 115.587 218.043 116.054C218.043 116.518 218.109 116.939 218.242 117.317C218.378 117.694 218.582 117.996 218.853 118.221C219.129 118.444 219.473 118.555 219.888 118.555ZM228.385 122.87C227.739 122.87 227.184 122.782 226.72 122.606C226.256 122.434 225.883 122.202 225.601 121.91C225.319 121.619 225.124 121.296 225.015 120.941L226.635 120.548C226.708 120.697 226.814 120.845 226.953 120.991C227.093 121.14 227.28 121.262 227.515 121.359C227.754 121.458 228.054 121.508 228.415 121.508C228.926 121.508 229.348 121.383 229.683 121.135C230.018 120.89 230.185 120.485 230.185 119.922V118.475H230.095C230.003 118.661 229.867 118.851 229.688 119.047C229.512 119.242 229.278 119.406 228.987 119.539C228.698 119.672 228.336 119.738 227.898 119.738C227.311 119.738 226.779 119.6 226.302 119.325C225.828 119.047 225.45 118.632 225.169 118.082C224.89 117.529 224.751 116.836 224.751 116.004C224.751 115.166 224.89 114.458 225.169 113.881C225.45 113.301 225.83 112.862 226.307 112.564C226.784 112.262 227.316 112.111 227.903 112.111C228.35 112.111 228.718 112.188 229.007 112.34C229.298 112.489 229.53 112.67 229.703 112.882C229.875 113.091 230.006 113.288 230.095 113.474H230.195V112.211H231.97V119.971C231.97 120.624 231.814 121.165 231.502 121.592C231.191 122.02 230.765 122.34 230.225 122.552C229.685 122.764 229.071 122.87 228.385 122.87ZM228.4 118.326C228.781 118.326 229.106 118.233 229.375 118.047C229.643 117.862 229.847 117.595 229.986 117.247C230.125 116.899 230.195 116.481 230.195 115.994C230.195 115.514 230.125 115.093 229.986 114.731C229.85 114.37 229.648 114.09 229.38 113.891C229.114 113.689 228.788 113.588 228.4 113.588C227.999 113.588 227.664 113.692 227.396 113.901C227.127 114.11 226.925 114.397 226.789 114.761C226.653 115.123 226.586 115.533 226.586 115.994C226.586 116.462 226.653 116.871 226.789 117.222C226.929 117.57 227.132 117.842 227.401 118.038C227.673 118.23 228.006 118.326 228.4 118.326ZM235.614 115.373V119.847H233.814V112.211H235.534V113.508H235.624C235.8 113.081 236.08 112.741 236.464 112.489C236.852 112.237 237.331 112.111 237.901 112.111C238.428 112.111 238.887 112.224 239.278 112.449C239.672 112.675 239.977 113.001 240.193 113.429C240.412 113.856 240.519 114.375 240.516 114.985V119.847H238.716V115.263C238.716 114.753 238.584 114.354 238.319 114.065C238.057 113.777 237.694 113.633 237.23 113.633C236.915 113.633 236.635 113.702 236.39 113.841C236.148 113.977 235.957 114.175 235.818 114.433C235.682 114.692 235.614 115.005 235.614 115.373ZM242.345 119.847V112.211H244.145V119.847H242.345ZM243.25 111.127C242.965 111.127 242.72 111.033 242.515 110.844C242.309 110.651 242.206 110.421 242.206 110.153C242.206 109.881 242.309 109.65 242.515 109.462C242.72 109.269 242.965 109.173 243.25 109.173C243.539 109.173 243.784 109.269 243.986 109.462C244.192 109.65 244.294 109.881 244.294 110.153C244.294 110.421 244.192 110.651 243.986 110.844C243.784 111.033 243.539 111.127 243.25 111.127ZM249.809 112.211V113.603H245.419V112.211H249.809ZM246.503 110.381H248.303V117.55C248.303 117.792 248.339 117.978 248.412 118.107C248.488 118.233 248.588 118.319 248.71 118.366C248.833 118.412 248.969 118.435 249.118 118.435C249.231 118.435 249.333 118.427 249.426 118.41C249.522 118.394 249.595 118.379 249.645 118.366L249.948 119.773C249.852 119.806 249.715 119.842 249.536 119.882C249.36 119.922 249.145 119.945 248.889 119.952C248.439 119.965 248.033 119.897 247.671 119.748C247.31 119.595 247.023 119.36 246.811 119.042C246.602 118.724 246.5 118.326 246.503 117.849V110.381ZM251.314 119.847V112.211H253.114V119.847H251.314ZM252.219 111.127C251.934 111.127 251.689 111.033 251.483 110.844C251.278 110.651 251.175 110.421 251.175 110.153C251.175 109.881 251.278 109.65 251.483 109.462C251.689 109.269 251.934 109.173 252.219 109.173C252.507 109.173 252.753 109.269 252.955 109.462C253.16 109.65 253.263 109.881 253.263 110.153C253.263 110.421 253.16 110.651 252.955 110.844C252.753 111.033 252.507 111.127 252.219 111.127ZM261.786 112.211L259.066 119.847H257.078L254.358 112.211H256.277L258.032 117.883H258.112L259.872 112.211H261.786ZM266.152 119.996C265.386 119.996 264.725 119.837 264.168 119.519C263.615 119.198 263.189 118.743 262.891 118.157C262.592 117.567 262.443 116.873 262.443 116.074C262.443 115.288 262.592 114.599 262.891 114.006C263.192 113.409 263.613 112.945 264.153 112.614C264.694 112.279 265.328 112.111 266.057 112.111C266.528 112.111 266.972 112.188 267.39 112.34C267.811 112.489 268.182 112.721 268.504 113.036C268.828 113.351 269.084 113.752 269.269 114.239C269.455 114.723 269.548 115.3 269.548 115.969V116.521H263.288V115.308H267.822C267.819 114.963 267.745 114.657 267.599 114.388C267.453 114.117 267.249 113.903 266.987 113.747C266.729 113.591 266.427 113.513 266.082 113.513C265.714 113.513 265.391 113.603 265.113 113.782C264.834 113.957 264.617 114.19 264.462 114.478C264.309 114.763 264.231 115.076 264.228 115.417V116.476C264.228 116.921 264.309 117.302 264.472 117.62C264.634 117.935 264.861 118.177 265.153 118.346C265.444 118.511 265.786 118.594 266.177 118.594C266.439 118.594 266.676 118.558 266.888 118.485C267.1 118.409 267.284 118.298 267.44 118.152C267.595 118.006 267.713 117.825 267.793 117.61L269.473 117.799C269.367 118.243 269.165 118.631 268.866 118.962C268.571 119.29 268.194 119.546 267.733 119.728C267.272 119.907 266.745 119.996 266.152 119.996ZM275.93 119.847H273.961L277.546 109.665H279.823L283.412 119.847H281.443L278.724 111.753H278.644L275.93 119.847ZM275.994 115.855H281.364V117.337H275.994V115.855ZM284.753 119.847V109.665H288.571C289.354 109.665 290.01 109.811 290.54 110.103C291.074 110.395 291.476 110.796 291.748 111.306C292.023 111.813 292.161 112.39 292.161 113.036C292.161 113.689 292.023 114.269 291.748 114.776C291.473 115.283 291.067 115.683 290.53 115.974C289.993 116.263 289.332 116.407 288.546 116.407H286.016V114.89H288.298C288.755 114.89 289.13 114.811 289.421 114.652C289.713 114.493 289.929 114.274 290.068 113.996C290.21 113.717 290.282 113.397 290.282 113.036C290.282 112.675 290.21 112.357 290.068 112.082C289.929 111.806 289.711 111.593 289.417 111.44C289.125 111.284 288.749 111.207 288.288 111.207H286.598V119.847H284.753ZM295.607 109.665V119.847H293.763V109.665H295.607ZM303.561 114.229L301.92 114.408C301.874 114.243 301.792 114.087 301.676 113.941C301.564 113.795 301.411 113.677 301.219 113.588C301.027 113.498 300.792 113.454 300.513 113.454C300.139 113.454 299.824 113.535 299.569 113.697C299.317 113.86 299.192 114.07 299.196 114.329C299.192 114.551 299.274 114.731 299.439 114.871C299.608 115.01 299.887 115.124 300.274 115.214L301.577 115.492C302.3 115.648 302.836 115.895 303.188 116.233C303.542 116.571 303.721 117.013 303.725 117.56C303.721 118.041 303.581 118.465 303.302 118.833C303.027 119.198 302.644 119.483 302.154 119.688C301.663 119.894 301.1 119.996 300.463 119.996C299.529 119.996 298.776 119.801 298.206 119.41C297.636 119.015 297.296 118.467 297.187 117.764L298.942 117.595C299.022 117.94 299.191 118.2 299.449 118.376C299.708 118.551 300.044 118.639 300.458 118.639C300.886 118.639 301.229 118.551 301.488 118.376C301.749 118.2 301.88 117.983 301.88 117.724C301.88 117.506 301.796 117.325 301.627 117.182C301.461 117.04 301.202 116.931 300.851 116.854L299.549 116.581C298.816 116.428 298.274 116.172 297.923 115.81C297.572 115.446 297.398 114.985 297.401 114.428C297.398 113.957 297.525 113.55 297.784 113.205C298.046 112.857 298.408 112.589 298.872 112.4C299.34 112.207 299.878 112.111 300.488 112.111C301.383 112.111 302.087 112.302 302.601 112.683C303.118 113.064 303.438 113.58 303.561 114.229Z"
     fill="black"
     id="path30" />
  <rect
     x="403.463"
     y="194.46"
     width="92.7741"
     height="92.7741"
     rx="38"
     fill="white"
     stroke="#292929"
     stroke-width="5"
     id="rect32" />
  <path
     d="M437.043 267.961C433.374 267.961 430.771 267.107 429.235 265.398C427.699 263.71 426.931 260.88 426.931 256.907V246.593L423.76 245.358C422.683 244.864 422.144 244.02 422.144 242.826V241.097C422.144 239.903 422.683 239.059 423.76 238.565L426.931 237.268V226.955C426.931 224.134 427.26 221.87 427.919 220.161C428.577 218.453 429.644 217.217 431.12 216.456C432.596 215.674 434.57 215.282 437.043 215.282C437.622 215.282 438.111 215.499 438.509 215.931C438.928 216.343 439.138 216.847 439.138 217.444C439.138 218.02 438.928 218.525 438.509 218.957C438.111 219.389 437.622 219.605 437.043 219.605C435.827 219.605 434.83 219.708 434.052 219.914C433.294 220.099 432.695 220.46 432.257 220.995C431.838 221.51 431.539 222.251 431.359 223.218C431.2 224.186 431.12 225.431 431.12 226.955V238.38C431.12 239.697 430.581 240.541 429.504 240.912L424.418 242.703V241.22L429.504 242.95C430.581 243.32 431.12 244.164 431.12 245.482V256.907C431.12 258.78 431.269 260.201 431.569 261.168C431.868 262.136 432.436 262.784 433.274 263.113C434.131 263.463 435.388 263.638 437.043 263.638C437.622 263.638 438.111 263.844 438.509 264.256C438.928 264.688 439.138 265.203 439.138 265.8C439.138 266.376 438.928 266.881 438.509 267.313C438.111 267.745 437.622 267.961 437.043 267.961Z"
     fill="#292929"
     id="path34" />
  <path
     d="M463.323 215.282C466.993 215.282 469.596 216.137 471.132 217.845C472.667 219.533 473.435 222.364 473.435 226.337L473.435 236.65L476.606 237.886C477.684 238.38 478.222 239.224 478.222 240.418L478.222 242.147C478.222 243.341 477.684 244.185 476.606 244.679L473.435 245.976L473.435 256.289C473.435 259.109 473.106 261.374 472.448 263.083C471.79 264.791 470.723 266.026 469.247 266.788C467.771 267.57 465.796 267.961 463.323 267.961C462.745 267.961 462.256 267.745 461.857 267.313C461.438 266.901 461.229 266.397 461.229 265.8C461.229 265.223 461.438 264.719 461.857 264.287C462.256 263.854 462.745 263.638 463.323 263.638C464.54 263.638 465.537 263.535 466.315 263.33C467.073 263.144 467.671 262.784 468.11 262.249C468.529 261.734 468.828 260.993 469.007 260.026C469.167 259.058 469.247 257.813 469.247 256.289L469.247 244.864C469.247 243.547 469.785 242.703 470.862 242.332L475.948 240.541L475.948 242.023L470.862 240.294C469.785 239.924 469.247 239.08 469.247 237.762L469.247 226.337C469.247 224.464 469.097 223.043 468.798 222.076C468.499 221.108 467.93 220.46 467.093 220.13C466.235 219.78 464.979 219.605 463.323 219.605C462.745 219.605 462.256 219.4 461.857 218.988C461.438 218.556 461.229 218.041 461.229 217.444C461.229 216.867 461.438 216.363 461.857 215.931C462.256 215.499 462.745 215.282 463.323 215.282Z"
     fill="#292929"
     id="path36" />
  <circle
     cx="440.182"
     cy="243.467"
     r="2.25474"
     fill="#292929"
     id="circle38" />
  <circle
     cx="450.329"
     cy="243.467"
     r="2.25474"
     fill="#292929"
     id="circle40" />
  <circle
     cx="460.475"
     cy="243.467"
     r="2.25474"
     fill="#292929"
     id="circle42" />
  <path
     d="M411.471 307.322H409.503L413.087 297.14H415.364L418.954 307.322H416.985L414.265 299.229H414.186L411.471 307.322ZM411.536 303.33H416.905V304.812H411.536V303.33ZM420.295 307.322V297.14H424.113C424.895 297.14 425.551 297.286 426.082 297.578C426.615 297.87 427.018 298.271 427.29 298.781C427.565 299.288 427.702 299.865 427.702 300.511C427.702 301.164 427.565 301.744 427.29 302.251C427.015 302.758 426.609 303.158 426.072 303.449C425.535 303.738 424.874 303.882 424.088 303.882H421.557V302.366H423.839C424.297 302.366 424.671 302.286 424.963 302.127C425.255 301.968 425.47 301.749 425.609 301.471C425.752 301.192 425.823 300.872 425.823 300.511C425.823 300.15 425.752 299.832 425.609 299.557C425.47 299.282 425.253 299.068 424.958 298.915C424.666 298.76 424.29 298.682 423.829 298.682H422.139V307.322H420.295ZM431.149 297.14V307.322H429.304V297.14H431.149ZM436.539 307.322V299.686H438.284V300.959H438.364C438.503 300.518 438.742 300.178 439.08 299.939C439.421 299.697 439.811 299.577 440.248 299.577C440.348 299.577 440.459 299.581 440.581 299.591C440.707 299.598 440.812 299.61 440.894 299.626V301.282C440.818 301.255 440.697 301.232 440.532 301.212C440.369 301.189 440.212 301.177 440.059 301.177C439.731 301.177 439.436 301.249 439.174 301.391C438.916 301.53 438.712 301.724 438.563 301.973C438.414 302.221 438.339 302.508 438.339 302.833V307.322H436.539ZM445.156 307.471C444.391 307.471 443.73 307.312 443.173 306.994C442.619 306.673 442.193 306.219 441.895 305.632C441.597 305.042 441.448 304.348 441.448 303.549C441.448 302.763 441.597 302.074 441.895 301.481C442.197 300.884 442.618 300.42 443.158 300.089C443.698 299.754 444.333 299.586 445.062 299.586C445.533 299.586 445.977 299.663 446.394 299.815C446.815 299.964 447.186 300.196 447.508 300.511C447.833 300.826 448.088 301.227 448.274 301.714C448.459 302.198 448.552 302.775 448.552 303.444V303.996H442.293V302.783H446.827C446.823 302.438 446.749 302.132 446.603 301.863C446.457 301.592 446.253 301.378 445.992 301.222C445.733 301.066 445.431 300.988 445.087 300.988C444.719 300.988 444.396 301.078 444.117 301.257C443.839 301.433 443.622 301.665 443.466 301.953C443.314 302.238 443.236 302.551 443.232 302.893V303.952C443.232 304.396 443.314 304.777 443.476 305.095C443.638 305.41 443.865 305.652 444.157 305.821C444.449 305.987 444.79 306.069 445.181 306.069C445.443 306.069 445.68 306.033 445.892 305.96C446.104 305.884 446.288 305.773 446.444 305.627C446.6 305.481 446.717 305.3 446.797 305.085L448.477 305.274C448.371 305.718 448.169 306.106 447.871 306.437C447.576 306.765 447.198 307.021 446.737 307.203C446.277 307.382 445.75 307.471 445.156 307.471ZM456.11 301.704L454.469 301.883C454.423 301.718 454.342 301.562 454.226 301.416C454.113 301.27 453.961 301.153 453.768 301.063C453.576 300.974 453.341 300.929 453.062 300.929C452.688 300.929 452.373 301.01 452.118 301.172C451.866 301.335 451.742 301.545 451.745 301.804C451.742 302.026 451.823 302.206 451.989 302.346C452.158 302.485 452.436 302.599 452.824 302.689L454.126 302.967C454.849 303.123 455.386 303.37 455.737 303.708C456.092 304.046 456.271 304.488 456.274 305.035C456.271 305.516 456.13 305.94 455.851 306.308C455.576 306.673 455.194 306.958 454.703 307.163C454.213 307.369 453.649 307.471 453.013 307.471C452.078 307.471 451.326 307.276 450.756 306.885C450.186 306.49 449.846 305.942 449.736 305.239L451.491 305.07C451.571 305.415 451.74 305.675 451.999 305.851C452.257 306.026 452.593 306.114 453.008 306.114C453.435 306.114 453.778 306.026 454.037 305.851C454.299 305.675 454.43 305.458 454.43 305.199C454.43 304.981 454.345 304.8 454.176 304.657C454.01 304.515 453.752 304.406 453.4 304.329L452.098 304.056C451.365 303.903 450.824 303.647 450.472 303.285C450.121 302.921 449.947 302.46 449.95 301.903C449.947 301.433 450.075 301.025 450.333 300.68C450.595 300.332 450.958 300.064 451.422 299.875C451.889 299.683 452.428 299.586 453.038 299.586C453.932 299.586 454.637 299.777 455.15 300.158C455.668 300.539 455.987 301.055 456.11 301.704ZM457.758 310.186V299.686H459.528V300.949H459.632C459.725 300.763 459.856 300.566 460.025 300.357C460.194 300.145 460.423 299.964 460.711 299.815C461 299.663 461.367 299.586 461.815 299.586C462.405 299.586 462.937 299.737 463.411 300.039C463.888 300.337 464.266 300.78 464.544 301.366C464.826 301.95 464.967 302.666 464.967 303.514C464.967 304.353 464.829 305.065 464.554 305.652C464.279 306.238 463.905 306.686 463.431 306.994C462.957 307.302 462.42 307.456 461.82 307.456C461.382 307.456 461.019 307.384 460.731 307.238C460.443 307.092 460.211 306.916 460.035 306.711C459.863 306.502 459.729 306.305 459.632 306.119H459.558V310.186H457.758ZM459.523 303.504C459.523 303.998 459.593 304.43 459.732 304.802C459.874 305.173 460.078 305.463 460.343 305.672C460.612 305.877 460.937 305.98 461.318 305.98C461.715 305.98 462.049 305.874 462.317 305.662C462.586 305.446 462.788 305.153 462.924 304.782C463.063 304.407 463.132 303.981 463.132 303.504C463.132 303.03 463.064 302.609 462.929 302.241C462.793 301.873 462.59 301.585 462.322 301.376C462.054 301.167 461.719 301.063 461.318 301.063C460.933 301.063 460.607 301.164 460.338 301.366C460.07 301.568 459.866 301.852 459.727 302.216C459.591 302.581 459.523 303.01 459.523 303.504ZM469.839 307.471C469.093 307.471 468.447 307.307 467.9 306.979C467.353 306.651 466.929 306.192 466.627 305.602C466.329 305.012 466.18 304.323 466.18 303.534C466.18 302.745 466.329 302.054 466.627 301.461C466.929 300.867 467.353 300.407 467.9 300.079C468.447 299.751 469.093 299.586 469.839 299.586C470.585 299.586 471.231 299.751 471.778 300.079C472.325 300.407 472.747 300.867 473.046 301.461C473.347 302.054 473.498 302.745 473.498 303.534C473.498 304.323 473.347 305.012 473.046 305.602C472.747 306.192 472.325 306.651 471.778 306.979C471.231 307.307 470.585 307.471 469.839 307.471ZM469.849 306.03C470.253 306.03 470.591 305.919 470.863 305.697C471.135 305.471 471.337 305.17 471.47 304.792C471.606 304.414 471.674 303.993 471.674 303.529C471.674 303.062 471.606 302.639 471.47 302.261C471.337 301.88 471.135 301.577 470.863 301.351C470.591 301.126 470.253 301.013 469.849 301.013C469.435 301.013 469.09 301.126 468.815 301.351C468.543 301.577 468.339 301.88 468.203 302.261C468.071 302.639 468.005 303.062 468.005 303.529C468.005 303.993 468.071 304.414 468.203 304.792C468.339 305.17 468.543 305.471 468.815 305.697C469.09 305.919 469.435 306.03 469.849 306.03ZM476.825 302.848V307.322H475.026V299.686H476.746V300.983H476.835C477.011 300.556 477.291 300.216 477.676 299.964C478.063 299.712 478.542 299.586 479.112 299.586C479.639 299.586 480.098 299.699 480.489 299.925C480.884 300.15 481.189 300.476 481.404 300.904C481.623 301.331 481.731 301.85 481.727 302.46V307.322H479.928V302.738C479.928 302.228 479.795 301.829 479.53 301.54C479.268 301.252 478.905 301.108 478.441 301.108C478.126 301.108 477.846 301.177 477.601 301.317C477.359 301.452 477.168 301.65 477.029 301.908C476.893 302.167 476.825 302.48 476.825 302.848ZM489.592 301.704L487.952 301.883C487.905 301.718 487.824 301.562 487.708 301.416C487.596 301.27 487.443 301.153 487.251 301.063C487.059 300.974 486.823 300.929 486.545 300.929C486.17 300.929 485.855 301.01 485.6 301.172C485.348 301.335 485.224 301.545 485.227 301.804C485.224 302.026 485.305 302.206 485.471 302.346C485.64 302.485 485.918 302.599 486.306 302.689L487.609 302.967C488.331 303.123 488.868 303.37 489.22 303.708C489.574 304.046 489.753 304.488 489.756 305.035C489.753 305.516 489.612 305.94 489.334 306.308C489.059 306.673 488.676 306.958 488.185 307.163C487.695 307.369 487.131 307.471 486.495 307.471C485.56 307.471 484.808 307.276 484.238 306.885C483.668 306.49 483.328 305.942 483.219 305.239L484.974 305.07C485.053 305.415 485.222 305.675 485.481 305.851C485.739 306.026 486.076 306.114 486.49 306.114C486.918 306.114 487.261 306.026 487.519 305.851C487.781 305.675 487.912 305.458 487.912 305.199C487.912 304.981 487.828 304.8 487.658 304.657C487.493 304.515 487.234 304.406 486.883 304.329L485.58 304.056C484.848 303.903 484.306 303.647 483.955 303.285C483.603 302.921 483.429 302.46 483.433 301.903C483.429 301.433 483.557 301.025 483.815 300.68C484.077 300.332 484.44 300.064 484.904 299.875C485.372 299.683 485.91 299.586 486.52 299.586C487.415 299.586 488.119 299.777 488.633 300.158C489.15 300.539 489.47 301.055 489.592 301.704ZM494.621 307.471C493.856 307.471 493.194 307.312 492.638 306.994C492.084 306.673 491.658 306.219 491.36 305.632C491.062 305.042 490.912 304.348 490.912 303.549C490.912 302.763 491.062 302.074 491.36 301.481C491.661 300.884 492.082 300.42 492.623 300.089C493.163 299.754 493.798 299.586 494.527 299.586C494.997 299.586 495.442 299.663 495.859 299.815C496.28 299.964 496.651 300.196 496.973 300.511C497.298 300.826 497.553 301.227 497.738 301.714C497.924 302.198 498.017 302.775 498.017 303.444V303.996H491.758V302.783H496.292C496.288 302.438 496.214 302.132 496.068 301.863C495.922 301.592 495.718 301.378 495.456 301.222C495.198 301.066 494.896 300.988 494.552 300.988C494.184 300.988 493.861 301.078 493.582 301.257C493.304 301.433 493.087 301.665 492.931 301.953C492.778 302.238 492.701 302.551 492.697 302.893V303.952C492.697 304.396 492.778 304.777 492.941 305.095C493.103 305.41 493.33 305.652 493.622 305.821C493.914 305.987 494.255 306.069 494.646 306.069C494.908 306.069 495.145 306.033 495.357 305.96C495.569 305.884 495.753 305.773 495.909 305.627C496.065 305.481 496.182 305.3 496.262 305.085L497.942 305.274C497.836 305.718 497.634 306.106 497.336 306.437C497.041 306.765 496.663 307.021 496.202 307.203C495.741 307.382 495.214 307.471 494.621 307.471Z"
     fill="black"
     id="path44" />
  <rect
     x="214.194"
     y="392.699"
     width="92.7741"
     height="92.7741"
     rx="38"
     fill="white"
     stroke="#292929"
     stroke-width="5"
     id="rect46" />
  <path
     d="M246.979 502.403H245.119C245.066 502.098 244.968 501.828 244.826 501.593C244.683 501.354 244.506 501.152 244.294 500.986C244.082 500.82 243.84 500.696 243.568 500.613C243.3 500.527 243.01 500.484 242.698 500.484C242.144 500.484 241.654 500.623 241.226 500.902C240.799 501.177 240.464 501.581 240.222 502.115C239.98 502.645 239.859 503.293 239.859 504.059C239.859 504.837 239.98 505.494 240.222 506.027C240.467 506.558 240.802 506.959 241.226 507.23C241.654 507.499 242.143 507.633 242.693 507.633C242.998 507.633 243.283 507.593 243.548 507.514C243.817 507.431 244.057 507.31 244.269 507.151C244.484 506.992 244.665 506.796 244.811 506.564C244.96 506.332 245.063 506.067 245.119 505.769L246.979 505.779C246.909 506.263 246.758 506.717 246.526 507.141C246.297 507.565 245.997 507.94 245.626 508.265C245.255 508.586 244.821 508.838 244.324 509.02C243.827 509.199 243.275 509.289 242.668 509.289C241.773 509.289 240.974 509.082 240.272 508.667C239.569 508.253 239.016 507.655 238.611 506.873C238.207 506.09 238.005 505.152 238.005 504.059C238.005 502.962 238.209 502.024 238.616 501.245C239.024 500.462 239.579 499.864 240.282 499.45C240.984 499.036 241.78 498.828 242.668 498.828C243.235 498.828 243.762 498.908 244.249 499.067C244.736 499.226 245.171 499.46 245.552 499.768C245.933 500.073 246.246 500.448 246.491 500.892C246.74 501.333 246.902 501.836 246.979 502.403ZM253.455 505.938V501.513H255.255V509.15H253.51V507.792H253.43C253.258 508.22 252.975 508.569 252.58 508.841C252.189 509.113 251.707 509.249 251.134 509.249C250.633 509.249 250.191 509.138 249.806 508.916C249.425 508.69 249.127 508.364 248.911 507.936C248.696 507.506 248.588 506.985 248.588 506.375V501.513H250.388V506.097C250.388 506.581 250.52 506.965 250.786 507.25C251.051 507.535 251.399 507.678 251.83 507.678C252.095 507.678 252.352 507.613 252.6 507.484C252.849 507.355 253.053 507.163 253.212 506.907C253.374 506.649 253.455 506.326 253.455 505.938ZM263.141 503.532L261.501 503.711C261.454 503.545 261.373 503.389 261.257 503.243C261.144 503.097 260.992 502.98 260.8 502.89C260.607 502.801 260.372 502.756 260.094 502.756C259.719 502.756 259.404 502.837 259.149 503C258.897 503.162 258.773 503.373 258.776 503.631C258.773 503.853 258.854 504.034 259.02 504.173C259.189 504.312 259.467 504.426 259.855 504.516L261.157 504.794C261.88 504.95 262.417 505.197 262.768 505.535C263.123 505.873 263.302 506.316 263.305 506.863C263.302 507.343 263.161 507.767 262.883 508.135C262.608 508.5 262.225 508.785 261.734 508.99C261.244 509.196 260.68 509.299 260.044 509.299C259.109 509.299 258.357 509.103 257.787 508.712C257.217 508.318 256.877 507.769 256.768 507.066L258.523 506.897C258.602 507.242 258.771 507.502 259.03 507.678C259.288 507.854 259.625 507.941 260.039 507.941C260.466 507.941 260.809 507.854 261.068 507.678C261.33 507.502 261.461 507.285 261.461 507.027C261.461 506.808 261.376 506.627 261.207 506.485C261.041 506.342 260.783 506.233 260.432 506.157L259.129 505.883C258.397 505.731 257.855 505.474 257.503 505.113C257.152 504.748 256.978 504.287 256.981 503.73C256.978 503.26 257.106 502.852 257.364 502.507C257.626 502.159 257.989 501.891 258.453 501.702C258.92 501.51 259.459 501.414 260.069 501.414C260.964 501.414 261.668 501.604 262.182 501.985C262.699 502.367 263.019 502.882 263.141 503.532ZM268.602 501.513V502.905H264.213V501.513H268.602ZM265.296 499.684H267.096V506.853C267.096 507.095 267.133 507.28 267.205 507.409C267.282 507.535 267.381 507.622 267.504 507.668C267.626 507.714 267.762 507.738 267.911 507.738C268.024 507.738 268.127 507.729 268.22 507.713C268.316 507.696 268.389 507.681 268.438 507.668L268.742 509.075C268.646 509.108 268.508 509.145 268.329 509.184C268.153 509.224 267.938 509.247 267.683 509.254C267.232 509.267 266.826 509.199 266.465 509.05C266.103 508.898 265.817 508.662 265.605 508.344C265.396 508.026 265.293 507.628 265.296 507.151V499.684ZM273.357 509.299C272.611 509.299 271.964 509.135 271.418 508.806C270.871 508.478 270.446 508.019 270.145 507.429C269.847 506.839 269.697 506.15 269.697 505.361C269.697 504.572 269.847 503.881 270.145 503.288C270.446 502.695 270.871 502.234 271.418 501.906C271.964 501.578 272.611 501.414 273.357 501.414C274.102 501.414 274.749 501.578 275.295 501.906C275.842 502.234 276.265 502.695 276.563 503.288C276.865 503.881 277.016 504.572 277.016 505.361C277.016 506.15 276.865 506.839 276.563 507.429C276.265 508.019 275.842 508.478 275.295 508.806C274.749 509.135 274.102 509.299 273.357 509.299ZM273.366 507.857C273.771 507.857 274.109 507.746 274.381 507.524C274.652 507.298 274.855 506.997 274.987 506.619C275.123 506.241 275.191 505.82 275.191 505.356C275.191 504.889 275.123 504.466 274.987 504.088C274.855 503.707 274.652 503.404 274.381 503.179C274.109 502.953 273.771 502.841 273.366 502.841C272.952 502.841 272.607 502.953 272.332 503.179C272.061 503.404 271.857 503.707 271.721 504.088C271.588 504.466 271.522 504.889 271.522 505.356C271.522 505.82 271.588 506.241 271.721 506.619C271.857 506.997 272.061 507.298 272.332 507.524C272.607 507.746 272.952 507.857 273.366 507.857ZM278.543 509.15V501.513H280.263V502.811H280.353C280.512 502.373 280.775 502.032 281.143 501.787C281.511 501.538 281.95 501.414 282.461 501.414C282.978 501.414 283.414 501.54 283.768 501.792C284.126 502.04 284.378 502.38 284.524 502.811H284.604C284.773 502.386 285.058 502.048 285.459 501.797C285.863 501.541 286.342 501.414 286.895 501.414C287.598 501.414 288.171 501.636 288.616 502.08C289.06 502.524 289.282 503.172 289.282 504.024V509.15H287.477V504.302C287.477 503.828 287.351 503.482 287.099 503.263C286.847 503.041 286.539 502.93 286.175 502.93C285.74 502.93 285.401 503.066 285.155 503.338C284.913 503.606 284.792 503.956 284.792 504.387V509.15H283.028V504.228C283.028 503.833 282.908 503.518 282.67 503.283C282.434 503.048 282.126 502.93 281.745 502.93C281.486 502.93 281.251 502.996 281.039 503.129C280.827 503.258 280.658 503.442 280.532 503.681C280.406 503.916 280.343 504.191 280.343 504.506V509.15H278.543ZM229.355 526.304C228.871 526.304 228.435 526.217 228.047 526.045C227.663 525.869 227.358 525.611 227.133 525.27C226.91 524.928 226.799 524.507 226.799 524.007C226.799 523.576 226.879 523.22 227.038 522.938C227.197 522.656 227.414 522.431 227.689 522.262C227.964 522.093 228.274 521.965 228.619 521.879C228.967 521.789 229.327 521.725 229.698 521.685C230.145 521.639 230.508 521.597 230.787 521.561C231.065 521.521 231.267 521.461 231.393 521.382C231.522 521.299 231.587 521.171 231.587 520.999V520.969C231.587 520.595 231.476 520.305 231.254 520.099C231.032 519.894 230.712 519.791 230.294 519.791C229.854 519.791 229.504 519.887 229.245 520.079C228.99 520.271 228.818 520.498 228.728 520.76L227.048 520.522C227.181 520.058 227.399 519.67 227.704 519.358C228.009 519.043 228.382 518.808 228.823 518.652C229.264 518.493 229.751 518.414 230.285 518.414C230.652 518.414 231.019 518.457 231.383 518.543C231.748 518.629 232.081 518.772 232.383 518.971C232.684 519.166 232.926 519.433 233.108 519.771C233.294 520.109 233.387 520.532 233.387 521.039V526.15H231.657V525.1H231.597C231.488 525.313 231.334 525.511 231.135 525.697C230.939 525.879 230.692 526.027 230.394 526.14C230.099 526.249 229.753 526.304 229.355 526.304ZM229.822 524.981C230.183 524.981 230.497 524.91 230.762 524.767C231.027 524.622 231.231 524.429 231.373 524.191C231.519 523.952 231.592 523.692 231.592 523.41V522.51C231.536 522.557 231.44 522.6 231.304 522.64C231.171 522.679 231.022 522.714 230.856 522.744C230.691 522.774 230.526 522.8 230.364 522.824C230.202 522.847 230.061 522.867 229.941 522.883C229.673 522.92 229.433 522.979 229.221 523.062C229.008 523.145 228.841 523.261 228.718 523.41C228.596 523.556 228.535 523.745 228.535 523.977C228.535 524.308 228.656 524.559 228.897 524.728C229.139 524.897 229.448 524.981 229.822 524.981ZM235.196 529.013V518.513H236.966V519.776H237.071C237.164 519.59 237.294 519.393 237.464 519.184C237.633 518.972 237.861 518.792 238.15 518.642C238.438 518.49 238.806 518.414 239.253 518.414C239.843 518.414 240.375 518.565 240.849 518.866C241.326 519.164 241.704 519.607 241.983 520.194C242.264 520.777 242.405 521.493 242.405 522.341C242.405 523.18 242.268 523.892 241.993 524.479C241.718 525.066 241.343 525.513 240.869 525.821C240.395 526.13 239.858 526.284 239.258 526.284C238.821 526.284 238.458 526.211 238.169 526.065C237.881 525.919 237.649 525.743 237.473 525.538C237.301 525.329 237.167 525.132 237.071 524.946H236.996V529.013H235.196ZM236.961 522.331C236.961 522.825 237.031 523.258 237.17 523.629C237.313 524 237.517 524.29 237.782 524.499C238.05 524.704 238.375 524.807 238.756 524.807C239.154 524.807 239.487 524.701 239.755 524.489C240.024 524.274 240.226 523.98 240.362 523.609C240.501 523.234 240.571 522.809 240.571 522.331C240.571 521.857 240.503 521.436 240.367 521.069C240.231 520.701 240.029 520.412 239.76 520.203C239.492 519.995 239.157 519.89 238.756 519.89C238.372 519.89 238.045 519.991 237.777 520.194C237.508 520.396 237.304 520.679 237.165 521.044C237.029 521.408 236.961 521.837 236.961 522.331ZM243.946 529.013V518.513H245.716V519.776H245.821C245.914 519.59 246.044 519.393 246.214 519.184C246.383 518.972 246.611 518.792 246.9 518.642C247.188 518.49 247.556 518.414 248.003 518.414C248.593 518.414 249.125 518.565 249.599 518.866C250.076 519.164 250.454 519.607 250.733 520.194C251.014 520.777 251.155 521.493 251.155 522.341C251.155 523.18 251.018 523.892 250.743 524.479C250.468 525.066 250.093 525.513 249.619 525.821C249.145 526.13 248.608 526.284 248.008 526.284C247.571 526.284 247.208 526.211 246.919 526.065C246.631 525.919 246.399 525.743 246.223 525.538C246.051 525.329 245.917 525.132 245.821 524.946H245.746V529.013H243.946ZM245.711 522.331C245.711 522.825 245.781 523.258 245.92 523.629C246.063 524 246.267 524.29 246.532 524.499C246.8 524.704 247.125 524.807 247.506 524.807C247.904 524.807 248.237 524.701 248.505 524.489C248.774 524.274 248.976 523.98 249.112 523.609C249.251 523.234 249.321 522.809 249.321 522.331C249.321 521.857 249.253 521.436 249.117 521.069C248.981 520.701 248.779 520.412 248.51 520.203C248.242 519.995 247.907 519.89 247.506 519.89C247.122 519.89 246.795 519.991 246.527 520.194C246.258 520.396 246.054 520.679 245.915 521.044C245.779 521.408 245.711 521.837 245.711 522.331ZM254.496 515.968V526.15H252.696V515.968H254.496ZM256.347 526.15V518.513H258.147V526.15H256.347ZM257.252 517.429C256.967 517.429 256.721 517.335 256.516 517.146C256.31 516.954 256.208 516.723 256.208 516.455C256.208 516.183 256.31 515.953 256.516 515.764C256.721 515.572 256.967 515.475 257.252 515.475C257.54 515.475 257.785 515.572 257.987 515.764C258.193 515.953 258.296 516.183 258.296 516.455C258.296 516.723 258.193 516.954 257.987 517.146C257.785 517.335 257.54 517.429 257.252 517.429ZM263.328 526.299C262.566 526.299 261.911 526.131 261.364 525.797C260.821 525.462 260.402 524.999 260.107 524.409C259.815 523.816 259.669 523.133 259.669 522.361C259.669 521.586 259.818 520.901 260.117 520.308C260.415 519.711 260.836 519.247 261.379 518.916C261.926 518.581 262.573 518.414 263.318 518.414C263.938 518.414 264.487 518.528 264.964 518.757C265.444 518.982 265.827 519.302 266.112 519.716C266.397 520.127 266.56 520.608 266.6 521.158H264.879C264.81 520.79 264.644 520.484 264.382 520.238C264.124 519.99 263.777 519.865 263.343 519.865C262.975 519.865 262.652 519.965 262.374 520.164C262.095 520.359 261.878 520.641 261.722 521.009C261.57 521.377 261.494 521.818 261.494 522.331C261.494 522.852 261.57 523.299 261.722 523.674C261.875 524.045 262.089 524.332 262.364 524.534C262.642 524.733 262.969 524.832 263.343 524.832C263.608 524.832 263.845 524.782 264.054 524.683C264.266 524.58 264.444 524.433 264.586 524.24C264.729 524.048 264.826 523.815 264.879 523.539H266.6C266.556 524.08 266.397 524.559 266.122 524.976C265.847 525.391 265.473 525.715 264.999 525.951C264.525 526.183 263.968 526.299 263.328 526.299ZM270.275 526.304C269.791 526.304 269.355 526.217 268.967 526.045C268.583 525.869 268.278 525.611 268.052 525.27C267.83 524.928 267.719 524.507 267.719 524.007C267.719 523.576 267.799 523.22 267.958 522.938C268.117 522.656 268.334 522.431 268.609 522.262C268.884 522.093 269.194 521.965 269.539 521.879C269.887 521.789 270.247 521.725 270.618 521.685C271.065 521.639 271.428 521.597 271.707 521.561C271.985 521.521 272.187 521.461 272.313 521.382C272.442 521.299 272.507 521.171 272.507 520.999V520.969C272.507 520.595 272.396 520.305 272.174 520.099C271.952 519.894 271.632 519.791 271.214 519.791C270.774 519.791 270.424 519.887 270.165 520.079C269.91 520.271 269.738 520.498 269.648 520.76L267.968 520.522C268.101 520.058 268.319 519.67 268.624 519.358C268.929 519.043 269.302 518.808 269.743 518.652C270.184 518.493 270.671 518.414 271.204 518.414C271.572 518.414 271.939 518.457 272.303 518.543C272.668 518.629 273.001 518.772 273.302 518.971C273.604 519.166 273.846 519.433 274.028 519.771C274.214 520.109 274.307 520.532 274.307 521.039V526.15H272.577V525.1H272.517C272.408 525.313 272.253 525.511 272.055 525.697C271.859 525.879 271.612 526.027 271.314 526.14C271.019 526.249 270.672 526.304 270.275 526.304ZM270.742 524.981C271.103 524.981 271.417 524.91 271.682 524.767C271.947 524.622 272.151 524.429 272.293 524.191C272.439 523.952 272.512 523.692 272.512 523.41V522.51C272.456 522.557 272.36 522.6 272.224 522.64C272.091 522.679 271.942 522.714 271.776 522.744C271.61 522.774 271.446 522.8 271.284 522.824C271.122 522.847 270.981 522.867 270.861 522.883C270.593 522.92 270.353 522.979 270.141 523.062C269.928 523.145 269.761 523.261 269.638 523.41C269.516 523.556 269.454 523.745 269.454 523.977C269.454 524.308 269.575 524.559 269.817 524.728C270.059 524.897 270.368 524.981 270.742 524.981ZM279.93 518.513V519.905H275.54V518.513H279.93ZM276.623 516.684H278.423V523.853C278.423 524.095 278.46 524.28 278.533 524.409C278.609 524.535 278.708 524.622 278.831 524.668C278.954 524.714 279.089 524.738 279.239 524.738C279.351 524.738 279.454 524.729 279.547 524.713C279.643 524.696 279.716 524.681 279.766 524.668L280.069 526.075C279.973 526.108 279.835 526.145 279.656 526.184C279.48 526.224 279.265 526.247 279.01 526.254C278.559 526.267 278.153 526.199 277.792 526.05C277.431 525.898 277.144 525.662 276.932 525.344C276.723 525.026 276.62 524.628 276.623 524.151V516.684ZM281.435 526.15V518.513H283.234V526.15H281.435ZM282.34 517.429C282.055 517.429 281.809 517.335 281.604 517.146C281.398 516.954 281.296 516.723 281.296 516.455C281.296 516.183 281.398 515.953 281.604 515.764C281.809 515.572 282.055 515.475 282.34 515.475C282.628 515.475 282.873 515.572 283.075 515.764C283.281 515.953 283.384 516.183 283.384 516.455C283.384 516.723 283.281 516.954 283.075 517.146C282.873 517.335 282.628 517.429 282.34 517.429ZM288.416 526.299C287.67 526.299 287.024 526.135 286.477 525.806C285.93 525.478 285.506 525.019 285.204 524.429C284.906 523.839 284.757 523.15 284.757 522.361C284.757 521.572 284.906 520.881 285.204 520.288C285.506 519.695 285.93 519.234 286.477 518.906C287.024 518.578 287.67 518.414 288.416 518.414C289.162 518.414 289.808 518.578 290.355 518.906C290.902 519.234 291.324 519.695 291.623 520.288C291.924 520.881 292.075 521.572 292.075 522.361C292.075 523.15 291.924 523.839 291.623 524.429C291.324 525.019 290.902 525.478 290.355 525.806C289.808 526.135 289.162 526.299 288.416 526.299ZM288.426 524.857C288.83 524.857 289.168 524.746 289.44 524.524C289.712 524.298 289.914 523.997 290.047 523.619C290.183 523.241 290.251 522.82 290.251 522.356C290.251 521.889 290.183 521.466 290.047 521.088C289.914 520.707 289.712 520.404 289.44 520.179C289.168 519.953 288.83 519.841 288.426 519.841C288.012 519.841 287.667 519.953 287.392 520.179C287.12 520.404 286.916 520.707 286.78 521.088C286.648 521.466 286.582 521.889 286.582 522.356C286.582 522.82 286.648 523.241 286.78 523.619C286.916 523.997 287.12 524.298 287.392 524.524C287.667 524.746 288.012 524.857 288.426 524.857ZM295.402 521.675V526.15H293.603V518.513H295.323V519.811H295.412C295.588 519.383 295.868 519.043 296.253 518.792C296.64 518.54 297.119 518.414 297.689 518.414C298.216 518.414 298.675 518.526 299.066 518.752C299.461 518.977 299.766 519.304 299.981 519.731C300.2 520.159 300.308 520.677 300.304 521.287V526.15H298.505V521.566C298.505 521.055 298.372 520.656 298.107 520.368C297.845 520.079 297.482 519.935 297.018 519.935C296.703 519.935 296.423 520.005 296.178 520.144C295.936 520.28 295.745 520.477 295.606 520.735C295.47 520.994 295.402 521.307 295.402 521.675Z"
     fill="black"
     id="path48" />
  <path
     fill-rule="evenodd"
     clip-rule="evenodd"
     d="M271.591 423.172H234.619C234.279 423.172 234.003 423.449 234.003 423.791V447.917C234.003 448.259 234.279 448.536 234.619 448.536H271.591C271.932 448.536 272.207 448.259 272.207 447.917V423.791C272.207 423.449 271.932 423.172 271.591 423.172ZM234.619 420.698C232.917 420.698 231.538 422.083 231.538 423.791V447.917C231.538 449.626 232.917 451.01 234.619 451.01H271.591C273.293 451.01 274.672 449.626 274.672 447.917V423.791C274.672 422.083 273.293 420.698 271.591 420.698H234.619Z"
     fill="#292929"
     id="path50" />
  <path
     fill-rule="evenodd"
     clip-rule="evenodd"
     d="M295.623 425.647H283.299C282.959 425.647 282.683 425.924 282.683 426.265V450.392C282.683 450.733 282.959 451.01 283.299 451.01H295.623C295.964 451.01 296.24 450.733 296.24 450.392V426.265C296.24 425.924 295.964 425.647 295.623 425.647ZM283.299 423.172C281.598 423.172 280.218 424.557 280.218 426.265V450.392C280.218 452.1 281.598 453.485 283.299 453.485H295.623C297.325 453.485 298.704 452.1 298.704 450.392V426.265C298.704 424.557 297.325 423.172 295.623 423.172H283.299Z"
     fill="#292929"
     id="path52" />
  <path
     fill-rule="evenodd"
     clip-rule="evenodd"
     d="M275.289 451.01H230.922C230.581 451.01 230.305 451.287 230.305 451.629V453.485C230.305 453.827 230.581 454.104 230.922 454.104H275.289C275.629 454.104 275.905 453.827 275.905 453.485V451.629C275.905 451.287 275.629 451.01 275.289 451.01ZM230.922 448.536C229.22 448.536 227.841 449.921 227.841 451.629V453.485C227.841 455.193 229.22 456.578 230.922 456.578H275.289C276.99 456.578 278.37 455.193 278.37 453.485V451.629C278.37 449.921 276.99 448.536 275.289 448.536H230.922Z"
     fill="#292929"
     id="path54" />
  <path
     d="M245.094 423.172C245.094 422.147 245.922 421.316 246.943 421.316H259.267C260.288 421.316 261.116 422.147 261.116 423.172C261.116 424.197 260.288 425.028 259.267 425.028H246.943C245.922 425.028 245.094 424.197 245.094 423.172Z"
     fill="#292929"
     id="path56" />
  <path
     d="M284.532 425.337C284.532 424.825 284.945 424.409 285.456 424.409H293.467C293.977 424.409 294.391 424.825 294.391 425.337C294.391 425.85 293.977 426.265 293.467 426.265H285.456C284.945 426.265 284.532 425.85 284.532 425.337Z"
     fill="#292929"
     id="path58" />
  <path
     d="M284.532 451.32C284.532 450.807 284.945 450.392 285.456 450.392H293.467C293.977 450.392 294.391 450.807 294.391 451.32C294.391 451.832 293.977 452.248 293.467 452.248H285.456C284.945 452.248 284.532 451.832 284.532 451.32Z"
     fill="#292929"
     id="path60" />
  <mask
     id="mask0_316_3472"
     style="mask-type:alpha"
     maskUnits="userSpaceOnUse"
     x="18"
     y="17"
     width="163"
     height="163">
    <rect
       x="18.8372"
       y="17.9402"
       width="161.462"
       height="161.462"
       fill="#D9D9D9"
       id="rect62" />
  </mask>
  <g
     mask="url(#mask0_316_3472)"
     id="g67">
    <circle
       cx="254.751"
       cy="253.854"
       r="198.239"
       stroke="#26928B"
       stroke-width="5"
       stroke-dasharray="5 5"
       id="circle65" />
  </g>
  <mask
     id="mask1_316_3472"
     style="mask-type:alpha"
     maskUnits="userSpaceOnUse"
     x="328"
     y="17"
     width="162"
     height="163">
    <rect
       x="328.306"
       y="17.9402"
       width="161.462"
       height="161.462"
       fill="#D9D9D9"
       id="rect69" />
  </mask>
  <g
     mask="url(#mask1_316_3472)"
     id="g74">
    <circle
       cx="254.751"
       cy="253.854"
       r="198.239"
       stroke="#26928B"
       stroke-width="5"
       stroke-dasharray="5 5"
       id="circle72" />
  </g>
  <mask
     id="mask2_316_3472"
     style="mask-type:alpha"
     maskUnits="userSpaceOnUse"
     x="316"
     y="315"
     width="173"
     height="173">
    <rect
       x="316.645"
       y="315.747"
       width="172.226"
       height="172.226"
       fill="#D9D9D9"
       id="rect76" />
  </mask>
  <g
     mask="url(#mask2_316_3472)"
     id="g81">
    <circle
       cx="243.09"
       cy="253.854"
       r="198.239"
       stroke="#26928B"
       stroke-width="5"
       stroke-dasharray="5 5"
       id="circle79" />
  </g>
  <path
     fill-rule="evenodd"
     clip-rule="evenodd"
     d="M187.557 86.229H183.031L183.031 65.1285L161.931 65.1285L161.931 60.6023L187.557 60.6023L187.557 86.229Z"
     fill="#26928B"
     id="path83" />
  <path
     fill-rule="evenodd"
     clip-rule="evenodd"
     d="M418.403 175.759L420.509 171.753L439.186 181.572L449.005 162.896L453.011 165.002L441.085 187.685L418.403 175.759Z"
     fill="#26928B"
     id="path85" />
  <path
     fill-rule="evenodd"
     clip-rule="evenodd"
     d="M326.856 413.831L330.981 415.694L322.294 434.924L341.524 443.61L339.66 447.735L316.306 437.185L326.856 413.831Z"
     fill="#26928B"
     id="path87" />
  <g
     clip-path="url(#clip0_316_3472)"
     id="g97">
    <path
       d="M309.135 291.201C324.288 276.531 333.688 255.975 333.688 233.223C333.688 188.641 297.539 152.492 252.957 152.492C208.375 152.492 172.226 188.641 172.226 233.223C172.226 277.805 208.375 313.953 252.957 313.953H321.389C321.389 313.953 309.135 303.412 309.135 291.201Z"
       fill="#44BAEB"
       id="path89" />
    <path
       d="M274.26 234.672C278.602 234.672 282.122 231.152 282.122 226.81C282.122 222.468 278.602 218.948 274.26 218.948C269.917 218.948 266.397 222.468 266.397 226.81C266.397 231.152 269.917 234.672 274.26 234.672Z"
       fill="black"
       id="path91" />
    <path
       d="M231.654 234.672C235.996 234.672 239.516 231.152 239.516 226.81C239.516 222.468 235.996 218.948 231.654 218.948C227.312 218.948 223.792 222.468 223.792 226.81C223.792 231.152 227.312 234.672 231.654 234.672Z"
       fill="black"
       id="path93" />
    <path
       d="M254.406 264.232C247.466 264.232 240.439 263.003 240.175 262.915C238.506 262.607 238.418 261.246 238.682 259.62C238.989 257.951 239.604 256.634 241.229 256.941C241.317 256.941 247.994 258.127 254.406 258.127C260.819 258.127 267.495 256.941 267.583 256.941C269.252 256.634 269.604 257.907 269.911 259.577C270.219 261.246 270.307 262.651 268.681 262.959C268.374 263.003 261.346 264.232 254.406 264.232Z"
       fill="black"
       id="path95" />
  </g>
  <defs
     id="defs102">
    <clipPath
       id="clip0_316_3472">
      <rect
         width="161.462"
         height="161.462"
         fill="white"
         transform="translate(172.226 152.492)"
         id="rect99" />
    </clipPath>
  </defs>
</svg>
