<?xml version="1.0" encoding="UTF-8" standalone="no"?>
<svg
   xmlns:dc="http://purl.org/dc/elements/1.1/"
   xmlns:cc="http://creativecommons.org/ns#"
   xmlns:rdf="http://www.w3.org/1999/02/22-rdf-syntax-ns#"
   xmlns:svg="http://www.w3.org/2000/svg"
   xmlns="http://www.w3.org/2000/svg"
   xmlns:sodipodi="http://sodipodi.sourceforge.net/DTD/sodipodi-0.dtd"
   xmlns:inkscape="http://www.inkscape.org/namespaces/inkscape"
   width="17"
   height="15"
   viewBox="0 0 17 15"
   fill="none"
   version="1.1"
   id="svg4"
   sodipodi:docname="linto-meeting-icon.svg"
   inkscape:version="0.92.4 (5da689c313, 2019-01-14)">
  <metadata
     id="metadata10">
    <rdf:RDF>
      <cc:Work
         rdf:about="">
        <dc:format>image/svg+xml</dc:format>
        <dc:type
           rdf:resource="http://purl.org/dc/dcmitype/StillImage" />
        <dc:title></dc:title>
      </cc:Work>
    </rdf:RDF>
  </metadata>
  <defs
     id="defs8" />
  <sodipodi:namedview
     pagecolor="#ffffff"
     bordercolor="#666666"
     borderopacity="1"
     objecttolerance="10"
     gridtolerance="10"
     guidetolerance="10"
     inkscape:pageopacity="0"
     inkscape:pageshadow="2"
     inkscape:window-width="1920"
     inkscape:window-height="1016"
     id="namedview6"
     showgrid="false"
     inkscape:snap-center="false"
     inkscape:zoom="15.733333"
     inkscape:cx="-7.262712"
     inkscape:cy="7.2457626"
     inkscape:window-x="0"
     inkscape:window-y="27"
     inkscape:window-maximized="1"
     inkscape:current-layer="svg4" />
  <path
     d="m 13.218221,4.1531663 c -0.977393,0.7074611 -1.697116,1.3877119 -2.15917,2.0407524 -0.462052,0.6349004 -0.693079,1.2516607 -0.693079,1.8502807 0,0.1814017 0.07105,0.2721025 0.213264,0.2721025 l 0.586447,-0.054418 c 0.550866,0 0.995156,0.1541911 1.332815,0.4625683 0.337658,0.2902655 0.506459,0.6893155 0.506459,1.1972185 0,0.5079583 -0.177682,0.9251603 -0.533103,1.2516613 -0.337658,0.326554 -0.764186,0.489804 -1.279527,0.489804 -0.675316,0 -1.2262375,-0.244903 -1.6527091,-0.734655 -0.426516,-0.507958 -0.6397685,-1.1972623 -0.6397685,-2.06798 0,-1.0158383 0.2932235,-1.9681914 0.8796761,-2.8570541 C 10.383735,5.096444 11.307841,4.2075868 12.551786,3.3368643 Z m -5.1180711,0 C 7.2471401,4.6973658 6.5540668,5.3322662 6.0209357,6.0578675 5.4878045,6.7834687 5.2212362,7.4455794 5.2212362,8.0441994 c 0,0.1814017 0.071084,0.2721025 0.2132525,0.2721025 l 0.5597918,-0.054418 c 0.5686732,0 1.0218333,0.1541911 1.3594858,0.4625683 0.337647,0.2902655 0.506476,0.6893155 0.506476,1.1972185 0,0.5079583 -0.1777104,0.9251603 -0.5331311,1.2516613 -0.3376525,0.326554 -0.7641575,0.489804 -1.2795203,0.489804 -0.6752995,0 -1.2262045,-0.244903 -1.6527095,-0.734655 C 3.9861465,10.420523 3.7817793,9.7312187 3.7817793,8.8605011 3.7817793,7.8446628 4.0750022,6.8923097 4.6614498,6.003447 5.2478914,5.096444 6.163104,4.2075868 7.4070767,3.3368643 Z"
     id="path2"
     inkscape:connector-curvature="0"
     style="fill:#5fbf9d;stroke-width:0.55508476" />
</svg>
