<?xml version="1.0" encoding="UTF-8" standalone="no"?>
<svg
   xmlns:dc="http://purl.org/dc/elements/1.1/"
   xmlns:cc="http://creativecommons.org/ns#"
   xmlns:rdf="http://www.w3.org/1999/02/22-rdf-syntax-ns#"
   xmlns:svg="http://www.w3.org/2000/svg"
   xmlns="http://www.w3.org/2000/svg"
   xmlns:sodipodi="http://sodipodi.sourceforge.net/DTD/sodipodi-0.dtd"
   xmlns:inkscape="http://www.inkscape.org/namespaces/inkscape"
   width="60"
   height="60"
   viewBox="0 0 60 60"
   version="1.1"
   id="svg4"
   sodipodi:docname="phone.svg"
   style="fill:none"
   inkscape:version="0.92.4 (5da689c313, 2019-01-14)">
  <metadata
     id="metadata10">
    <rdf:RDF>
      <cc:Work
         rdf:about="">
        <dc:format>image/svg+xml</dc:format>
        <dc:type
           rdf:resource="http://purl.org/dc/dcmitype/StillImage" />
        <dc:title></dc:title>
      </cc:Work>
    </rdf:RDF>
  </metadata>
  <defs
     id="defs8" />
  <sodipodi:namedview
     pagecolor="#ffffff"
     bordercolor="#666666"
     borderopacity="1"
     objecttolerance="10"
     gridtolerance="10"
     guidetolerance="10"
     inkscape:pageopacity="0"
     inkscape:pageshadow="2"
     inkscape:window-width="1920"
     inkscape:window-height="1016"
     id="namedview6"
     showgrid="false"
     inkscape:zoom="1.1588694"
     inkscape:cx="-367.6935"
     inkscape:cy="-31.598723"
     inkscape:window-x="0"
     inkscape:window-y="27"
     inkscape:window-maximized="1"
     inkscape:current-layer="svg4" />
  <path
     d="m 39.336576,14.859829 c 3.893351,0 6.401098,3.068509 5.645659,6.036418 -3.002622,11.793958 -12.292192,21.083528 -24.085971,24.085927 -2.96791,0.755662 -6.03644,-1.752308 -6.03644,-5.645659 v -2.225153 c 0,-0.0022 -2.01e-4,-4.45e-4 -6.7e-5,-6.68e-4 9.57e-4,-0.0022 0.0067,-0.01469 0.02416,-0.03249 0.03876,-0.04005 0.107185,-0.07877 0.191875,-0.08723 1.765459,-0.174897 3.476668,-0.537819 5.112846,-1.068073 l 2.384808,2.384703 c 0.667234,0.667324 1.682772,0.841108 2.533938,0.433683 5.956535,-2.850422 10.783537,-7.677358 13.633959,-13.63387 0.407425,-0.851188 0.233641,-1.866726 -0.433683,-2.53396 l -2.384697,-2.384786 c 0.530254,-1.6362 0.892954,-3.347432 1.068074,-5.112868 0.0085,-0.08471 0.04717,-0.153113 0.087,-0.191875 0.01802,-0.01736 0.03026,-0.02321 0.03271,-0.02416 2.23e-4,-1.34e-4 -0.0016,6.6e-5 6.68e-4,6.6e-5 z m 9.958451,7.134353 C 50.964782,15.434653 45.274398,10.409523 39.336576,10.409523 h -2.225153 c -2.507525,0 -4.328813,2.005159 -4.549037,4.227279 -0.184331,1.859694 -0.62282,3.643021 -1.279908,5.315958 -0.323582,0.823796 -0.128146,1.761053 0.4977,2.3869 l 2.229826,2.229804 c -2.211735,3.951938 -5.48863,7.22881 -9.440546,9.440479 l -2.229826,-2.229759 c -0.625825,-0.625847 -1.563082,-0.821282 -2.3869,-0.4977 -1.672915,0.657088 -3.456241,1.095554 -5.315913,1.279908 -2.222132,0.220379 -4.227295,2.041445 -4.227295,4.54897 v 2.225153 c 0,5.937822 5.025123,11.628429 11.584675,9.958451 C 35.36757,45.890259 45.89032,35.367509 49.295027,21.994182 Z"
     id="path2"
     inkscape:connector-curvature="0"
     style="clip-rule:evenodd;fill:#292929;fill-rule:evenodd;stroke-width:2.22515321" />
</svg>
