<?xml version="1.0" encoding="UTF-8" standalone="no"?>
<svg
   xmlns:dc="http://purl.org/dc/elements/1.1/"
   xmlns:cc="http://creativecommons.org/ns#"
   xmlns:rdf="http://www.w3.org/1999/02/22-rdf-syntax-ns#"
   xmlns:svg="http://www.w3.org/2000/svg"
   xmlns="http://www.w3.org/2000/svg"
   xmlns:sodipodi="http://sodipodi.sourceforge.net/DTD/sodipodi-0.dtd"
   xmlns:inkscape="http://www.inkscape.org/namespaces/inkscape"
   width="60"
   height="60"
   viewBox="0 0 60 60"
   version="1.1"
   id="svg6"
   sodipodi:docname="pin.svg"
   style="fill:none"
   inkscape:version="0.92.4 (5da689c313, 2019-01-14)">
  <metadata
     id="metadata12">
    <rdf:RDF>
      <cc:Work
         rdf:about="">
        <dc:format>image/svg+xml</dc:format>
        <dc:type
           rdf:resource="http://purl.org/dc/dcmitype/StillImage" />
        <dc:title></dc:title>
      </cc:Work>
    </rdf:RDF>
  </metadata>
  <defs
     id="defs10" />
  <sodipodi:namedview
     pagecolor="#ffffff"
     bordercolor="#666666"
     borderopacity="1"
     objecttolerance="10"
     gridtolerance="10"
     guidetolerance="10"
     inkscape:pageopacity="0"
     inkscape:pageshadow="2"
     inkscape:window-width="1920"
     inkscape:window-height="1016"
     id="namedview8"
     showgrid="false"
     inkscape:zoom="5.6190476"
     inkscape:cx="12.432851"
     inkscape:cy="-14.178281"
     inkscape:window-x="0"
     inkscape:window-y="27"
     inkscape:window-maximized="1"
     inkscape:current-layer="svg6" />
  <g
     id="g824"
     transform="matrix(2.1134552,0,0,2.1134552,10.978693,-74.850416)">
    <path
       style="clip-rule:evenodd;fill:#292929;fill-rule:evenodd"
       inkscape:connector-curvature="0"
       id="path2"
       d="m 7.5,48 c 0,-0.82843 0.67157,-1.5 1.5,-1.5 h 0.01 c 0.82843,0 1.5,0.67157 1.5,1.5 v 0.01 c 0,0.82843 -0.67157,1.5 -1.5,1.5 H 9 c -0.82843,0 -1.5,-0.67157 -1.5,-1.5 z" />
    <path
       style="clip-rule:evenodd;fill:#292929;fill-rule:evenodd"
       inkscape:connector-curvature="0"
       id="path4"
       d="m 13.793,43.20708 c -2.6471,-2.64704 -6.93876,-2.64704 -9.5858,0 -2.64704,2.64704 -2.64704,6.93872 10e-6,9.58582 l 4.79289,4.7929 4.7929,-4.7929 c 2.647,-2.6471 2.647,-6.93878 0,-9.58582 z M 2.79299,41.79287 c 3.42809,-3.428091 8.98611,-3.428091 12.41421,0 3.4281,3.42809 3.4281,8.98613 0,12.41423 l -5.5,5.5 C 9.51967,59.8946 9.26531,60 9.0001,60 8.73488,60 8.48053,59.8946 8.29299,59.7071 l -5.5,-5.5 c -3.428087,-3.4281 -3.42809,-8.98614 0,-12.41423 z" />
  </g>
</svg>
