<svg width="124" height="120" viewBox="0 0 124 120" fill="none" xmlns="http://www.w3.org/2000/svg">
<path d="M29.8578 96.0768C21.6275 96.0768 14.9318 89.3811 14.9318 81.1473C14.9318 79.4363 15.2281 77.7324 15.8173 76.0743C14.5543 73.9647 13.8911 71.5341 13.8911 69.0082C13.8911 61.3706 20.1106 55.1511 27.7588 55.1511C34.6168 55.1511 40.5117 60.2734 41.4748 67.0679C41.5524 67.6218 41.1679 68.1333 40.614 68.2109C40.0531 68.3027 39.5451 67.904 39.4675 67.3466C38.6455 61.5505 33.6114 57.176 27.7588 57.176C21.2289 57.176 15.9196 62.4818 15.9196 69.0047C15.9196 71.3118 16.5652 73.5238 17.7928 75.4041C17.9728 75.6792 18.008 76.0214 17.8881 76.3248C17.2743 77.8947 16.9638 79.5139 16.9638 81.1402C16.9638 88.2558 22.7494 94.0413 29.8614 94.0413C30.4223 94.0413 30.8738 94.4964 30.8738 95.0538C30.8703 95.6218 30.4188 96.0768 29.8578 96.0768ZM106.488 96.0768C105.927 96.0768 105.472 95.6218 105.472 95.0644C105.472 94.5035 105.927 94.0519 106.488 94.0519C113.597 94.0519 119.382 88.2664 119.382 81.1508C119.382 74.0282 113.597 68.2286 106.488 68.2286C105.927 68.2286 105.472 67.7735 105.472 67.2161C105.472 66.6552 105.927 66.2001 106.488 66.2001C114.715 66.2001 121.411 72.9064 121.411 81.1508C121.411 89.3811 114.715 96.0768 106.488 96.0768Z" fill="#333333"/>
<path d="M58.7362 59.4409C58.1753 59.4409 57.7237 58.9858 57.7237 58.4284C57.7237 49.4044 50.3824 42.0666 41.3548 42.0666C31.7451 42.0666 25.0318 48.085 25.0318 56.7068C25.0318 57.2678 24.5767 57.7229 24.0193 57.7229C23.4584 57.7229 23.0068 57.2678 23.0068 56.7068C23.0068 47.0478 30.7221 40.0381 41.3583 40.0381C51.5042 40.0381 59.7557 48.2896 59.7557 58.4284C59.7522 58.9893 59.2971 59.4409 58.7362 59.4409Z" fill="#333333"/>
<path d="M76.6751 54.3397C76.1142 54.3397 75.6626 53.8846 75.6626 53.3237C75.6626 44.2997 68.3213 36.9619 59.2937 36.9619C54.7746 36.9619 50.4249 38.8457 47.3557 42.1371C46.9712 42.5463 46.3291 42.5675 45.9234 42.1865C45.5142 41.8055 45.4931 41.1635 45.8705 40.7542C49.3242 37.0536 54.2172 34.9334 59.2937 34.9334C69.4396 34.9334 77.6911 43.1849 77.6911 53.3272C77.6911 53.8846 77.236 54.3397 76.6751 54.3397Z" fill="#333333"/>
<path d="M96.4905 49.235C96.1236 49.235 95.7673 49.0339 95.5874 48.6847C92.7616 43.1955 87.1807 39.7876 81.0177 39.7876C78.0367 39.7876 75.1263 40.5955 72.6074 42.123C72.1241 42.4158 71.5032 42.2606 71.214 41.7808C70.9247 41.3011 71.0764 40.6766 71.5562 40.3874C74.3925 38.6658 77.6663 37.7592 81.0177 37.7592C87.9427 37.7592 94.2151 41.5903 97.3936 47.7569C97.6511 48.2543 97.4536 48.8681 96.9562 49.1221C96.808 49.1997 96.6457 49.235 96.4905 49.235Z" fill="#333333"/>
<path d="M120.367 80.2513C120.25 80.2513 120.134 80.2301 120.017 80.1877C119.492 79.9937 119.224 79.4116 119.414 78.886C120.088 77.048 120.427 75.1254 120.427 73.1675C120.427 64.1328 113.082 56.788 104.051 56.788C95.0336 56.788 87.6994 64.1364 87.6994 73.1675C87.6994 73.7284 87.2443 74.1799 86.6834 74.1799C86.1224 74.1799 85.6709 73.7249 85.6709 73.1675C85.6709 63.0145 93.9153 54.7595 104.054 54.7595C114.2 54.7595 122.459 63.018 122.459 73.1675C122.459 75.3653 122.074 77.5208 121.319 79.581C121.167 79.9973 120.779 80.2513 120.367 80.2513Z" fill="#333333"/>
<path d="M79.8816 61.8927C79.3207 61.8927 78.8691 61.4376 78.8691 60.8767C78.8691 53.2391 85.0886 47.0196 92.7333 47.0196C98.0991 47.0196 103.027 50.1664 105.292 55.0312C105.529 55.5392 105.306 56.1424 104.802 56.3788C104.29 56.6116 103.691 56.3929 103.454 55.8884C101.525 51.7327 97.3159 49.0481 92.7368 49.0481C86.2105 49.0481 80.9011 54.3538 80.9011 60.8767C80.8976 61.4376 80.4425 61.8927 79.8816 61.8927Z" fill="#333333"/>
<path d="M65.7999 117H69.4999V111.2C69.4999 110.7 69.8999 110.3 70.2999 110.2C72.4999 109.8 74.5999 109 76.3999 107.6C76.7999 107.3 77.2999 107.4 77.6999 107.7L81.7999 111.8L84.3999 109.2L80.2999 105.1C79.9999 104.8 79.8999 104.2 80.1999 103.8C81.4999 102 82.2999 99.9 82.6999 97.7C82.7999 97.2 83.1999 96.9 83.6999 96.9H89.4999V93.2H83.6999C83.1999 93.2 82.7999 92.8 82.6999 92.4C82.2999 90.2 81.3999 88.1 80.1999 86.3C79.8999 85.9 79.9999 85.3 80.2999 85L84.3999 80.9L81.7999 78.3L77.6999 82.4C77.3999 82.7 76.7999 82.8 76.3999 82.5C74.4999 81.2 72.4999 80.3 70.1999 79.9C69.6999 79.8 69.3999 79.4 69.3999 78.9V73.1H65.6999V78.9C65.6999 79.4 65.2999 79.8 64.8999 79.9C62.6999 80.3 60.5999 81.2 58.7999 82.5C58.3999 82.8 57.8999 82.7 57.4999 82.4L53.3999 78.3L50.7999 80.9L54.8999 85C55.1999 85.3 55.2999 85.9 54.9999 86.3C53.6999 88.1 52.7999 90.2 52.4999 92.4C52.3999 92.9 51.9999 93.2 51.4999 93.2H45.6999V96.9H51.4999C51.9999 96.9 52.3999 97.3 52.4999 97.7C52.8999 99.9 53.7999 102 54.9999 103.8C55.2999 104.2 55.1999 104.8 54.8999 105.1L50.7999 109.2L53.3999 111.8L57.4999 107.7C57.7999 107.4 58.3999 107.3 58.7999 107.6C60.5999 108.9 62.7999 109.8 64.8999 110.2C65.3999 110.3 65.6999 110.7 65.6999 111.2V117H65.7999ZM70.4999 119.1H64.7999C64.1999 119.1 63.7999 118.6 63.7999 118.1V112.1C61.8999 111.7 60.0999 110.9 58.3999 109.9L54.1999 114.2C53.7999 114.6 53.1999 114.6 52.7999 114.2L48.7999 110.2C48.5999 110 48.4999 109.8 48.4999 109.5C48.4999 109.2 48.5999 109 48.7999 108.8L53.0999 104.5C52.0999 102.9 51.2999 101 50.8999 99.1H44.8999C44.2999 99.1 43.8999 98.6 43.8999 98.1V92.4C43.8999 91.8 44.3999 91.4 44.8999 91.4H50.8999C51.2999 89.5 52.0999 87.6 53.0999 86L48.7999 81.7C48.5999 81.5 48.4999 81.3 48.4999 81C48.4999 80.7 48.5999 80.5 48.7999 80.3L52.7999 76.3C53.1999 75.9 53.7999 75.9 54.1999 76.3L58.3999 80.6C60.0999 79.6 61.8999 78.8 63.7999 78.4V72.4C63.7999 71.8 64.2999 71.4 64.7999 71.4H70.4999C71.0999 71.4 71.4999 71.9 71.4999 72.4V78.4C73.3999 78.8 75.1999 79.6 76.8999 80.6L81.0999 76.4C81.4999 76 82.0999 76 82.4999 76.4L86.4999 80.4C86.6999 80.6 86.7999 80.8 86.7999 81.1C86.7999 81.4 86.6999 81.6 86.4999 81.8L82.2999 86.1C83.2999 87.7 84.0999 89.6 84.4999 91.5H90.4999C91.0999 91.5 91.4999 92 91.4999 92.5V98.2C91.4999 98.8 90.9999 99.2 90.4999 99.2H84.4999C84.0999 101.1 83.2999 103 82.2999 104.6L86.4999 108.9C86.8999 109.3 86.8999 109.9 86.4999 110.3L82.4999 114.3C82.0999 114.7 81.4999 114.7 81.0999 114.3L76.8999 110.1C75.1999 111.2 73.3999 111.9 71.4999 112.3V118.3C71.4999 118.6 71.0999 119.1 70.4999 119.1Z" fill="#09A2E3"/>
<path d="M67.7001 86C62.7001 86 58.7001 90 58.7001 95C58.7001 100 62.8001 104 67.7001 104C72.7001 104 76.7001 100 76.7001 95C76.7001 90.1 72.6001 86 67.7001 86ZM67.7001 106.1C61.6001 106.1 56.6001 101.1 56.6001 95.1C56.6001 89 61.6001 84.1 67.7001 84.1C73.8001 84.1 78.7001 89.1 78.7001 95.1C78.7001 101.2 73.7001 106.1 67.7001 106.1Z" fill="#09A2E3"/>
<path d="M67.6999 91.8C65.8999 91.8 64.3999 93.3 64.3999 95C64.3999 96.8 65.8999 98.2 67.6999 98.2C69.4999 98.2 70.8999 96.7 70.8999 95C70.8999 93.3 69.3999 91.8 67.6999 91.8ZM67.6999 100.3C64.7999 100.3 62.3999 97.9 62.3999 95C62.3999 92.1 64.7999 89.7 67.6999 89.7C70.5999 89.7 72.9999 92.1 72.9999 95C72.8999 98 70.5999 100.3 67.6999 100.3Z" fill="#09A2E3"/>
<path d="M14.9986 53.0768C14.7305 53.0768 14.4588 52.9674 14.2578 52.7522L5.87223 43.7634C5.69937 43.5765 5.60059 43.3295 5.60059 43.072V26.5479C5.60059 25.987 6.05568 25.5354 6.61307 25.5354C7.17398 25.5354 7.62554 25.9905 7.62554 26.5479V42.6734L15.7359 51.3693C16.1169 51.7785 16.0957 52.4206 15.6865 52.8016C15.496 52.9851 15.2455 53.0768 14.9986 53.0768Z" fill="#09A2E3"/>
<path d="M40.4375 34.2137C39.8766 34.2137 39.425 33.7587 39.425 33.2013V24.8122C39.425 24.2513 39.8801 23.7997 40.4375 23.7997C40.9984 23.7997 41.45 24.2548 41.45 24.8122V33.2013C41.45 33.7622 40.9984 34.2137 40.4375 34.2137Z" fill="#09A2E3"/>
<path d="M27.8681 40.5002C27.6 40.5002 27.3283 40.3909 27.1272 40.1757L18.7382 31.1904C18.5618 31.0035 18.4666 30.7565 18.4666 30.499V13.1353C18.4666 12.5744 18.9216 12.1193 19.479 12.1193C20.0399 12.1193 20.4915 12.5744 20.4915 13.1353V30.1004L28.6054 38.7928C28.9899 39.202 28.9652 39.8441 28.556 40.2251C28.3655 40.4085 28.1186 40.5002 27.8681 40.5002Z" fill="#09A2E3"/>
<path d="M6.6484 16.8535C4.25657 16.8535 2.30923 18.8009 2.30923 21.1927C2.30923 23.5881 4.25657 25.5354 6.6484 25.5354C9.04376 25.5354 10.9876 23.5881 10.9876 21.1927C10.9876 18.8009 9.04023 16.8535 6.6484 16.8535ZM6.6484 27.5639C3.13826 27.5639 0.280762 24.7064 0.280762 21.1927C0.280762 17.6826 3.13826 14.825 6.6484 14.825C10.1585 14.825 13.016 17.6826 13.016 21.1927C13.016 24.7064 10.1585 27.5639 6.6484 27.5639Z" fill="#09A2E3"/>
<path d="M19.4825 3.44096C17.1012 3.44096 15.1609 5.38474 15.1609 7.77657C15.1609 10.1719 17.1012 12.1193 19.4825 12.1193C21.8778 12.1193 23.8216 10.1719 23.8216 7.77657C23.8216 5.38474 21.8743 3.44096 19.4825 3.44096ZM19.4825 14.1513C15.9829 14.1513 13.136 11.2938 13.136 7.78012C13.136 4.26998 15.9829 1.41248 19.4825 1.41248C22.9926 1.41248 25.8501 4.26646 25.8501 7.78012C25.8501 11.2938 22.9926 14.1513 19.4825 14.1513Z" fill="#09A2E3"/>
<path d="M40.4375 15.1179C38.0456 15.1179 36.0983 17.0687 36.0983 19.4712C36.0983 21.8595 38.0456 23.8033 40.4375 23.8033C42.8293 23.8033 44.7731 21.863 44.7731 19.4712C44.7731 17.0687 42.8293 15.1179 40.4375 15.1179ZM40.4375 25.8282C36.9273 25.8282 34.0698 22.9742 34.0698 19.4712C34.0698 15.954 36.9273 13.0894 40.4375 13.0894C43.9476 13.0894 46.8016 15.9504 46.8016 19.4712C46.8016 22.9742 43.9476 25.8282 40.4375 25.8282Z" fill="#09A2E3"/>
<path d="M59.4485 31.8148C58.8876 31.8148 58.436 31.3598 58.436 30.8024V12.6167C58.436 12.0558 58.8911 11.6007 59.4485 11.6007C60.0094 11.6007 60.4645 12.0558 60.4645 12.6167V30.8024C60.4645 31.3598 60.0094 31.8148 59.4485 31.8148Z" fill="#09A2E3"/>
<path d="M108.982 53.0768C108.735 53.0768 108.485 52.9851 108.291 52.8051C107.881 52.4241 107.86 51.7821 108.241 51.3729L116.352 42.6769V25.7118C116.352 25.1509 116.807 24.6993 117.364 24.6993C117.925 24.6993 118.38 25.1544 118.38 25.7118V43.0755C118.38 43.333 118.281 43.58 118.108 43.767L109.726 52.7557C109.525 52.9709 109.254 53.0768 108.982 53.0768Z" fill="#09A2E3"/>
<path d="M96.1093 40.5002C95.8623 40.5002 95.6154 40.4085 95.4178 40.2286C95.0086 39.8476 94.9874 39.2056 95.3684 38.7963L103.465 30.1039V13.1388C103.465 12.5779 103.92 12.1228 104.477 12.1228C105.038 12.1228 105.493 12.5779 105.493 13.1388V30.5025C105.493 30.7601 105.394 31.0035 105.222 31.194L96.8501 40.1792C96.6525 40.3909 96.3809 40.5002 96.1093 40.5002Z" fill="#09A2E3"/>
<path d="M83.5468 34.2137C82.9858 34.2137 82.5308 33.7587 82.5308 33.2013V24.8122C82.5308 24.2513 82.9858 23.7997 83.5468 23.7997C84.1077 23.7997 84.5592 24.2548 84.5592 24.8122V33.2013C84.5592 33.7622 84.1077 34.2137 83.5468 34.2137Z" fill="#09A2E3"/>
<path d="M59.0535 2.95408C56.6687 2.95408 54.7284 4.90142 54.7284 7.29325C54.7284 9.67803 56.6687 11.6148 59.0535 11.6148C61.4453 11.6148 63.3926 9.6745 63.3926 7.29325C63.3926 4.89789 61.4453 2.95408 59.0535 2.95408ZM59.0535 13.6432C55.5504 13.6432 52.7 10.7928 52.7 7.29325C52.7 3.77958 55.5504 0.922095 59.0535 0.922095C62.5636 0.922095 65.4211 3.77958 65.4211 7.29325C65.4211 10.7928 62.5636 13.6432 59.0535 13.6432Z" fill="#09A2E3"/>
<path d="M83.5468 15.1179C81.1515 15.1179 79.2077 17.0687 79.2077 19.4712C79.2077 21.8595 81.155 23.8033 83.5468 23.8033C85.9281 23.8033 87.8648 21.863 87.8648 19.4712C87.8648 17.0687 85.9281 15.1179 83.5468 15.1179ZM83.5468 25.8282C80.0367 25.8282 77.1792 22.9742 77.1792 19.4712C77.1792 15.954 80.0367 13.0894 83.5468 13.0894C87.0464 13.0894 89.8933 15.9504 89.8933 19.4712C89.8933 22.9742 87.0464 25.8282 83.5468 25.8282Z" fill="#09A2E3"/>
<path d="M104.481 3.44096C102.096 3.44096 100.159 5.38474 100.159 7.77657C100.159 10.1719 102.099 12.1193 104.481 12.1193C106.876 12.1193 108.82 10.1719 108.82 7.77657C108.82 5.38474 106.876 3.44096 104.481 3.44096ZM104.481 14.1513C100.978 14.1513 98.1272 11.2938 98.1272 7.78012C98.1272 4.26998 100.978 1.41248 104.481 1.41248C107.991 1.41248 110.848 4.26646 110.848 7.78012C110.848 11.2938 107.991 14.1513 104.481 14.1513Z" fill="#09A2E3"/>
<path d="M117.368 16.0139C114.976 16.0139 113.028 17.9613 113.028 20.3531C113.028 22.7485 114.976 24.6958 117.368 24.6958C119.752 24.6958 121.693 22.7485 121.693 20.3531C121.693 17.9613 119.752 16.0139 117.368 16.0139ZM117.368 26.7243C113.858 26.7243 111 23.8668 111 20.3531C111 16.8394 113.858 13.9819 117.368 13.9819C120.871 13.9819 123.721 16.8394 123.721 20.3531C123.718 23.8668 120.871 26.7243 117.368 26.7243Z" fill="#09A2E3"/>
</svg>
