<?xml version="1.0" encoding="UTF-8" standalone="no"?>
<svg
   xmlns:dc="http://purl.org/dc/elements/1.1/"
   xmlns:cc="http://creativecommons.org/ns#"
   xmlns:rdf="http://www.w3.org/1999/02/22-rdf-syntax-ns#"
   xmlns:svg="http://www.w3.org/2000/svg"
   xmlns="http://www.w3.org/2000/svg"
   xmlns:sodipodi="http://sodipodi.sourceforge.net/DTD/sodipodi-0.dtd"
   xmlns:inkscape="http://www.inkscape.org/namespaces/inkscape"
   width="50"
   height="50"
   viewBox="0 0 50 50"
   version="1.1"
   id="svg43"
   sodipodi:docname="apis-icon.svg"
   style="fill:none"
   inkscape:version="0.92.4 (5da689c313, 2019-01-14)">
  <metadata
     id="metadata49">
    <rdf:RDF>
      <cc:Work
         rdf:about="">
        <dc:format>image/svg+xml</dc:format>
        <dc:type
           rdf:resource="http://purl.org/dc/dcmitype/StillImage" />
        <dc:title></dc:title>
      </cc:Work>
    </rdf:RDF>
  </metadata>
  <defs
     id="defs47" />
  <sodipodi:namedview
     pagecolor="#ffffff"
     bordercolor="#666666"
     borderopacity="1"
     objecttolerance="10"
     gridtolerance="10"
     guidetolerance="10"
     inkscape:pageopacity="0"
     inkscape:pageshadow="2"
     inkscape:window-width="1920"
     inkscape:window-height="1016"
     id="namedview45"
     showgrid="false"
     inkscape:zoom="4"
     inkscape:cx="76.960878"
     inkscape:cy="3.0128082"
     inkscape:window-x="0"
     inkscape:window-y="27"
     inkscape:window-maximized="1"
     inkscape:current-layer="g1947" />
  <g
     id="g1947"
     transform="matrix(1.1316995,0,0,1.1316995,4.0635592,-17.132384)">
    <g
       id="g822"
       transform="matrix(1.0776159,0,0,1.0776159,-1.4358941,-2.8895863)">
      <path
         d="m 26.0413,30.69266 c -4.1491,-3.71053 -10.9335,-3.71053 -15.0826,0 C 9.606,31.90241 8.71689,33.34124 8.2663,34.84262 8.12668,35.3078 7.75453,35.6665 7.2845,35.7889 4.58376,36.492 2.78196,38.6621 2.78196,41.0545 c 0,2.8924 2.67404,5.4944 6.30808,5.4944 H 29.6209 c 2.6891,0 4.5971,-1.917 4.5971,-3.9643 0,-1.8728 -1.5789,-3.6221 -3.9183,-3.9213 -0.6973,-0.0892 -1.2184,-0.6846 -1.2145,-1.3876 0.0132,-2.35009 -0.9792,-4.73655 -3.0439,-6.58304 z M 9.10422,28.61899 c 5.20508,-4.65491 13.58648,-4.65491 18.79158,0 2.3229,2.07741 3.6439,4.75465 3.9179,7.52341 2.9245,0.8352 5.1863,3.3215 5.1863,6.4422 0,3.8679 -3.4539,6.7462 -7.3791,6.7462 H 9.09004 C 4.21993,49.3308 0,45.7674 0,41.0545 0,37.4417 2.50343,34.48565 5.84541,33.32098 6.49628,31.58818 7.58822,29.97475 9.10422,28.61899 Z"
         id="path33"
         inkscape:connector-curvature="0"
         style="clip-rule:evenodd;fill:#349eda;fill-rule:evenodd" />
      <path
         d="m 8.82194,42.9323 c -0.19502,0 -0.24565,-0.1238 -0.15189,-0.3713 l 2.80155,-7.3532 c 0.0862,-0.22878 0.21,-0.34318 0.3713,-0.34318 h 0.7876 c 0.1612,0 0.285,0.1144 0.3712,0.34318 l 2.8016,7.3532 c 0.0937,0.2475 0.0431,0.3713 -0.1519,0.3713 h -0.5738 c -0.1988,0 -0.3338,-0.0919 -0.4051,-0.2757 L 13.9693,40.7944 H 10.504 l -0.70321,1.8622 c -0.07126,0.1838 -0.20627,0.2757 -0.40504,0.2757 z m 2.03646,-3.0605 h 2.7565 l -0.8607,-2.2504 c -0.0787,-0.2101 -0.1575,-0.4426 -0.2363,-0.6977 -0.075,-0.255 -0.165,-0.617 -0.27,-1.0858 h -0.0225 c -0.105,0.4688 -0.1969,0.8308 -0.2756,1.0858 -0.075,0.2551 -0.1519,0.4876 -0.2307,0.6977 z"
         id="path35"
         inkscape:connector-curvature="0"
         style="fill:#349eda" />
      <path
         d="m 17.7154,42.9323 c -0.1875,0 -0.2813,-0.1032 -0.2813,-0.3094 v -7.4488 c 0,-0.20634 0.0938,-0.30948 0.2813,-0.30948 h 2.3628 c 1.2751,0 2.1358,0.21568 2.5821,0.64698 0.4463,0.4276 0.6694,1.0164 0.6694,1.7666 0,0.7501 -0.2231,1.3408 -0.6694,1.7722 -0.4463,0.4275 -1.307,0.6413 -2.5821,0.6413 h -1.5639 v 2.9312 c 0,0.2062 -0.0938,0.3094 -0.2813,0.3094 z m 0.7989,-4.1632 h 1.5807 c 0.8251,0 1.3877,-0.1163 1.6877,-0.3489 0.3,-0.2362 0.4501,-0.6169 0.4501,-1.142 0,-0.5251 -0.1501,-0.9039 -0.4501,-1.1365 -0.3,-0.2363 -0.8626,-0.3544 -1.6877,-0.3544 h -1.5807 z"
         id="path37"
         inkscape:connector-curvature="0"
         style="fill:#349eda" />
      <path
         d="m 25.0737,42.9323 c -0.1875,0 -0.2813,-0.1032 -0.2813,-0.3094 v -7.4488 c 0,-0.20634 0.0938,-0.30948 0.2813,-0.30948 h 0.5175 c 0.1875,0 0.2813,0.10314 0.2813,0.30948 v 7.4488 c 0,0.2062 -0.0938,0.3094 -0.2813,0.3094 z"
         id="path39"
         inkscape:connector-curvature="0"
         style="fill:#349eda" />
      <path
         d="m 8.40988,42.4624 1.9e-4,-5e-4 2.80123,-7.3522 c 0,-2e-4 10e-5,-4e-4 10e-5,-5e-4 0.1026,-0.27162 0.2977,-0.52277 0.6315,-0.52277 h 0.7875 c 0.3338,0 0.5289,0.25115 0.6315,0.52277 0,10e-5 10e-5,3e-4 10e-5,5e-4 l 2.8014,7.3527 c 0.0507,0.134 0.0979,0.3157 0.0297,0.4824 -0.0871,0.213 -0.2919,0.2657 -0.4417,0.2657 h -0.5738 c -0.143,0 -0.284,-0.0335 -0.4069,-0.1171 -0.123,-0.0838 -0.2058,-0.2028 -0.2576,-0.3362 l -8e-4,-0.0023 -0.6353,-1.6823 h -3.0807 l -0.6361,1.6846 C 10.0084,42.8906 9.92564,43.0096 9.8026,43.0934 9.67974,43.177 9.53868,43.2105 9.39574,43.2105 H 8.82193 c -0.14983,0 -0.35458,-0.0527 -0.44172,-0.2657 -0.06818,-0.1667 -0.02105,-0.3484 0.02967,-0.4824 z m 2.09412,-1.668 h 3.4653 l 0.7032,1.8622 c 0.0713,0.1838 0.2063,0.2757 0.4051,0.2757 h 0.5738 c 0.195,0 0.2456,-0.1238 0.1519,-0.3713 l -2.8016,-7.3532 c -0.0862,-0.22878 -0.21,-0.34318 -0.3712,-0.34318 h -0.7876 c -0.1613,0 -0.2851,0.1144 -0.3713,0.34318 L 8.67005,42.561 c -0.09376,0.2475 -0.04313,0.3713 0.15189,0.3713 h 0.57381 c 0.19877,0 0.33378,-0.0919 0.40504,-0.2757 z m 1.2151,-3.173 -0.8607,2.2504 h 2.7565 l -0.8607,-2.2504 c -0.0787,-0.2101 -0.1575,-0.4426 -0.2363,-0.6977 -0.0415,-0.1413 -0.0877,-0.3155 -0.1385,-0.5225 -0.0405,-0.1651 -0.0839,-0.3511 -0.1303,-0.558 -4e-4,-0.0017 -8e-4,-0.0035 -0.0012,-0.0053 h -0.0225 c -4e-4,0.0018 -8e-4,0.0036 -0.0012,0.0053 -0.0463,0.2067 -0.0901,0.3925 -0.1313,0.5574 -0.0517,0.2073 -0.0995,0.3817 -0.1431,0.5231 -0.075,0.2551 -0.1519,0.4876 -0.2307,0.6977 z m 0.497,-0.6174 c -0.0764,0.2597 -0.1552,0.4981 -0.2365,0.715 l -7e-4,0.0017 -0.7163,1.8729 h 1.9481 l -0.717,-1.8746 c -0.081,-0.216 -0.1615,-0.4538 -0.2416,-0.7132 L 12.251,37.0022 c -0.0055,-0.0188 -0.0111,-0.0381 -0.0168,-0.058 -0.0061,0.0205 -0.0121,0.0404 -0.0181,0.0598 z m 10.6375,2.2464 -8e-4,8e-4 c -0.2702,0.2589 -0.6475,0.4364 -1.1057,0.5502 -0.4595,0.1141 -1.0177,0.1685 -1.6689,0.1685 h -1.2858 v 2.653 c 0,0.1398 -0.0312,0.2965 -0.1426,0.4192 -0.116,0.1276 -0.273,0.1684 -0.4168,0.1684 h -0.5176 c -0.1438,0 -0.3008,-0.0408 -0.4168,-0.1684 -0.1115,-0.1227 -0.1427,-0.2794 -0.1427,-0.4192 v -7.4488 c 0,-0.1399 0.0312,-0.29664 0.1427,-0.41925 0.116,-0.12764 0.273,-0.16842 0.4168,-0.16842 h 2.3628 c 1.2822,0 2.2439,0.21176 2.7751,0.72477 0.5121,0.491 0.7546,1.1587 0.7546,1.967 0,0.8086 -0.2427,1.4778 -0.7543,1.9722 z m -0.1933,-3.7388 c -0.4463,-0.4313 -1.307,-0.64698 -2.5821,-0.64698 h -2.3628 c -0.1875,0 -0.2813,0.10314 -0.2813,0.30948 v 7.4488 c 0,0.2062 0.0938,0.3094 0.2813,0.3094 h 0.5176 c 0.1875,0 0.2813,-0.1032 0.2813,-0.3094 v -2.9312 h 1.5639 c 1.2751,0 2.1358,-0.2138 2.5821,-0.6413 0.4463,-0.4314 0.6694,-1.0221 0.6694,-1.7722 0,-0.7502 -0.2231,-1.339 -0.6694,-1.7666 z m -1.0497,0.8487 c -0.1037,-0.0817 -0.2733,-0.1578 -0.532,-0.2122 -0.2563,-0.0538 -0.5827,-0.0826 -0.9836,-0.0826 h -1.3026 v 2.4254 h 1.3026 c 0.4011,0 0.7278,-0.0284 0.9845,-0.0815 0.2584,-0.0534 0.4281,-0.1282 0.5319,-0.2084 0.2098,-0.1657 0.3432,-0.4496 0.3432,-0.9228 0,-0.4742 -0.1339,-0.755 -0.3423,-0.9166 z m 0.1721,2.0599 c -0.3,0.2326 -0.8626,0.3489 -1.6877,0.3489 h -1.5807 v -2.9818 h 1.5807 c 0.8251,0 1.3877,0.1181 1.6877,0.3544 0.3,0.2326 0.4501,0.6114 0.4501,1.1365 0,0.5251 -0.1501,0.9058 -0.4501,1.142 z m 2.8742,4.6219 c -0.1115,-0.1227 -0.1427,-0.2794 -0.1427,-0.4192 v -7.4488 c 0,-0.1399 0.0312,-0.29664 0.1427,-0.41925 0.116,-0.12764 0.2729,-0.16842 0.4168,-0.16842 h 0.5175 c 0.1439,0 0.3008,0.04078 0.4168,0.16842 0.1115,0.12261 0.1427,0.27935 0.1427,0.41925 v 7.4488 c 0,0.1398 -0.0312,0.2965 -0.1427,0.4192 -0.116,0.1276 -0.2729,0.1684 -0.4168,0.1684 h -0.5175 c -0.1439,0 -0.3008,-0.0408 -0.4168,-0.1684 z m 0.1355,-0.4192 c 0,0.2062 0.0938,0.3094 0.2813,0.3094 h 0.5175 c 0.1875,0 0.2813,-0.1032 0.2813,-0.3094 v -7.4488 c 0,-0.20634 -0.0938,-0.30948 -0.2813,-0.30948 h -0.5175 c -0.1875,0 -0.2813,0.10314 -0.2813,0.30948 z"
         id="path41"
         inkscape:connector-curvature="0"
         style="clip-rule:evenodd;fill:#349eda;fill-rule:evenodd" />
    </g>
  </g>
</svg>
