<?xml version="1.0" encoding="UTF-8" standalone="no"?>
<svg
   xmlns:dc="http://purl.org/dc/elements/1.1/"
   xmlns:cc="http://creativecommons.org/ns#"
   xmlns:rdf="http://www.w3.org/1999/02/22-rdf-syntax-ns#"
   xmlns:svg="http://www.w3.org/2000/svg"
   xmlns="http://www.w3.org/2000/svg"
   xmlns:sodipodi="http://sodipodi.sourceforge.net/DTD/sodipodi-0.dtd"
   xmlns:inkscape="http://www.inkscape.org/namespaces/inkscape"
   width="80"
   height="80"
   viewBox="0 0 80 80"
   fill="none"
   version="1.1"
   id="svg4"
   sodipodi:docname="burger-menu.svg"
   inkscape:version="1.0.2 (e86c870879, 2021-01-15)">
  <metadata
     id="metadata10">
    <rdf:RDF>
      <cc:Work
         rdf:about="">
        <dc:format>image/svg+xml</dc:format>
        <dc:type
           rdf:resource="http://purl.org/dc/dcmitype/StillImage" />
        <dc:title></dc:title>
      </cc:Work>
    </rdf:RDF>
  </metadata>
  <defs
     id="defs8" />
  <sodipodi:namedview
     pagecolor="#ffffff"
     bordercolor="#666666"
     borderopacity="1"
     objecttolerance="10"
     gridtolerance="10"
     guidetolerance="10"
     inkscape:pageopacity="0"
     inkscape:pageshadow="2"
     inkscape:window-width="1920"
     inkscape:window-height="1016"
     id="namedview6"
     showgrid="false"
     inkscape:zoom="3.8214286"
     inkscape:cx="11.085787"
     inkscape:cy="69.389958"
     inkscape:window-x="0"
     inkscape:window-y="27"
     inkscape:window-maximized="1"
     inkscape:current-layer="svg4" />
  <path
     fill-rule="evenodd"
     clip-rule="evenodd"
     d="m 11.783959,23.070375 c 0,-1.558329 1.263275,-2.821604 2.821604,-2.821604 h 50.788873 c 1.558373,0 2.821605,1.263275 2.821605,2.821604 0,1.558316 -1.263232,2.821605 -2.821605,2.821605 H 14.605563 c -1.558329,0 -2.821604,-1.263289 -2.821604,-2.821605 z m 0,16.929625 c 0,-1.558316 1.263275,-2.821605 2.821604,-2.821605 h 50.788873 c 1.558373,0 2.821605,1.263289 2.821605,2.821605 0,1.558316 -1.263232,2.821604 -2.821605,2.821604 H 14.605563 c -1.558329,0 -2.821604,-1.263288 -2.821604,-2.821604 z m 0,16.929625 c 0,-1.558373 1.263275,-2.821605 2.821604,-2.821605 h 50.788873 c 1.558373,0 2.821605,1.263232 2.821605,2.821605 0,1.558371 -1.263232,2.821603 -2.821605,2.821603 H 14.605563 c -1.558329,0 -2.821604,-1.263232 -2.821604,-2.821603 z"
     fill="#292929"
     id="path2"
     style="stroke-width:2.8216" />
</svg>
