<?xml version="1.0" encoding="UTF-8" standalone="no"?>
<svg
   xmlns:dc="http://purl.org/dc/elements/1.1/"
   xmlns:cc="http://creativecommons.org/ns#"
   xmlns:rdf="http://www.w3.org/1999/02/22-rdf-syntax-ns#"
   xmlns:svg="http://www.w3.org/2000/svg"
   xmlns="http://www.w3.org/2000/svg"
   xmlns:sodipodi="http://sodipodi.sourceforge.net/DTD/sodipodi-0.dtd"
   xmlns:inkscape="http://www.inkscape.org/namespaces/inkscape"
   width="23"
   height="22"
   viewBox="0 0 23 22"
   fill="none"
   version="1.1"
   id="svg4"
   sodipodi:docname="github-logo-dark.svg"
   inkscape:version="1.0.2 (e86c870879, 2021-01-15)">
  <metadata
     id="metadata10">
    <rdf:RDF>
      <cc:Work
         rdf:about="">
        <dc:format>image/svg+xml</dc:format>
        <dc:type
           rdf:resource="http://purl.org/dc/dcmitype/StillImage" />
        <dc:title></dc:title>
      </cc:Work>
    </rdf:RDF>
  </metadata>
  <defs
     id="defs8" />
  <sodipodi:namedview
     pagecolor="#ffffff"
     bordercolor="#666666"
     borderopacity="1"
     objecttolerance="10"
     gridtolerance="10"
     guidetolerance="10"
     inkscape:pageopacity="0"
     inkscape:pageshadow="2"
     inkscape:window-width="1920"
     inkscape:window-height="1016"
     id="namedview6"
     showgrid="false"
     inkscape:zoom="19.454545"
     inkscape:cx="10.469029"
     inkscape:cy="11.991526"
     inkscape:window-x="0"
     inkscape:window-y="27"
     inkscape:window-maximized="1"
     inkscape:current-layer="svg4" />
  <path
     fill-rule="evenodd"
     clip-rule="evenodd"
     d="m 11.46625,0.49573156 c -6.07362,0 -11.00000002,4.82075004 -11.00000002,10.76420044 0,4.7547 3.17178002,8.783 7.49080002,10.2358 0.53988,0.066 0.74233,-0.2641 0.74233,-0.5283 0,-0.2642 0,-0.9245 0,-1.8491 -3.03681,0.6604 -3.71166,-1.4528 -3.71166,-1.4528 -0.47239,-1.2547 -1.21472,-1.5849 -1.21472,-1.5849 -1.01227,-0.6604 0.06748,-0.6604 0.06748,-0.6604 1.07976,0.0661 1.68712,1.1227 1.68712,1.1227 1.01227,1.6509 2.56442,1.1887 3.17178,0.9245 0.06748,-0.7264 0.40491,-1.1887 0.67485,-1.4528 -2.42945,-0.2642 -4.99387,-1.1887 -4.99387,-5.3491 0,-1.1886704 0.40491,-2.1131904 1.14724,-2.9056504 -0.06748,-0.19811 -0.47239,-1.32075 0.13497,-2.77358 0,0 0.94478,-0.26415 3.03681,1.12264 0.8773,-0.26415 1.82207,-0.33019 2.76687,-0.33019 0.9448,0 1.8896,0.13208 2.7669,0.33019 2.092,-1.38679 3.0368,-1.12264 3.0368,-1.12264 0.6073,1.45283 0.2024,2.57547 0.135,2.83962 0.6748,0.72641 1.1472,1.71698 1.1472,2.9057104 0,4.1603 -2.5644,5.0188 -4.9939,5.283 0.4049,0.3302 0.7424,0.9905 0.7424,1.9811 0,1.4528 0,2.5755 0,2.9717 0,0.2642 0.2024,0.5943 0.7423,0.5283 4.3865,-1.4528 7.4908,-5.4811 7.4908,-10.2358 C 22.46625,5.3164816 17.53985,0.49573156 11.46625,0.49573156 Z"
     fill="#ffffff"
     id="path2"
     style="fill:#333333" />
</svg>
