<?xml version="1.0" encoding="utf-8"?>
<!-- Generator: Adobe Illustrator 24.0.1, SVG Export Plug-In . SVG Version: 6.00 Build 0)  -->
<svg version="1.1"
	 id="Calque_1" xmlns:cc="http://creativecommons.org/ns#" xmlns:dc="http://purl.org/dc/elements/1.1/" xmlns:rdf="http://www.w3.org/1999/02/22-rdf-syntax-ns#"
	 xmlns="http://www.w3.org/2000/svg" xmlns:xlink="http://www.w3.org/1999/xlink" x="0px" y="0px" viewBox="0 0 160 121"
	 style="enable-background:new 0 0 160 121;" xml:space="preserve">
<style type="text/css">
	.st0{fill-rule:evenodd;clip-rule:evenodd;fill:#333333;}
	.st1{fill:#27C6BC;}
	.st2{fill:#09A2E3;}
	.st3{fill-rule:evenodd;clip-rule:evenodd;fill:#09A2E3;}
	.st4{fill-rule:evenodd;clip-rule:evenodd;fill:#27C6BC;}
</style>
<g transform="matrix(.34883 0 0 .34883 -6.5911 252.63)">
</g>
<g>
	<path class="st0" d="M121,20h-14.8v0H48.8v0H39c-2.4,0-4.3,1.9-4.3,4.3v49.8c0,0,0,0,0,0c0,0,0,0,0,0v10.5c0,2.4,1.9,4.3,4.3,4.3
		h30.8l-1.4,8.8h-6.1c-0.6,0-1.1,0.5-1.1,1.1v5.6c0,0.6,0.5,1.1,1.1,1.1h35.4c0.6,0,1.1-0.5,1.1-1.1v-5.6c0-0.6-0.5-1.1-1.1-1.1
		h-6.1L90.2,89H121c2.4,0,4.3-1.9,4.3-4.3V24.3C125.3,22,123.4,20,121,20z M39,22.1h20.3c0.1,0,0.2,0,0.3-0.1h40.8
		c0.1,0,0.2,0.1,0.3,0.1H121c1.2,0,2.2,1,2.2,2.2v48.8H36.8V24.3C36.8,23.1,37.8,22.1,39,22.1z M96.6,103.4H63.4v-3.5H69
		c0.1,0,0.1,0,0.2,0h21.5h0l0,0c0.1,0,0.2,0,0.2,0h5.6V103.4z M89.5,97.8h-19l1.4-8.8h16.2L89.5,97.8z M121,86.9H89c0,0,0,0,0,0H71
		c0,0,0,0,0,0H39c-1.2,0-2.2-1-2.2-2.2v-9.5h86.4v9.5C123.2,85.9,122.2,86.9,121,86.9z"/>
	<path class="st0" d="M80,76.8c-2.4,0-4.3,1.9-4.3,4.3c0,2.4,1.9,4.3,4.3,4.3c2.4,0,4.3-1.9,4.3-4.3C84.3,78.7,82.3,76.8,80,76.8z
		 M80,83.2c-1.2,0-2.2-1-2.2-2.2c0-1.2,1-2.2,2.2-2.2c1.2,0,2.2,1,2.2,2.2C82.1,82.2,81.2,83.2,80,83.2z"/>
</g>
<rect x="56.8" y="45.9" transform="matrix(-1.836970e-16 1 -1 -1.836970e-16 130.7103 -36.7863)" class="st0" width="53.9" height="2.1"/>
<rect x="34.7" y="45.9" class="st0" width="49.8" height="2.1"/>
<path class="st1" d="M59.9,33.8c-2.3,0-4.2-1.9-4.2-4.2s1.9-4.2,4.2-4.2c2.3,0,4.2,1.9,4.2,4.2S62.2,33.8,59.9,33.8z"/>
<path class="st1" d="M67.9,45.9H51.8l-0.1-0.6c0-0.4-0.1-0.8-0.1-1.1c0-5.2,3.7-9.5,8.2-9.5S68,39,68,44.2c0,0.4,0,0.7-0.1,1.1
	L67.9,45.9z"/>
<path class="st2" d="M59.9,60.9c-2.3,0-4.2-1.9-4.2-4.2s1.9-4.2,4.2-4.2c2.3,0,4.2,1.9,4.2,4.2S62.2,60.9,59.9,60.9z"/>
<path class="st2" d="M67.9,73.1H51.8l-0.1-0.6c0-0.4-0.1-0.8-0.1-1.1c0-5.2,3.7-9.5,8.2-9.5s8.2,4.2,8.2,9.5c0,0.4,0,0.7-0.1,1.1
	L67.9,73.1z"/>
<rect x="89.5" y="28.3" class="st3" width="16.7" height="2"/>
<rect x="89.5" y="32.8" class="st3" width="29.4" height="2"/>
<rect x="89.5" y="60" class="st3" width="16.7" height="2"/>
<rect x="89.5" y="64.5" class="st3" width="29.4" height="2"/>
<rect x="89.5" y="37.3" class="st3" width="29.4" height="2"/>
<rect x="89.5" y="43.9" class="st4" width="16.7" height="2"/>
<rect x="89.5" y="48.4" class="st4" width="29.4" height="2"/>
<rect x="89.5" y="52.9" class="st4" width="20.9" height="2"/>
</svg>
