<?xml version="1.0" encoding="UTF-8" standalone="no"?>
<svg
   xmlns:dc="http://purl.org/dc/elements/1.1/"
   xmlns:cc="http://creativecommons.org/ns#"
   xmlns:rdf="http://www.w3.org/1999/02/22-rdf-syntax-ns#"
   xmlns:svg="http://www.w3.org/2000/svg"
   xmlns="http://www.w3.org/2000/svg"
   xmlns:sodipodi="http://sodipodi.sourceforge.net/DTD/sodipodi-0.dtd"
   xmlns:inkscape="http://www.inkscape.org/namespaces/inkscape"
   width="60"
   height="60"
   viewBox="0 0 60 60"
   version="1.1"
   id="svg6"
   sodipodi:docname="mail.svg"
   style="fill:none"
   inkscape:version="0.92.4 (5da689c313, 2019-01-14)">
  <metadata
     id="metadata12">
    <rdf:RDF>
      <cc:Work
         rdf:about="">
        <dc:format>image/svg+xml</dc:format>
        <dc:type
           rdf:resource="http://purl.org/dc/dcmitype/StillImage" />
        <dc:title></dc:title>
      </cc:Work>
    </rdf:RDF>
  </metadata>
  <defs
     id="defs10" />
  <sodipodi:namedview
     pagecolor="#ffffff"
     bordercolor="#666666"
     borderopacity="1"
     objecttolerance="10"
     gridtolerance="10"
     guidetolerance="10"
     inkscape:pageopacity="0"
     inkscape:pageshadow="2"
     inkscape:window-width="1920"
     inkscape:window-height="1016"
     id="namedview8"
     showgrid="false"
     inkscape:zoom="5.2149125"
     inkscape:cx="-23.814145"
     inkscape:cy="-5.9179889"
     inkscape:window-x="0"
     inkscape:window-y="27"
     inkscape:window-maximized="1"
     inkscape:current-layer="svg6" />
  <g
     id="g824"
     transform="matrix(2.1050041,0,0,2.1050041,8.9499591,-79.460213)">
    <path
       style="clip-rule:evenodd;fill:#292929;fill-rule:evenodd"
       inkscape:connector-curvature="0"
       id="path2"
       d="m 0,45 c 0,-0.552285 0.447715,-1 1,-1 h 18 c 0.5523,0 1,0.447715 1,1 v 12 c 0,1.6569 -1.3431,3 -3,3 H 3 C 1.34315,60 0,58.6569 0,57 Z m 2,1 v 11 c 0,0.5523 0.44772,1 1,1 h 14 c 0.5523,0 1,-0.4477 1,-1 V 46 Z" />
    <path
       style="clip-rule:evenodd;fill:#292929;fill-rule:evenodd"
       inkscape:connector-curvature="0"
       id="path4"
       d="m 0.292893,44.292893 c 0.390524,-0.390524 1.023687,-0.390524 1.414217,0 L 10,52.58579 18.2929,44.292893 c 0.3905,-0.390524 1.0237,-0.390524 1.4142,0 0.3905,0.390524 0.3905,1.023687 0,1.414217 l -9,8.99999 c -0.3905,0.3905 -1.02368,0.3905 -1.41421,0 L 0.292893,45.70711 c -0.3905241,-0.39053 -0.3905241,-1.023693 0,-1.414217 z" />
  </g>
</svg>
